<svg width="81" height="48" viewBox="0 0 81 48" fill="none" xmlns="http://www.w3.org/2000/svg">
<path d="M20.5673 21.2973C20.3113 21.2973 20.1246 21.244 20.0073 21.1373C19.9006 21.02 19.8473 20.844 19.8473 20.6093V11.1213C19.8473 10.8866 19.9006 10.7106 20.0073 10.5933C20.1246 10.476 20.3113 10.4173 20.5673 10.4173H27.2073C27.4633 10.4173 27.6393 10.4706 27.7353 10.5773C27.8313 10.6733 27.8793 10.844 27.8793 11.0893V11.6813C27.8793 11.9266 27.8313 12.1026 27.7353 12.2093C27.6393 12.316 27.4633 12.3693 27.2073 12.3693H22.4873V14.8813H25.7833C26.0393 14.8813 26.2153 14.9346 26.3113 15.0413C26.4073 15.1373 26.4553 15.308 26.4553 15.5533V16.1453C26.4553 16.3906 26.4073 16.5666 26.3113 16.6733C26.2153 16.78 26.0393 16.8333 25.7833 16.8333H22.4873V20.6093C22.4873 20.844 22.4339 21.02 22.3273 21.1373C22.2206 21.244 22.0339 21.2973 21.7673 21.2973H20.5673ZM33.4238 21.5373C31.6104 21.5373 30.2238 21.0413 29.2638 20.0493C28.3144 19.0573 27.8398 17.66 27.8398 15.8573C27.8398 14.0546 28.3144 12.6573 29.2638 11.6653C30.2238 10.6733 31.6104 10.1773 33.4238 10.1773C35.2264 10.1773 36.6024 10.6733 37.5518 11.6653C38.5118 12.6573 38.9918 14.0546 38.9918 15.8573C38.9918 17.66 38.5118 19.0573 37.5518 20.0493C36.6024 21.0413 35.2264 21.5373 33.4238 21.5373ZM33.4238 19.6333C34.3944 19.6333 35.1251 19.3186 35.6158 18.6893C36.1171 18.0493 36.3678 17.1053 36.3678 15.8573C36.3678 14.6093 36.1171 13.6706 35.6158 13.0413C35.1251 12.4013 34.3944 12.0813 33.4238 12.0813C32.4424 12.0813 31.7011 12.4013 31.1998 13.0413C30.7091 13.6706 30.4638 14.6093 30.4638 15.8573C30.4638 17.1053 30.7091 18.0493 31.1998 18.6893C31.7011 19.3186 32.4424 19.6333 33.4238 19.6333ZM45.4141 21.5373C43.5581 21.5373 42.1181 21.052 41.0941 20.0813C40.0808 19.1 39.5741 17.692 39.5741 15.8573C39.5741 14.012 40.0701 12.604 41.0621 11.6333C42.0648 10.6626 43.4941 10.1773 45.3501 10.1773C46.1288 10.1773 46.8328 10.2573 47.4621 10.4173C48.1021 10.5666 48.6408 10.7853 49.0781 11.0733C49.1848 11.148 49.2381 11.2333 49.2381 11.3293C49.2381 11.4146 49.2061 11.5053 49.1421 11.6013L48.5821 12.5773C48.5075 12.6946 48.4328 12.7533 48.3581 12.7533C48.2941 12.7533 48.2035 12.7213 48.0861 12.6573C47.4035 12.2733 46.5981 12.0813 45.6701 12.0813C44.5715 12.0813 43.7181 12.4013 43.1101 13.0413C42.5021 13.6706 42.1981 14.6093 42.1981 15.8573C42.1981 17.116 42.5128 18.06 43.1421 18.6893C43.7821 19.3186 44.6515 19.6333 45.7501 19.6333C46.7528 19.6333 47.5955 19.4413 48.2781 19.0573C48.3955 18.9933 48.4861 18.9613 48.5501 18.9613C48.6248 18.9613 48.6995 19.02 48.7741 19.1373L49.3981 20.2093C49.4408 20.284 49.4621 20.348 49.4621 20.4013C49.4621 20.4653 49.3981 20.5453 49.2701 20.6413C48.4381 21.2386 47.1528 21.5373 45.4141 21.5373ZM55.6499 21.5373C54.6685 21.5373 53.7992 21.372 53.0419 21.0413C52.2845 20.7106 51.6979 20.236 51.2819 19.6173C50.8659 18.988 50.6579 18.252 50.6579 17.4093V11.1213C50.6579 10.8866 50.7112 10.7106 50.8179 10.5933C50.9352 10.476 51.1219 10.4173 51.3779 10.4173H52.5779C52.8445 10.4173 53.0312 10.476 53.1379 10.5933C53.2445 10.7 53.2979 10.876 53.2979 11.1213V17.4573C53.2979 18.1506 53.5059 18.6893 53.9219 19.0733C54.3379 19.4466 54.9139 19.6333 55.6499 19.6333C56.3859 19.6333 56.9565 19.4466 57.3619 19.0733C57.7779 18.6893 57.9859 18.1506 57.9859 17.4573V11.1213C57.9859 10.8866 58.0392 10.7106 58.1459 10.5933C58.2632 10.476 58.4499 10.4173 58.7059 10.4173H59.9059C60.1725 10.4173 60.3592 10.476 60.4659 10.5933C60.5832 10.7106 60.6419 10.8866 60.6419 11.1213V17.4093C60.6419 18.252 60.4285 18.988 60.0019 19.6173C59.5859 20.236 58.9992 20.7106 58.2419 21.0413C57.4952 21.372 56.6312 21.5373 55.6499 21.5373Z" fill="white"/>
<path d="M70.6998 24.9669C69.0358 24.9669 67.4358 24.7962 65.8998 24.4549C64.3852 24.0922 63.1585 23.5909 62.2198 22.9509C61.8998 22.7162 61.7398 22.5029 61.7398 22.3109C61.7398 22.1829 61.7932 22.0335 61.8998 21.8629L63.2118 19.7829C63.3398 19.5695 63.4785 19.4629 63.6278 19.4629C63.7558 19.4629 63.9158 19.5269 64.1078 19.6549C64.8972 20.1029 65.8038 20.4655 66.8278 20.7429C67.8518 21.0202 68.8865 21.1589 69.9318 21.1589C71.1692 21.1589 72.0865 20.9669 72.6838 20.5829C73.2812 20.1775 73.5798 19.5482 73.5798 18.6949C73.5798 18.1189 73.4305 17.6495 73.1318 17.2869C72.8545 16.9242 72.4278 16.6042 71.8518 16.3269C71.2972 16.0495 70.4332 15.6869 69.2598 15.2389C67.8945 14.7269 66.7318 14.2042 65.7718 13.6709C64.8332 13.1375 64.0545 12.4549 63.4358 11.6229C62.8385 10.7695 62.5398 9.73488 62.5398 8.51888C62.5398 6.49221 63.2758 4.94554 64.7478 3.87888C66.2198 2.79088 68.1612 2.24688 70.5718 2.24688C73.7505 2.24688 76.1825 2.84421 77.8678 4.03888C78.1878 4.29488 78.3478 4.50821 78.3478 4.67888C78.3478 4.80688 78.2945 4.95621 78.1878 5.12688L76.8758 7.20688C76.7478 7.42021 76.6092 7.52688 76.4598 7.52688C76.3318 7.52688 76.1718 7.46288 75.9798 7.33488C74.6785 6.48154 73.0998 6.05488 71.2438 6.05488C68.9398 6.05488 67.7878 6.88688 67.7878 8.55088C67.7878 9.10554 67.9158 9.56421 68.1718 9.92688C68.4492 10.2682 68.8225 10.5669 69.2918 10.8229C69.7612 11.0575 70.4972 11.3669 71.4998 11.7509L72.3958 12.1029C73.9532 12.7215 75.1798 13.3082 76.0758 13.8629C76.9718 14.3962 77.6545 15.0575 78.1238 15.8469C78.6145 16.6362 78.8598 17.6495 78.8598 18.8869C78.8598 20.7429 78.1558 22.2255 76.7478 23.3349C75.3612 24.4229 73.3452 24.9669 70.6998 24.9669Z" fill="white"/>
<path d="M10.5944 47.7714C8.93035 47.7714 7.33035 47.6008 5.79435 47.2594C4.27969 46.8968 3.05302 46.3954 2.11435 45.7554C1.79435 45.5208 1.63435 45.3074 1.63435 45.1154C1.63435 44.9874 1.68768 44.8381 1.79435 44.6674L3.10635 42.5874C3.23435 42.3741 3.37302 42.2674 3.52235 42.2674C3.65035 42.2674 3.81035 42.3314 4.00235 42.4594C4.79169 42.9074 5.69835 43.2701 6.72235 43.5474C7.74635 43.8248 8.78102 43.9634 9.82635 43.9634C11.0637 43.9634 11.981 43.7714 12.5784 43.3874C13.1757 42.9821 13.4744 42.3528 13.4744 41.4994C13.4744 40.9234 13.325 40.4541 13.0264 40.0914C12.749 39.7288 12.3224 39.4088 11.7464 39.1314C11.1917 38.8541 10.3277 38.4914 9.15435 38.0434C7.78902 37.5314 6.62635 37.0088 5.66635 36.4754C4.72769 35.9421 3.94902 35.2594 3.33035 34.4274C2.73302 33.5741 2.43435 32.5394 2.43435 31.3234C2.43435 29.2968 3.17035 27.7501 4.64235 26.6834C6.11435 25.5954 8.05569 25.0514 10.4664 25.0514C13.645 25.0514 16.077 25.6488 17.7624 26.8434C18.0824 27.0994 18.2424 27.3128 18.2424 27.4834C18.2424 27.6114 18.189 27.7608 18.0824 27.9314L16.7704 30.0114C16.6424 30.2248 16.5037 30.3314 16.3544 30.3314C16.2264 30.3314 16.0664 30.2674 15.8744 30.1394C14.573 29.2861 12.9944 28.8594 11.1384 28.8594C8.83435 28.8594 7.68235 29.6914 7.68235 31.3554C7.68235 31.9101 7.81035 32.3688 8.06635 32.7314C8.34369 33.0728 8.71702 33.3714 9.18635 33.6274C9.65569 33.8621 10.3917 34.1714 11.3944 34.5554L12.2904 34.9074C13.8477 35.5261 15.0744 36.1128 15.9704 36.6674C16.8664 37.2008 17.549 37.8621 18.0184 38.6514C18.509 39.4408 18.7544 40.4541 18.7544 41.6914C18.7544 43.5474 18.0504 45.0301 16.6424 46.1394C15.2557 47.2274 13.2397 47.7714 10.5944 47.7714Z" fill="white"/>
<path d="M21.2723 40.3033C21.0163 40.3033 20.8297 40.25 20.7123 40.1433C20.6057 40.026 20.5523 39.85 20.5523 39.6153V30.1273C20.5523 29.8926 20.6057 29.7166 20.7123 29.5993C20.8297 29.482 21.0163 29.4233 21.2723 29.4233H25.2723C28.0137 29.4233 29.3843 30.65 29.3843 33.1033C29.3843 35.546 28.0137 36.7673 25.2723 36.7673H23.1923V39.6153C23.1923 39.85 23.139 40.026 23.0323 40.1433C22.9257 40.25 22.739 40.3033 22.4723 40.3033H21.2723ZM25.0963 34.8313C26.2057 34.8313 26.7603 34.2553 26.7603 33.1033C26.7603 31.9513 26.2057 31.3753 25.0963 31.3753H23.2083V34.8313H25.0963ZM28.7707 40.3033C28.5787 40.3033 28.4827 40.2126 28.4827 40.0313C28.4827 39.9566 28.4987 39.8713 28.5307 39.7753L32.6747 29.9033C32.7494 29.7219 32.8294 29.5993 32.9147 29.5353C33.0107 29.4606 33.144 29.4233 33.3147 29.4233H34.4827C34.6534 29.4233 34.7814 29.4606 34.8667 29.5353C34.952 29.5993 35.032 29.7219 35.1067 29.9033L39.2507 39.7753C39.2827 39.8713 39.2987 39.9566 39.2987 40.0313C39.2987 40.2126 39.2027 40.3033 39.0107 40.3033H37.0747C36.9254 40.3033 36.8134 40.282 36.7387 40.2393C36.6747 40.186 36.616 40.0953 36.5627 39.9673L35.8267 38.0793H31.9387L31.2187 39.9673C31.1654 40.0953 31.1014 40.186 31.0267 40.2393C30.9627 40.282 30.856 40.3033 30.7067 40.3033H28.7707ZM35.2187 36.2393L33.8907 32.7833L32.5467 36.2393H35.2187ZM45.2755 40.5433C43.4195 40.5433 41.9795 40.058 40.9555 39.0873C39.9421 38.106 39.4355 36.698 39.4355 34.8633C39.4355 33.018 39.9315 31.61 40.9235 30.6393C41.9261 29.6686 43.3555 29.1833 45.2115 29.1833C45.9901 29.1833 46.6941 29.2633 47.3235 29.4233C47.9635 29.5726 48.5021 29.7913 48.9395 30.0793C49.0461 30.1539 49.0995 30.2393 49.0995 30.3353C49.0995 30.4206 49.0675 30.5113 49.0035 30.6073L48.4435 31.5833C48.3688 31.7006 48.2941 31.7593 48.2195 31.7593C48.1555 31.7593 48.0648 31.7273 47.9475 31.6633C47.2648 31.2793 46.4595 31.0873 45.5315 31.0873C44.4328 31.0873 43.5795 31.4073 42.9715 32.0473C42.3635 32.6766 42.0595 33.6153 42.0595 34.8633C42.0595 36.122 42.3741 37.066 43.0035 37.6953C43.6435 38.3246 44.5128 38.6393 45.6115 38.6393C46.6141 38.6393 47.4568 38.4473 48.1395 38.0633C48.2568 37.9993 48.3475 37.9673 48.4115 37.9673C48.4861 37.9673 48.5608 38.026 48.6355 38.1433L49.2595 39.2153C49.3021 39.29 49.3235 39.354 49.3235 39.4073C49.3235 39.4713 49.2595 39.5513 49.1315 39.6473C48.2995 40.2446 47.0141 40.5433 45.2755 40.5433ZM51.3192 40.3033C51.0632 40.3033 50.8765 40.25 50.7592 40.1433C50.6525 40.026 50.5992 39.85 50.5992 39.6153V30.1273C50.5992 29.8926 50.6525 29.7166 50.7592 29.5993C50.8765 29.482 51.0632 29.4233 51.3192 29.4233H57.9592C58.2152 29.4233 58.3912 29.4766 58.4872 29.5833C58.5832 29.6793 58.6312 29.85 58.6312 30.0953V30.6873C58.6312 30.9326 58.5832 31.1086 58.4872 31.2153C58.3912 31.3219 58.2152 31.3753 57.9592 31.3753H53.2392V33.9033H56.5352C56.7912 33.9033 56.9672 33.9566 57.0632 34.0633C57.1592 34.1593 57.2072 34.33 57.2072 34.5753V35.1353C57.2072 35.3806 57.1592 35.5566 57.0632 35.6633C56.9672 35.77 56.7912 35.8233 56.5352 35.8233H53.2392V38.3673H57.9432C58.1992 38.3673 58.3752 38.4206 58.4712 38.5273C58.5672 38.634 58.6152 38.81 58.6152 39.0553V39.6313C58.6152 39.8766 58.5672 40.0526 58.4712 40.1593C58.3752 40.2553 58.1992 40.3033 57.9432 40.3033H51.3192Z" fill="white"/>
</svg>
