<?xml version="1.0" encoding="UTF-8"?>
<svg version="1.1" viewBox="0 0 2048 771" width="300" height="113" xmlns="http://www.w3.org/2000/svg">
<path transform="translate(78)" d="m0 0h5l1 2v122l-1 6 6-3 12-10 21-14 15-8 17-6 13-3 11-1h17l21 2 26 6 21 8 19 10 12 8 13 10 15 14 9 10 12 17 9 16 8 19 7 24v4h2v-7l4-20 9-27 8-16 10-16 11-13 4-5 8-7 12-9 15-9 17-8 15-5 22-5 27-3 28-1 1 1 1 65 20-20 17-13 14-9 15-8 21-8 21-5 17-2h34l23 3 24 7 18 8 18 10 14 10 10 9 8 7 13 14 12 17 10 18 10 25 7 25v-232l1-1 90-1 1 26-1 62h137l1 1v77l-1 1-136 1v127l2 16 4 13 9 16 8 10 8 7 14 8 13 5 19 3 17-2 14-4 17-9 13-11 9-12 7-14 4-17 1-10v-279l1-10 1-1h87v112l11-7 10-8 20-12 16-6 13-2h19l17 2 15 4 17 7 14 8 16 12 10 9 7 8 13 17 8 14 8 19 5 16 4 24 1 13 1 3 9-33 8-19 10-18 12-17 9-10 8-9 8-7 14-11 18-11 21-10 23-7 16-3 10-1h35l22 3 19 5 15 6 16 8 12 7 14 10 10 9 8 7 10 11 13 18 10 17 7 17 6 18 5 16 3-20 4-17 7-19 8-16 7-12 10-13 9-10 8-7 12-9 19-11 23-9 21-5 21-3 11-1h28l1 7-1 73-26 2-17 4-12 5-11 6-10 8-7 7-9 13-8 17-5 18-2 14-1 41v150l-22 1h-62l-1-1-1-147-286-1 7 20 8 16 10 14 13 13 15 10 15 7 13 4 13 2h20l16-3 17-6 14-8 12-9 11-11 10-14 6-12 1-1h80l-1 7-5 14-10 20-11 17-8 10-9 10-13 13-13 10-18 11-19 9-21 7-17 4-16 2h-33l-21-3-24-7-20-9-16-9-11-8-13-11-17-17-10-13-11-17-11-23-6-18-7-24 1 151-1 1-79 1-2-3v-146l-1-70-3-14-5-12-8-13-9-10-13-9-12-5-16-3h-10l-15 3-14 7-10 8-7 7-9 14-5 12-4 16-1 17v199l-1 1-70 1h-17l-1-1v-25l-20 13-15 7-15 5-20 4-9 1h-24l-20-3-19-5-21-9-11-6-14-10-10-9-8-7-12-14-11-17-8-16-7-18-6-25-2-15h-1l-5 21-6 18-10 21-11 17-11 14-11 12-11 9-13 10-15 9-21 10-22 7-20 4-16 2h-24l-22-3-20-5-21-8-21-11-17-12-11-10-8-7-7-8-12-15-8-13-10-19-8-22-5-22-2-14v-33l4-25 6-21 8-18 13-25-24 4-17 5-16 9-11 9-7 8-7 11-8 16-4 15-2 15-1 18v174l-1 1-14 1h-70l-1-1v-133l1-3h-2l-1 8-6 16-6 15-11 19-14 19-12 13-11 10-18 13-16 9-18 8-19 6-26 5-8 1h-31l-15-2-25-6-22-9-19-10-14-10-13-11-16-16-10-13-9-14-10-19-7-19-5-19-3-14v-290l77-1zm1550 156-19 3-15 5-16 9-13 10-10 10-9 13-10 19v3h198l-3-9-9-16-10-13-9-9-13-9-17-9-13-4-19-3zm-1446 7-18 2-17 5-19 10-10 8-10 9-10 13-7 12-7 19-3 14-1 8v12l3 17 6 18 8 15 9 12 12 12 15 10 14 7 16 5 13 2h19l16-3 16-6 12-6 14-10 14-14 7-10 8-16 5-15 2-10 1-18-2-17-4-14-7-16-9-14-11-12-9-8-13-8-15-7-15-4-18-2zm518 0-18 2-17 5-19 10-11 9-6 5-9 11-9 14-7 16-4 14-2 18 1 15 4 17 6 15 8 14 9 11 10 10 15 10 17 8 13 4 14 2h18l17-3 20-8 15-9 15-13 11-14 9-17 6-20 2-13v-15l-3-18-5-15-7-14-10-14-13-13-10-7-12-7-13-5-18-4zm188 76 1 2z" fill="#074E91"/>
<path transform="translate(1476,506)" d="m0 0h24l1 195h-17l-4-1v-20l-8 6-8 8-12 6-8 2-17 1-16-3-11-6-11-11-8-14-5-13-2-12v-17l3-16 7-16 9-12 9-8 11-6 12-3h20l11 3 11 7 8 7zm-45 79-9 4-8 6-6 7-6 13-3 15v14l4 16 7 11 8 7 8 4 8 2h8l13-4 9-7 7-8 4-10 1-6v-31l-2-9-6-10-8-8-10-5-3-1z" fill="#074E91"/>
<path transform="translate(812,566)" d="m0 0h19l15 3 10 4 13 10 9 12 5 11 3 11 1 7v20l-3 16-8 16-11 12-10 7-12 5-9 2-10 1h-9l-14-2-13-5-9-6-7-7-8-12-6-16-2-9v-22l4-16 7-14 7-9 9-8 12-7zm5 18-9 2-10 6-7 7-8 16-2 9v24l4 12 6 9 9 9 10 5 10 2 10-1 10-4 9-7 7-10 4-11 2-14v-10l-3-16-7-13-6-7-8-5-12-3z" fill="#074E91"/>
<path transform="translate(622,568)" d="m0 0h26l3 3 15 41 10 27 6 19 4 12v2h2l3-12 18-55 12-35 2-2h26l-3 9-19 50-19 49-10 24-8 17-10 16-11 12-9 8-14 8-4 2h-5l-6-13-2-6 4-3 12-6 11-9 7-8 8-14 2-6-7-20-15-37-15-38-11-27z" fill="#074E91"/>
<path transform="translate(1580,566)" d="m0 0h22l12 3 10 6 9 9 7 12 4 12 2 12v16l-5 2h-90l4 17 5 10 8 9 9 6 10 3h25l15-4 8-1 2 5 1 9-5 5-14 4-17 2h-17l-16-3-14-7-10-9-7-10-6-14-3-18v-16l3-16 6-14 9-12 10-9 14-7zm6 17-9 2-10 6-7 8-7 14-1 7 8 1 64-1-2-10-5-12-9-10-9-4-5-1z" fill="#074E91"/>
<path transform="translate(392,566)" d="m0 0h24l13 3 10 6 8 9 6 14 2 10 1 72 1 20-1 1h-18l-2-2-1-11-1-3-16 12-10 4-18 2-15-2-8-4-8-7-6-10-2-6-1-13 3-12 5-9 7-8 14-8 17-5 23-3 12-1-1-9-4-11-9-8-8-2h-15l-16 3-11 4-4-2-2-6v-6l6-5 15-5zm27 67-19 3-13 5-7 6-5 10v10l3 8 4 5 10 5h13l12-5 8-7 5-7 3-15-1-15-3-3z" fill="#074E91"/>
<path transform="translate(917,568)" d="m0 0h22l2 1 1 83 3 13 6 10 7 5 6 2h11l11-4 8-6h2l2-4 4-5 2-8 1-87 24 1 1 2v129l-1 1h-12l-7-1-1-2-1-16-9 7-8 7-12 5-13 2-15-1-10-3-8-6-7-8-6-12-3-11-1-8v-82z" fill="#074E91"/>
<path transform="translate(518,529)" d="m0 0 3 1v38h35v17l-1 1-33 1v79l2 9 3 5 7 2h18l2 1v15l-2 3-3 1h-28l-10-4-8-9-4-9-2-10v-84l-8 1h-10l-3-3-1-12 2-4h20v-32z" fill="#074E91"/>
<path transform="translate(1241,566)" d="m0 0h20l16 3 7 3 1 4-5 16-15-6-4-1h-15l-8 3-7 8-1 9 5 8 8 5 21 9 12 7 7 7 6 12 1 4v14l-3 9-6 8-5 5-8 5-13 4-8 1h-12l-21-3-9-3-2-2 1-9 3-10 6 1 11 5 11 2h14l9-4 5-5 3-6v-7l-4-8-7-6-26-11-11-7-7-8-4-8-1-4v-11l3-10 6-9 9-8 12-5z" fill="#074E91"/>
<path transform="translate(1118,566)" d="m0 0h14l1 19-1 3-2 1-14 1-10 4-7 8-7 14-1 6-1 77-1 1h-22l-1-1-1-130 1-1h18l2 1v22l5-5 11-12 9-6z" fill="#074E91"/>
<path transform="translate(1321,568)" d="m0 0h23l2 1v130l-1 1h-23l-1-1z" fill="#074E91"/>
<path transform="translate(2e3 363)" d="m0 0h14l10 3 11 8 8 10 4 6v26l-8 12-7 7-10 6-14 3h-9l-10-3-9-7-8-9-5-12-1-5v-9l4-13 6-9 7-7 12-6zm3 7-10 3-9 6-6 9-2 7v18l5 10 9 8 8 4 3 1h11l10-4 6-4 9-12 2-5v-15l-4-9-6-8-8-6-5-2z" fill="#074E91"/>
<path transform="translate(2e3 378)" d="m0 0h14l9 4 3 4 1 4-1 33-5 4-4-4-3-13-5-2-7 1-2 13-2 4-5-1-3-4-1-6v-24l3-9 4-3zm3 8-3 4 1 10h9l7-3v-7l-3-3-3-1z" fill="#074E91"/>
<path transform="translate(1332,514)" d="m0 0 9 2 5 4 3 7-2 10-4 5-5 2h-11l-5-3-4-6-1-7 3-8 5-4z" fill="#074E91"/>
</svg>
