<?xml version="1.0" encoding="UTF-8"?>
<svg version="1.1" viewBox="0 0 2048 805" width="796" height="313" xmlns="http://www.w3.org/2000/svg">
<path transform="translate(1544,94)" d="m0 0h89l17 28 19 32 15 25 16 27 17 28 16 27 13 22 13 24 8 15 9 19 19 38 2 1-1-4-2-51v-231h84v413h-89l-19-32-17-28-19-32-12-20-19-32-17-28-14-24-17-33-26-52-2-5-2-1 1 3 2 61v223h-84z" fill="#0162A4"/>
<path transform="translate(1305,81)" d="m0 0h23l22 2 27 6 22 8 21 11 14 10 13 11 12 12 13 17 12 20 9 19 9 27 6 29 3 28 1 13v12l-3 35-5 28-8 27-10 23-10 18-14 19-14 15-14 12-15 10-14 8-23 9-18 5-17 3-25 2h-12l-26-2-24-5-21-7-21-10-18-12-11-9-18-18-12-16-9-15-11-23-8-24-6-25-3-22-1-18v-28l2-25 3-18 6-25 7-20 8-18 10-17 10-14 9-10 7-8 11-10 17-12 16-9 19-8 21-6 15-3zm8 73-18 2-15 4-12 5-12 8-12 11-7 8-9 14-9 19-6 20-4 20-2 19v33l3 25 6 25 6 16 10 19 11 14 7 7 12 9 16 8 13 4 13 2h24l17-3 16-6 12-7 11-9 8-8 10-14 8-15 6-16 6-25 3-23v-39l-3-24-5-21-8-21-10-18-12-15h-2v-2l-13-10-12-7-18-6-12-2z" fill="#0162A4"/>
<path transform="translate(913,81)" d="m0 0h22l31 3 24 5 18 6 21 10 15 10 15 13 11 14 8 14 6 14 5 20 1 8v17l-1 1h-84l-5-22-7-14-7-8-10-7-10-5-19-5-25-2-19 1-17 4-14 7-9 7-7 11-2 6-1 7v9l3 12 6 8 11 7 11 5 27 9 49 13 43 11 21 7 20 9 16 10 11 9 10 10 8 11 8 16 5 15 2 10 1 11v14l-2 18-4 15-6 15-7 13-10 13-9 10-17 13-16 9-18 8-24 7-23 4-8 1-24 1h-15l-22-1-23-4-16-4-18-6-18-8-19-12-14-12-9-9-11-15-9-17-7-21-3-16-1-10v-13h86l3 20 5 14 7 11 11 11 11 7 16 7 22 5 12 1h17l20-2 16-4 13-5 11-7 6-5 6-9 3-9 1-14-2-10-4-8-6-8-13-9-17-8-27-9-67-17-26-8-24-10-17-9-14-10-16-16-8-13-6-14-3-11-2-11v-26l4-20 6-16 8-15 13-16 7-7 16-12 16-9 16-7 20-6 19-4z" fill="#0162A4"/>
<path transform="translate(53,94)" d="m0 0h308l1 1v71l-223 1-1 92h208l1 1v70h-209l1 103 223 1v73h-309l-1-1v-411z" fill="#0162A4"/>
<path transform="translate(400,94)" d="m0 0h188l24 3 26 6 19 7 16 8 14 9 11 9 12 12 11 15 8 16 5 13 5 22 1 10v29l-3 20-6 20-8 17-9 13-9 11-8 8-15 11-14 8-15 7-21 7-25 5-15 2-17 1h-90v124h-85zm106 72-21 1v142l1 1h82l27-3 17-5 13-7 9-7 8-8 6-10 4-11 2-11v-20l-4-16-7-14-10-11-14-9-12-5-16-4-15-2-42-1z" fill="#0162A4"/>
<path transform="translate(1785,594)" d="m0 0h22l13 21 15 24 16 26 7 10 1-81h19v113l-1 1h-20l-11-17-26-42-14-22v-2h-2v82l-1 1h-17l-1-1z" fill="#000001"/>
<path transform="translate(1151,594)" d="m0 0h65l9 2 8 5 7 8 3 9v13l-4 11-6 7-4 2h-3l2 3 5 3 6 7 2 6 1 18 3 14 1 6h-20l-2-4-3-30-4-8-8-4-4-1-35-1v47l-1 1h-18zm20 16v35h39l7-3 4-5 2-6v-9l-4-8-8-4z" fill="#000102"/>
<path transform="translate(624,594)" d="m0 0h57l12 3 11 7 8 9 6 12 4 20v11l-3 16-5 13-7 9-8 7-13 5-11 2h-51zm19 15v83h26l11-2 8-4 6-5 6-12 2-13-1-19-3-10-6-9-10-6-14-3z" fill="#000001"/>
<path transform="translate(936,591)" d="m0 0h20l13 4 10 6 10 10 5 8 5 14 2 14-1 17-4 13-5 10-8 10-10 7-9 4-15 3-13-1-11-3-10-5-11-10-8-14-4-12-1-8v-15l3-15 8-16 9-10 11-7zm8 15-10 2-9 5-7 8-5 10-3 15v9l3 15 5 10 8 9 8 4 4 1h16l10-4 7-6 6-10 3-10 1-7v-13l-3-14-5-10-5-6-8-5-12-3z" fill="#000102"/>
<path transform="translate(1694,591)" d="m0 0h20l13 4 11 7 9 9 8 15 3 12 1 7v11l-3 16-8 16-9 10-10 7-11 4-12 2-12-1-11-3-10-5-10-9-7-11-5-12-2-9v-21l4-15 7-13 9-10 11-7zm8 15-10 2-8 4-7 7-5 9-3 11-1 13 2 14 5 13 9 10 11 5h17l10-4 7-6 6-10 4-16v-15l-3-13-5-10-8-8-8-4z" fill="#000102"/>
<path transform="translate(52,594)" d="m0 0h82l1 1v15l-1 1h-61v30h57v15l-1 1h-56v33l63 1v16l-1 1h-82l-1-3z" fill="#000407"/>
<path transform="translate(1518,591)" d="m0 0h20l13 4 10 6 7 9 4 12-1 5h-19l-4-11-7-6-12-3-10 1-7 3-3 1-3 9 3 9 5 4 16 5 25 7 8 4 7 7 5 12v12l-4 11-8 9-11 6-13 3-13 1-17-3-12-6-6-5-6-9-3-10v-8h19l3 11 7 8 11 4h18l10-5 3-4 1-4v-8l-3-6-9-4-36-10-9-5-5-4-5-9-1-4v-12l4-10 8-9 12-6z" fill="#000103"/>
<path transform="translate(509,594)" d="m0 0h83v16l-1 1h-62v30h58v16h-58v34h63l1 6v10l-1 1h-82l-1-1z" fill="#000306"/>
<path transform="translate(395,594)" d="m0 0h82l1 5v7l-2 5h-61v30h58v15l-1 1h-57v34h63v16l-1 1h-81l-1-1z" fill="#000305"/>
<path transform="translate(1025,594)" d="m0 0h20l1 78 3 10 5 6 9 4 13 1 11-3 6-4 4-8 1-4 1-80h20v82l-4 13-7 9-7 6-13 5-13 2-13-1-12-3-8-4-8-7-6-10-2-7z" fill="#000001"/>
<path transform="translate(153,593)" d="m0 0 23 1 8 11 12 19 5 8h2l20-30 6-8h22l-7 11-11 16-16 23-2 3 1 4 30 44 7 10v3h-23l-28-42h-2l-10 16-15 22-3 4h-22l2-5 12-17 15-22 10-14-2-5-30-44-4-5z" fill="#000102"/>
<path transform="translate(307,591)" d="m0 0h20l11 3 10 5 10 9 6 11 2 10h-20l-6-11-5-5-4-3-7-2h-15l-10 4-6 5-6 10-4 16v14l3 14 5 10 3 3v2l12 6 3 1h16l10-5 6-7 4-10 2-7h19l-2 13-4 10-7 9-8 7-11 5-14 3-12-1-12-3-11-6-8-7-9-14-4-11-2-12v-12l3-16 5-12 9-12 11-8 12-5z" fill="#000203"/>
<path transform="translate(1316,594)" d="m0 0h21l13 40 15 48 2-3 16-49 12-36h20l-3 11-15 44-15 43-6 16h-21l-3-5-36-108z" fill="#000102"/>
<path transform="translate(781,594)" d="m0 0h23l6 9 17 29 6 10v2l3-3 15-26 10-17 2-4h23l-8 14-16 26-15 24-2 3-1 46-1 1h-19l-1-45-12-20-15-24-14-23z" fill="#000102"/>
<path transform="translate(1603,594)" d="m0 0h20v113l-1 1h-19z"/>
<path transform="translate(1437,594)" d="m0 0h19v113l-1 1h-18z"/>
<path transform="translate(1958,107)" d="m0 0 13 1 8 4 4 6 1 3v7l-3 6-6 5-2 1 10 15 3 4v2h-11l-8-11-10-16v-1l12-1 4-4v-7l-4-4-17-1v45h-10v-53z" fill="#0162A4"/>
<path transform="translate(1956,89)" d="m0 0h11l13 4 10 6 8 8 7 14 2 16-2 11-7 14-10 10-12 6-9 2h-13l-13-4-11-7-7-8-6-13-1-4v-19l4-11 8-11 10-8 12-5zm-4 5-11 4-9 7-6 7-5 11-1 5v14l4 12 8 11 9 6 10 4 5 1h11l10-3 9-5 6-5 6-9 4-11v-16l-4-11-6-9-8-7-11-5-4-1z" fill="#0162A4"/>
</svg>
