<svg width="257" height="56" viewBox="0 0 257 56" fill="none" xmlns="http://www.w3.org/2000/svg">
<g filter="url(#filter0_d_162_13)">
<path d="M70.4141 22.5508C70.3047 23.6445 69.7031 24.237 68.6094 24.3281C68.099 24.3281 67.6523 24.1641 67.2695 23.8359C66.9049 23.4896 66.7227 23.0612 66.7227 22.5508V9.58984C66.7409 9.07943 66.9323 8.66016 67.2969 8.33203C67.6615 7.98568 68.099 7.8125 68.6094 7.8125H69.9492H73.3125H80.0664C80.1758 7.8125 80.2852 7.82161 80.3945 7.83984H80.5586C81.8346 7.8763 82.8828 8.16797 83.7031 8.71484C84.5234 9.26172 85.1159 9.89062 85.4805 10.6016C85.8451 11.2943 86.0273 11.9961 86.0273 12.707C86.0273 13.4362 85.8451 14.1562 85.4805 14.8672C85.1341 15.5599 84.5417 16.1797 83.7031 16.7266C82.8828 17.2734 81.8346 17.5651 80.5586 17.6016H75.7461C75.8919 18.513 76.1927 19.1875 76.6484 19.625C77.0859 20.0625 77.6419 20.2812 78.3164 20.2812H84.2227C84.7331 20.2995 85.1523 20.4909 85.4805 20.8555C85.8268 21.2201 86 21.6576 86 22.168C85.9818 22.6602 85.7995 23.0794 85.4531 23.4258C85.125 23.7539 84.7148 23.9271 84.2227 23.9453H77.8242C76.4753 23.9635 75.2539 23.4349 74.1602 22.3594C73.0664 21.2839 72.401 20.0078 72.1641 18.5312C71.8359 16.8906 71.6719 15.9701 71.6719 15.7695C71.6719 15.2591 71.8451 14.8307 72.1914 14.4844C72.556 14.1198 72.9935 13.9375 73.5039 13.9375H80.7227C81.069 13.9193 81.3516 13.8464 81.5703 13.7188C81.8073 13.5729 81.9805 13.418 82.0898 13.2539C82.1992 13.0716 82.2539 12.8893 82.2539 12.707C82.2539 12.5247 82.1992 12.3516 82.0898 12.1875C81.9805 12.0052 81.8073 11.8503 81.5703 11.7227C81.3516 11.5768 81.069 11.4948 80.7227 11.4766H73.3125H71.125C70.651 11.4948 70.4141 11.7318 70.4141 12.1875V22.5508ZM95.1328 19.707C95.1328 19.1966 95.306 18.7682 95.6523 18.4219C96.0169 18.0573 96.4544 17.875 96.9648 17.875H101.148L100.438 15.8516C100.146 15.1042 99.8542 14.4023 99.5625 13.7461C99.2891 13.0716 98.9701 12.4609 98.6055 11.9141C98.2773 11.3672 97.9036 11.0755 97.4844 11.0391C97.0469 11.0755 96.6549 11.3672 96.3086 11.9141C95.9622 12.4609 95.6432 13.0716 95.3516 13.7461C95.0781 14.4023 94.7956 15.1042 94.5039 15.8516L91.9062 22.9609C91.724 23.3438 91.487 23.6628 91.1953 23.918C90.9219 24.1549 90.5026 24.2734 89.9375 24.2734C89.4089 24.2734 88.9714 24.0911 88.625 23.7266C88.2969 23.362 88.151 22.9245 88.1875 22.4141C88.2057 22.1771 88.2604 21.9583 88.3516 21.7578L91.3594 13.9922C92.1979 11.9505 93.0365 10.3008 93.875 9.04297C94.6953 7.80339 95.8984 7.17448 97.4844 7.15625C99.0521 7.17448 100.246 7.80339 101.066 9.04297C101.905 10.2643 102.743 11.9141 103.582 13.9922L106.59 21.7578C106.681 21.9583 106.736 22.1771 106.754 22.4141C106.79 22.9245 106.635 23.362 106.289 23.7266C105.961 24.0911 105.533 24.2734 105.004 24.2734C104.402 24.2734 103.956 24.1549 103.664 23.918C103.391 23.6628 103.163 23.3438 102.98 22.9609L102.461 21.5391H96.9648C96.4544 21.5391 96.026 21.3568 95.6797 20.9922C95.3151 20.6458 95.1328 20.2174 95.1328 19.707ZM111.32 7.375C111.831 7.375 112.268 7.54818 112.633 7.89453C112.997 8.22266 113.189 8.64193 113.207 9.15234V9.67188C113.189 10.4193 113.234 11.112 113.344 11.75C113.471 12.3698 113.763 12.9258 114.219 13.418C114.674 13.9102 115.249 14.1745 115.941 14.2109H123.625V9.20703C123.625 8.69661 123.807 8.27734 124.172 7.94922C124.555 7.60286 125.001 7.42969 125.512 7.42969C126.605 7.52083 127.207 8.11328 127.316 9.20703V15.5508C127.316 17.0091 127.116 18.3854 126.715 19.6797C126.35 20.8281 125.749 21.8034 124.91 22.6055C124.09 23.3893 123.042 23.8177 121.766 23.8906H111.922C111.43 23.8724 111.01 23.6992 110.664 23.3711C110.336 23.0247 110.163 22.6055 110.145 22.1133C110.145 21.6029 110.309 21.1654 110.637 20.8008C110.983 20.4362 111.411 20.2448 111.922 20.2266H120.836C121.529 20.1901 122.103 19.9258 122.559 19.4336C122.978 18.9779 123.26 18.4583 123.406 17.875H115.012C113.736 17.8021 112.678 17.3737 111.84 16.5898C111.02 15.7878 110.427 14.8125 110.062 13.6641C109.716 12.5156 109.534 11.2943 109.516 10V9.15234C109.534 8.66016 109.716 8.25 110.062 7.92188C110.409 7.57552 110.828 7.39323 111.32 7.375ZM145.582 7.8125C146.512 7.83073 147.341 8.1224 148.07 8.6875C148.799 9.2526 149.383 9.92708 149.82 10.7109C150.276 11.4948 150.613 12.3242 150.832 13.1992C151.051 14.0742 151.16 14.9674 151.16 15.8789C151.16 17.082 150.969 18.2669 150.586 19.4336C150.221 20.582 149.611 21.6029 148.754 22.4961C147.915 23.3893 146.858 23.8724 145.582 23.9453H136.039C134.763 23.8906 133.697 23.4167 132.84 22.5234C131.983 21.6302 131.372 20.6003 131.008 19.4336C130.661 18.2669 130.488 17.082 130.488 15.8789C130.488 14.6758 130.671 13.5 131.035 12.3516C131.4 11.1849 132.001 10.1549 132.84 9.26172C133.697 8.35026 134.763 7.86719 136.039 7.8125H136.559H145.062H145.582ZM144.652 20.2812C145.345 20.2448 145.919 19.9896 146.375 19.5156C146.849 19.0234 147.186 18.4583 147.387 17.8203C147.587 17.1823 147.688 16.5352 147.688 15.8789C147.688 15.2227 147.578 14.5846 147.359 13.9648C147.159 13.3268 146.831 12.7617 146.375 12.2695C145.919 11.7773 145.345 11.513 144.652 11.4766H136.887C136.194 11.513 135.62 11.7773 135.164 12.2695C134.708 12.7617 134.371 13.3268 134.152 13.9648C133.952 14.5846 133.852 15.2227 133.852 15.8789C133.852 16.5352 133.952 17.1823 134.152 17.8203C134.353 18.4583 134.681 19.0234 135.137 19.5156C135.611 19.9896 136.194 20.2448 136.887 20.2812H144.652ZM162.863 7.07422C163.811 7.07422 164.741 7.18359 165.652 7.40234C166.582 7.62109 167.466 7.94922 168.305 8.38672C169.143 8.80599 169.882 9.37109 170.52 10.082C171.176 10.793 171.531 11.6406 171.586 12.625V13.7734V22.4961C171.477 23.5898 170.875 24.1823 169.781 24.2734C169.271 24.2734 168.824 24.1094 168.441 23.7812C168.077 23.4349 167.895 23.0065 167.895 22.4961V13.4727C167.858 12.9076 167.639 12.4427 167.238 12.0781C166.855 11.6953 166.418 11.3945 165.926 11.1758C165.452 10.957 164.951 10.793 164.422 10.6836C163.911 10.5742 163.392 10.5195 162.863 10.5195C162.335 10.5195 161.806 10.5742 161.277 10.6836C160.767 10.793 160.266 10.957 159.773 11.1758C159.299 11.3945 158.862 11.6953 158.461 12.0781C158.078 12.4427 157.868 12.9076 157.832 13.4727V22.4961C157.741 23.5898 157.148 24.1823 156.055 24.2734C155.544 24.2734 155.098 24.1094 154.715 23.7812C154.35 23.4349 154.168 23.0065 154.168 22.4961V13.7734V12.625C154.223 11.6406 154.569 10.793 155.207 10.082C155.845 9.37109 156.583 8.80599 157.422 8.38672C158.26 7.94922 159.135 7.62109 160.047 7.40234C160.977 7.18359 161.915 7.07422 162.863 7.07422ZM180.227 7.8125H191.766C192.276 7.83073 192.695 8.02214 193.023 8.38672C193.37 8.7513 193.543 9.1888 193.543 9.69922C193.452 10.793 192.859 11.3854 191.766 11.4766H181.156C180.464 11.513 179.889 11.7773 179.434 12.2695C178.978 12.7617 178.641 13.3268 178.422 13.9648C178.221 14.5846 178.121 15.2227 178.121 15.8789C178.121 16.5352 178.221 17.1823 178.422 17.8203C178.641 18.4401 178.978 18.9961 179.434 19.4883C179.889 19.9805 180.464 20.2448 181.156 20.2812H189.469C189.797 20.263 189.97 20.0807 189.988 19.7344V18.1484C189.97 17.7839 189.797 17.6016 189.469 17.6016H182.469C181.958 17.6016 181.521 17.4284 181.156 17.082C180.81 16.7174 180.637 16.2799 180.637 15.7695C180.637 15.2591 180.81 14.8216 181.156 14.457C181.521 14.1107 181.958 13.9375 182.469 13.9375H191.82C192.331 13.9375 192.768 14.1107 193.133 14.457C193.461 14.8034 193.634 15.2227 193.652 15.7148V15.7695V22.168C193.634 22.6602 193.461 23.0703 193.133 23.3984C192.786 23.7448 192.367 23.9271 191.875 23.9453H180.227C178.951 23.8724 177.893 23.3893 177.055 22.4961C176.234 21.5846 175.642 20.5547 175.277 19.4062C174.931 18.2578 174.758 17.082 174.758 15.8789C174.758 14.6758 174.94 13.5 175.305 12.3516C175.669 11.2031 176.262 10.1823 177.082 9.28906C177.902 8.3776 178.951 7.88542 180.227 7.8125Z" fill="url(#paint0_linear_162_13)"/>
<path d="M225.727 7.8125C226.656 7.83073 227.486 8.1224 228.215 8.6875C228.944 9.2526 229.527 9.92708 229.965 10.7109C230.421 11.4948 230.758 12.3242 230.977 13.1992C231.195 14.0742 231.305 14.9674 231.305 15.8789C231.305 17.082 231.113 18.2669 230.73 19.4336C230.366 20.582 229.755 21.6029 228.898 22.4961C228.06 23.3893 227.003 23.8724 225.727 23.9453H216.184C214.908 23.8906 213.841 23.4167 212.984 22.5234C212.128 21.6302 211.517 20.6003 211.152 19.4336C210.806 18.2669 210.633 17.082 210.633 15.8789C210.633 14.6758 210.815 13.5 211.18 12.3516C211.544 11.1849 212.146 10.1549 212.984 9.26172C213.841 8.35026 214.908 7.86719 216.184 7.8125H216.703H225.207H225.727ZM224.797 20.2812C225.49 20.2448 226.064 19.9896 226.52 19.5156C226.993 19.0234 227.331 18.4583 227.531 17.8203C227.732 17.1823 227.832 16.5352 227.832 15.8789C227.832 15.2227 227.723 14.5846 227.504 13.9648C227.303 13.3268 226.975 12.7617 226.52 12.2695C226.064 11.7773 225.49 11.513 224.797 11.4766H217.031C216.339 11.513 215.764 11.7773 215.309 12.2695C214.853 12.7617 214.516 13.3268 214.297 13.9648C214.096 14.5846 213.996 15.2227 213.996 15.8789C213.996 16.5352 214.096 17.1823 214.297 17.8203C214.497 18.4583 214.826 19.0234 215.281 19.5156C215.755 19.9896 216.339 20.2448 217.031 20.2812H224.797ZM240.438 19.707C240.438 19.1966 240.611 18.7682 240.957 18.4219C241.322 18.0573 241.759 17.875 242.27 17.875H246.453L245.742 15.8516C245.451 15.1042 245.159 14.4023 244.867 13.7461C244.594 13.0716 244.275 12.4609 243.91 11.9141C243.582 11.3672 243.208 11.0755 242.789 11.0391C242.352 11.0755 241.96 11.3672 241.613 11.9141C241.267 12.4609 240.948 13.0716 240.656 13.7461C240.383 14.4023 240.1 15.1042 239.809 15.8516L237.211 22.9609C237.029 23.3438 236.792 23.6628 236.5 23.918C236.227 24.1549 235.807 24.2734 235.242 24.2734C234.714 24.2734 234.276 24.0911 233.93 23.7266C233.602 23.362 233.456 22.9245 233.492 22.4141C233.51 22.1771 233.565 21.9583 233.656 21.7578L236.664 13.9922C237.503 11.9505 238.341 10.3008 239.18 9.04297C240 7.80339 241.203 7.17448 242.789 7.15625C244.357 7.17448 245.551 7.80339 246.371 9.04297C247.21 10.2643 248.048 11.9141 248.887 13.9922L251.895 21.7578C251.986 21.9583 252.04 22.1771 252.059 22.4141C252.095 22.9245 251.94 23.362 251.594 23.7266C251.266 24.0911 250.837 24.2734 250.309 24.2734C249.707 24.2734 249.26 24.1549 248.969 23.918C248.695 23.6628 248.467 23.3438 248.285 22.9609L247.766 21.5391H242.27C241.759 21.5391 241.331 21.3568 240.984 20.9922C240.62 20.6458 240.438 20.2174 240.438 19.707Z" fill="url(#paint1_linear_162_13)"/>
</g>
<g filter="url(#filter1_d_162_13)">
<path d="M85.2188 41.7002C85.2188 41.4268 85.3115 41.1973 85.4971 41.0117C85.6924 40.8164 85.9268 40.7188 86.2002 40.7188H88.4414L88.0605 39.6348C87.9043 39.2344 87.748 38.8584 87.5918 38.5068C87.4453 38.1455 87.2744 37.8184 87.0791 37.5254C86.9033 37.2324 86.7031 37.0762 86.4785 37.0566C86.2441 37.0762 86.0342 37.2324 85.8486 37.5254C85.6631 37.8184 85.4922 38.1455 85.3359 38.5068C85.1895 38.8584 85.0381 39.2344 84.8818 39.6348L83.4902 43.4434C83.3926 43.6484 83.2656 43.8193 83.1094 43.9561C82.9629 44.083 82.7383 44.1465 82.4355 44.1465C82.1523 44.1465 81.918 44.0488 81.7324 43.8535C81.5566 43.6582 81.4785 43.4238 81.498 43.1504C81.5078 43.0234 81.5371 42.9062 81.5859 42.7988L83.1973 38.6387C83.6465 37.5449 84.0957 36.6611 84.5449 35.9873C84.9844 35.3232 85.6289 34.9863 86.4785 34.9766C87.3184 34.9863 87.958 35.3232 88.3975 35.9873C88.8467 36.6416 89.2959 37.5254 89.7451 38.6387L91.3564 42.7988C91.4053 42.9062 91.4346 43.0234 91.4443 43.1504C91.4639 43.4238 91.3809 43.6582 91.1953 43.8535C91.0195 44.0488 90.79 44.1465 90.5068 44.1465C90.1846 44.1465 89.9453 44.083 89.7891 43.9561C89.6426 43.8193 89.5205 43.6484 89.4229 43.4434L89.1445 42.6816H86.2002C85.9268 42.6816 85.6973 42.584 85.5117 42.3887C85.3164 42.2031 85.2188 41.9736 85.2188 41.7002ZM97.582 34.9326C98.0898 34.9326 98.5879 34.9912 99.0762 35.1084C99.5742 35.2256 100.048 35.4014 100.497 35.6357C100.946 35.8604 101.342 36.1631 101.684 36.5439C102.035 36.9248 102.226 37.3789 102.255 37.9062V38.5215V43.1943C102.196 43.7803 101.874 44.0977 101.288 44.1465C101.015 44.1465 100.775 44.0586 100.57 43.8828C100.375 43.6973 100.277 43.4678 100.277 43.1943V38.3604C100.258 38.0576 100.141 37.8086 99.9258 37.6133C99.7207 37.4082 99.4863 37.2471 99.2227 37.1299C98.9688 37.0127 98.7002 36.9248 98.417 36.8662C98.1436 36.8076 97.8652 36.7783 97.582 36.7783C97.2988 36.7783 97.0156 36.8076 96.7324 36.8662C96.459 36.9248 96.1904 37.0127 95.9268 37.1299C95.6729 37.2471 95.4385 37.4082 95.2236 37.6133C95.0186 37.8086 94.9062 38.0576 94.8867 38.3604V43.1943C94.8379 43.7803 94.5205 44.0977 93.9346 44.1465C93.6611 44.1465 93.4219 44.0586 93.2168 43.8828C93.0215 43.6973 92.9238 43.4678 92.9238 43.1943V38.5215V37.9062C92.9531 37.3789 93.1387 36.9248 93.4805 36.5439C93.8223 36.1631 94.2178 35.8604 94.667 35.6357C95.1162 35.4014 95.585 35.2256 96.0732 35.1084C96.5713 34.9912 97.0742 34.9326 97.582 34.9326ZM110.458 35.3281C111.142 35.3672 111.703 35.6309 112.143 36.1191C112.582 36.5977 112.899 37.1445 113.095 37.7598C113.29 38.375 113.388 39.0049 113.388 39.6494C113.388 40.2939 113.29 40.9238 113.095 41.5391C112.909 42.1543 112.592 42.7061 112.143 43.1943C111.703 43.6729 111.142 43.9316 110.458 43.9707H105.067C104.804 43.9609 104.579 43.8682 104.394 43.6924C104.218 43.5068 104.125 43.2822 104.115 43.0186V39.3857C104.125 39.1123 104.228 38.8877 104.423 38.7119C104.618 38.5264 104.853 38.4336 105.126 38.4336C105.39 38.4434 105.614 38.541 105.8 38.7266C105.985 38.9023 106.083 39.1221 106.093 39.3857V41.6123C106.093 41.876 106.229 42.0078 106.503 42.0078H109.96C110.331 41.9883 110.639 41.8467 110.883 41.583C111.127 41.3193 111.303 41.0215 111.41 40.6895C111.527 40.3477 111.586 40.001 111.586 39.6494C111.586 39.2979 111.527 38.9561 111.41 38.624C111.303 38.2822 111.127 37.9795 110.883 37.7158C110.639 37.4521 110.331 37.3105 109.96 37.291H105.067C104.481 37.2422 104.164 36.9248 104.115 36.3389C104.115 36.0654 104.203 35.8311 104.379 35.6357C104.564 35.4404 104.794 35.3379 105.067 35.3281H110.458ZM131.962 36.3096C131.962 36.583 131.864 36.8125 131.669 36.998C131.483 37.1934 131.254 37.291 130.98 37.291H125.121C124.936 37.3008 124.779 37.3447 124.652 37.4229C124.535 37.4912 124.447 37.5742 124.389 37.6719C124.33 37.7598 124.301 37.8525 124.301 37.9502C124.301 38.0479 124.33 38.1455 124.389 38.2432C124.447 38.3311 124.535 38.4141 124.652 38.4922C124.779 38.5605 124.936 38.5996 125.121 38.6094H129.281C129.965 38.6289 130.526 38.79 130.966 39.0928C131.415 39.3857 131.732 39.7275 131.918 40.1182C132.113 40.499 132.211 40.8896 132.211 41.29C132.211 41.6807 132.113 42.0713 131.918 42.4619C131.723 42.8428 131.405 43.1846 130.966 43.4873C130.526 43.7803 129.965 43.9268 129.281 43.9268H129.193C129.135 43.9365 129.076 43.9414 129.018 43.9414H123.48C123.207 43.9414 122.973 43.8486 122.777 43.6631C122.592 43.4678 122.499 43.2334 122.499 42.96C122.499 42.6865 122.597 42.457 122.792 42.2715C122.978 42.0762 123.207 41.9785 123.48 41.9785H129.369C129.555 41.9883 129.706 41.9541 129.823 41.876C129.95 41.7979 130.043 41.71 130.102 41.6123C130.16 41.5049 130.189 41.3975 130.189 41.29C130.189 41.2217 130.16 41.1289 130.102 41.0117C130.043 40.8848 129.95 40.7822 129.823 40.7041C129.706 40.626 129.555 40.582 129.369 40.5723H125.209C124.525 40.5527 123.959 40.3965 123.51 40.1035C123.07 39.8105 122.753 39.4785 122.558 39.1074C122.372 38.7266 122.279 38.3408 122.279 37.9502C122.279 37.5693 122.377 37.1934 122.572 36.8223C122.768 36.4414 123.085 36.1045 123.524 35.8115C123.964 35.5186 124.525 35.3623 125.209 35.3428H125.297C125.355 35.333 125.414 35.3281 125.473 35.3281H130.98C131.254 35.3281 131.483 35.4258 131.669 35.6211C131.864 35.8066 131.962 36.0361 131.962 36.3096ZM136.576 35.3281H137.25H142.23C142.504 35.3379 142.729 35.4404 142.904 35.6357C143.09 35.8311 143.183 36.0654 143.183 36.3389C143.134 36.9248 142.816 37.2422 142.23 37.291H137.074C136.703 37.3105 136.396 37.4521 136.151 37.7158C135.907 37.9795 135.727 38.2822 135.609 38.624C135.502 38.9561 135.448 39.2979 135.448 39.6494C135.448 40.001 135.502 40.3477 135.609 40.6895C135.727 41.0215 135.907 41.3193 136.151 41.583C136.396 41.8467 136.703 41.9883 137.074 42.0078H142.23C142.504 42.0176 142.729 42.1201 142.904 42.3154C143.09 42.5107 143.183 42.7451 143.183 43.0186C143.173 43.2822 143.075 43.5068 142.89 43.6924C142.714 43.8682 142.494 43.9609 142.23 43.9707H136.854H136.576C135.893 43.9316 135.326 43.6729 134.877 43.1943C134.438 42.7061 134.12 42.1543 133.925 41.5391C133.739 40.9238 133.646 40.2939 133.646 39.6494C133.646 39.0049 133.744 38.375 133.939 37.7598C134.135 37.1445 134.452 36.5977 134.892 36.1191C135.331 35.6309 135.893 35.3672 136.576 35.3281ZM143.153 39.5908C143.153 39.8643 143.056 40.0938 142.86 40.2793C142.675 40.4746 142.445 40.5723 142.172 40.5723H137.748C137.475 40.5723 137.24 40.4795 137.045 40.2939C136.859 40.0986 136.767 39.8643 136.767 39.5908C136.767 39.3174 136.859 39.083 137.045 38.8877C137.24 38.7021 137.475 38.6094 137.748 38.6094H142.172C142.445 38.6094 142.675 38.707 142.86 38.9023C143.056 39.0879 143.153 39.3174 143.153 39.5908ZM146.625 43.2236C146.566 43.8096 146.244 44.127 145.658 44.1758C145.385 44.1758 145.146 44.0879 144.94 43.9121C144.745 43.7266 144.647 43.4971 144.647 43.2236V36.2803C144.657 36.0068 144.76 35.7822 144.955 35.6064C145.15 35.4209 145.385 35.3281 145.658 35.3281H146.376H148.178H151.796C151.854 35.3281 151.913 35.333 151.972 35.3428H152.06C152.743 35.3623 153.305 35.5186 153.744 35.8115C154.184 36.1045 154.501 36.4414 154.696 36.8223C154.892 37.1934 154.989 37.5693 154.989 37.9502C154.989 38.3408 154.892 38.7266 154.696 39.1074C154.511 39.4785 154.193 39.8105 153.744 40.1035C153.305 40.3965 152.743 40.5527 152.06 40.5723H149.481C149.56 41.0605 149.721 41.4219 149.965 41.6562C150.199 41.8906 150.497 42.0078 150.858 42.0078H154.022C154.296 42.0176 154.521 42.1201 154.696 42.3154C154.882 42.5107 154.975 42.7451 154.975 43.0186C154.965 43.2822 154.867 43.5068 154.682 43.6924C154.506 43.8682 154.286 43.9609 154.022 43.9707H150.595C149.872 43.9805 149.218 43.6973 148.632 43.1211C148.046 42.5449 147.689 41.8613 147.562 41.0703C147.387 40.1914 147.299 39.6982 147.299 39.5908C147.299 39.3174 147.392 39.0879 147.577 38.9023C147.772 38.707 148.007 38.6094 148.28 38.6094H152.147C152.333 38.5996 152.484 38.5605 152.602 38.4922C152.729 38.4141 152.821 38.3311 152.88 38.2432C152.938 38.1455 152.968 38.0479 152.968 37.9502C152.968 37.8525 152.938 37.7598 152.88 37.6719C152.821 37.5742 152.729 37.4912 152.602 37.4229C152.484 37.3447 152.333 37.3008 152.147 37.291H148.178H147.006C146.752 37.3008 146.625 37.4277 146.625 37.6719V43.2236ZM159.369 43.1943C158.92 42.5205 158.471 41.6367 158.021 40.543L156.41 36.3828C156.361 36.2754 156.332 36.1582 156.322 36.0312C156.303 35.7578 156.381 35.5234 156.557 35.3281C156.742 35.1328 156.977 35.0352 157.26 35.0352C157.562 35.0352 157.787 35.1035 157.934 35.2402C158.09 35.3672 158.217 35.5332 158.314 35.7383L159.706 39.5469C159.862 39.9473 160.014 40.3281 160.16 40.6895C160.316 41.041 160.487 41.3633 160.673 41.6562C160.858 41.9492 161.068 42.1055 161.303 42.125C161.527 42.1055 161.728 41.9492 161.903 41.6562C162.099 41.3633 162.27 41.041 162.416 40.6895C162.572 40.3281 162.729 39.9473 162.885 39.5469L164.247 35.7383C164.345 35.5332 164.467 35.3672 164.613 35.2402C164.77 35.1035 165.009 35.0352 165.331 35.0352C165.614 35.0352 165.844 35.1328 166.02 35.3281C166.205 35.5234 166.288 35.7578 166.269 36.0312C166.259 36.1582 166.229 36.2754 166.181 36.3828L164.569 40.543C164.12 41.6562 163.671 42.5449 163.222 43.209C162.782 43.8633 162.143 44.1953 161.303 44.2051C160.453 44.1953 159.809 43.8584 159.369 43.1943ZM167.47 42.9893C167.47 42.7158 167.562 42.4863 167.748 42.3008C167.943 42.1055 168.178 42.0078 168.451 42.0078H171.264V37.291H168.451C168.178 37.291 167.948 37.1934 167.763 36.998C167.567 36.8125 167.47 36.583 167.47 36.3096C167.47 36.0361 167.562 35.8066 167.748 35.6211C167.943 35.4258 168.178 35.3281 168.451 35.3281H176.039C176.312 35.3281 176.547 35.4209 176.742 35.6064C176.928 35.8018 177.021 36.0361 177.021 36.3096C177.021 36.583 176.923 36.8174 176.728 37.0127C176.542 37.1982 176.312 37.291 176.039 37.291H173.241V42.0078H176.039C176.312 42.0078 176.547 42.1006 176.742 42.2861C176.928 42.4814 177.021 42.7158 177.021 42.9893C177.021 43.2627 176.923 43.4971 176.728 43.6924C176.542 43.8779 176.312 43.9707 176.039 43.9707H168.451C168.178 43.9707 167.948 43.873 167.763 43.6777C167.567 43.4922 167.47 43.2627 167.47 42.9893ZM181.869 37.291C181.498 37.3105 181.186 37.4521 180.932 37.7158C180.688 37.9795 180.512 38.2822 180.404 38.624C180.297 38.9561 180.243 39.2979 180.243 39.6494C180.243 40.001 180.292 40.3477 180.39 40.6895C180.497 41.0312 180.678 41.334 180.932 41.5977C181.186 41.8516 181.498 41.9883 181.869 42.0078H186.703C187.318 42.0664 187.655 42.4033 187.714 43.0186C187.704 43.292 187.602 43.5215 187.406 43.707C187.211 43.8828 186.977 43.9707 186.703 43.9707H182.03H181.356C180.673 43.9316 180.111 43.6729 179.672 43.1943C179.232 42.7061 178.915 42.1543 178.72 41.5391C178.534 40.9238 178.441 40.2939 178.441 39.6494C178.441 39.1709 178.495 38.6973 178.603 38.2285C178.71 37.7598 178.876 37.3154 179.101 36.8955C179.335 36.4658 179.643 36.0996 180.023 35.7969C180.414 35.4941 180.858 35.3379 181.356 35.3281H181.635H186.703C187.318 35.3867 187.655 35.7236 187.714 36.3389C187.714 36.6123 187.611 36.8418 187.406 37.0273C187.211 37.2031 186.977 37.291 186.703 37.291H181.869ZM191.786 35.3281H192.46H197.44C197.714 35.3379 197.938 35.4404 198.114 35.6357C198.3 35.8311 198.393 36.0654 198.393 36.3389C198.344 36.9248 198.026 37.2422 197.44 37.291H192.284C191.913 37.3105 191.605 37.4521 191.361 37.7158C191.117 37.9795 190.937 38.2822 190.819 38.624C190.712 38.9561 190.658 39.2979 190.658 39.6494C190.658 40.001 190.712 40.3477 190.819 40.6895C190.937 41.0215 191.117 41.3193 191.361 41.583C191.605 41.8467 191.913 41.9883 192.284 42.0078H197.44C197.714 42.0176 197.938 42.1201 198.114 42.3154C198.3 42.5107 198.393 42.7451 198.393 43.0186C198.383 43.2822 198.285 43.5068 198.1 43.6924C197.924 43.8682 197.704 43.9609 197.44 43.9707H192.064H191.786C191.103 43.9316 190.536 43.6729 190.087 43.1943C189.647 42.7061 189.33 42.1543 189.135 41.5391C188.949 40.9238 188.856 40.2939 188.856 39.6494C188.856 39.0049 188.954 38.375 189.149 37.7598C189.345 37.1445 189.662 36.5977 190.102 36.1191C190.541 35.6309 191.103 35.3672 191.786 35.3281ZM198.363 39.5908C198.363 39.8643 198.266 40.0938 198.07 40.2793C197.885 40.4746 197.655 40.5723 197.382 40.5723H192.958C192.685 40.5723 192.45 40.4795 192.255 40.2939C192.069 40.0986 191.977 39.8643 191.977 39.5908C191.977 39.3174 192.069 39.083 192.255 38.8877C192.45 38.7021 192.685 38.6094 192.958 38.6094H197.382C197.655 38.6094 197.885 38.707 198.07 38.9023C198.266 39.0879 198.363 39.3174 198.363 39.5908Z" fill="url(#paint2_linear_162_13)"/>
</g>
<g filter="url(#filter2_d_162_13)">
<path d="M52 24C52 37.2548 41.2548 48 28 48C14.7452 48 4 37.2548 4 24C4 10.7452 14.7452 0 28 0C41.2548 0 52 10.7452 52 24Z" fill="white"/>
</g>
<g filter="url(#filter3_d_162_13)">
<path fill-rule="evenodd" clip-rule="evenodd" d="M28 43.1392C38.5703 43.1392 47.1392 34.5703 47.1392 24C47.1392 13.4297 38.5703 4.86076 28 4.86076C17.4297 4.86076 8.86076 13.4297 8.86076 24C8.86076 34.5703 17.4297 43.1392 28 43.1392ZM28 48C41.2548 48 52 37.2548 52 24C52 10.7452 41.2548 0 28 0C14.7452 0 4 10.7452 4 24C4 37.2548 14.7452 48 28 48Z" fill="url(#paint3_linear_162_13)"/>
</g>
<g filter="url(#filter4_d_162_13)">
<path d="M27.848 12.4556C27.2772 12.4556 26.7192 12.6248 26.2446 12.942C25.77 13.2591 25.4 13.7098 25.1816 14.2372C24.9632 14.7645 24.906 15.3448 25.0174 15.9047C25.1287 16.4645 25.4036 16.9788 25.8072 17.3824C26.2108 17.786 26.7251 18.0609 27.2849 18.1723C27.8447 18.2836 28.4251 18.2265 28.9524 18.008C29.4798 17.7896 29.9305 17.4197 30.2477 16.9451C30.5648 16.4704 30.7341 15.9125 30.7341 15.3416C30.7341 14.9626 30.6594 14.5873 30.5143 14.2372C30.3693 13.887 30.1567 13.5689 29.8887 13.3009C29.6207 13.0329 29.3026 12.8203 28.9524 12.6753C28.6023 12.5302 28.227 12.4556 27.848 12.4556Z" fill="url(#paint4_linear_162_13)"/>
</g>
<g filter="url(#filter5_d_162_13)">
<path d="M36.9356 32.2642C36.3137 31.1931 35.5555 30.2065 34.6796 29.3287C33.9438 28.6309 33.1348 28.0139 32.2664 27.4883C33.3152 27.1093 34.3098 26.5958 35.2251 25.9607C37.4019 24.4501 39.0619 22.3127 39.9824 19.8356C40.9028 17.3585 41.0396 14.6603 40.3742 12.1036C39.7088 9.54688 38.2732 7.25405 36.2603 5.53314C34.2473 3.81222 31.7533 2.74564 29.1135 2.47668C28.6789 2.47668 28.2351 2.43066 27.7913 2.43066H27.3105C24.6764 2.53094 22.1353 3.42639 20.0247 4.99808L19.6086 4.33552L19.2665 3.78339L18.4343 2.43987H14.3291V6.90294V47.3927H19.6178V29.0067H24.8048C26.1122 28.974 27.3998 29.3296 28.5033 30.0281C29.5388 30.7091 30.7685 32.2366 32.2017 34.6292L33.9399 37.4911H23.8617V41.0248H36.085L39.9313 47.3651H46.2278L36.9356 32.2642ZM27.7728 23.5129C25.6099 23.5129 23.5357 22.6578 22.0064 21.1357C20.477 19.6136 19.6178 17.5492 19.6178 15.3966C19.6178 13.244 20.477 11.1796 22.0064 9.65746C23.5357 8.13535 25.6099 7.28023 27.7728 7.28023C27.9947 7.28023 28.1981 7.28023 28.4108 7.28023H28.7991L29.1967 7.33545L29.4926 7.39066C31.4588 7.81465 33.1982 8.94707 34.3764 10.5702C35.5545 12.1934 36.0881 14.1926 35.8748 16.1837C35.6614 18.1748 34.7161 20.0171 33.2205 21.3564C31.7249 22.6958 29.7847 23.5112 27.7728 23.5129Z" fill="url(#paint5_linear_162_13)"/>
</g>
<mask id="path-7-inside-1_162_13" fill="white">
<path fill-rule="evenodd" clip-rule="evenodd" d="M93.2966 44.6292L93.2911 44.6302L93.2556 44.6477L93.2456 44.6497L93.2386 44.6477L93.2031 44.6302C93.1978 44.6285 93.1938 44.6294 93.1911 44.6327L93.1891 44.6377L93.1806 44.8517L93.1831 44.8617L93.1881 44.8682L93.2401 44.9052L93.2476 44.9072L93.2536 44.9052L93.3056 44.8682L93.3116 44.8602L93.3136 44.8517L93.3051 44.6382C93.3038 44.6329 93.3009 44.6299 93.2966 44.6292ZM93.4291 44.5727L93.4226 44.5737L93.3301 44.6202L93.3251 44.6252L93.3236 44.6307L93.3326 44.8457L93.3351 44.8517L93.3391 44.8552L93.4396 44.9017C93.4459 44.9034 93.4508 44.902 93.4541 44.8977L93.4561 44.8907L93.4391 44.5837C93.4374 44.5777 93.4341 44.574 93.4291 44.5727ZM93.0716 44.5737C93.0694 44.5724 93.0667 44.5719 93.0642 44.5725C93.0617 44.5731 93.0595 44.5746 93.0581 44.5767L93.0551 44.5837L93.0381 44.8907C93.0384 44.8967 93.0413 44.9007 93.0466 44.9027L93.0541 44.9017L93.1546 44.8552L93.1596 44.8512L93.1616 44.8457L93.1701 44.6307L93.1686 44.6247L93.1636 44.6197L93.0716 44.5737Z"/>
</mask>
<path d="M93.2966 44.6292L96.1857 25.8502L93.034 25.3653L89.8966 25.9359L93.2966 44.6292ZM93.2911 44.6302L89.8911 25.9369L87.2751 26.4127L84.8902 27.5883L93.2911 44.6302ZM93.2556 44.6477L96.9816 63.2788L99.4232 62.7905L101.656 61.6896L93.2556 44.6477ZM93.2456 44.6497L88.0262 62.9188L92.455 64.1841L96.9716 63.2808L93.2456 44.6497ZM93.2386 44.6477L84.8377 61.6896L86.3732 62.4465L88.0192 62.9168L93.2386 44.6477ZM93.2031 44.6302L101.604 27.5883L100.28 26.9355L98.8703 26.4951L93.2031 44.6302ZM93.1911 44.6327L78.3546 32.7635L76.5955 34.9623L75.5498 37.5769L93.1911 44.6327ZM93.1891 44.6377L75.5478 37.5819L74.3338 40.6172L74.2041 43.8836L93.1891 44.6377ZM93.1806 44.8517L74.1956 44.0976L74.0875 46.8183L74.7479 49.4599L93.1806 44.8517ZM93.1831 44.8617L74.7504 49.4699L75.7102 53.3093L78.1231 56.4461L93.1831 44.8617ZM93.1881 44.8682L78.1281 56.4526L79.8593 58.7031L82.1727 60.3492L93.1881 44.8682ZM93.2401 44.9052L82.2247 60.3862L85.0246 62.3785L88.3449 63.2638L93.2401 44.9052ZM93.2476 44.9072L88.3524 63.2658L93.8539 64.7327L99.2555 62.9323L93.2476 44.9072ZM93.2536 44.9052L99.2615 62.9303L101.955 62.0325L104.269 60.3863L93.2536 44.9052ZM93.3056 44.8682L104.321 60.3493L106.731 58.6344L108.506 56.2679L93.3056 44.8682ZM93.3116 44.8602L108.512 56.2599L110.896 53.0804L111.807 49.2116L93.3116 44.8602ZM93.3136 44.8517L111.809 49.2031L112.402 46.6829L112.299 44.0959L93.3136 44.8517ZM93.3051 44.6382L112.29 43.8824L112.212 41.9278L111.738 40.03L93.3051 44.6382ZM93.4291 44.5727L98.3247 26.2142L94.4772 25.1882L90.5414 25.7934L93.4291 44.5727ZM93.4226 44.5737L90.5349 25.7944L87.5695 26.2504L84.8888 27.598L93.4226 44.5737ZM93.3301 44.6202L84.7963 27.6445L82.0604 29.0199L79.8951 31.1852L93.3301 44.6202ZM93.3251 44.6252L79.8901 31.1902L76.3218 34.7584L74.9943 39.6269L93.3251 44.6252ZM93.3236 44.6307L74.9928 39.6324L74.2168 42.4782L74.3402 45.4254L93.3236 44.6307ZM93.3326 44.8457L74.3492 45.6404L74.4909 49.026L75.7944 52.154L93.3326 44.8457ZM93.3351 44.8517L75.7969 52.16L77.4971 56.2403L80.8239 59.151L93.3351 44.8517ZM93.3391 44.8552L80.8279 59.1545L82.8827 60.9524L85.3606 62.0989L93.3391 44.8552ZM93.4396 44.9017L85.4611 62.1454L86.9828 62.8494L88.6042 63.2761L93.4396 44.9017ZM93.4541 44.8977L108.514 56.4822L110.726 53.6061L111.723 50.1171L93.4541 44.8977ZM93.4561 44.8907L111.725 50.1101L112.604 47.0342L112.427 43.8402L93.4561 44.8907ZM93.4391 44.5837L112.41 43.5332L112.296 41.4799L111.746 39.4985L93.4391 44.5837ZM93.0716 44.5737L83.2241 60.8226L83.8842 61.2226L84.5745 61.5678L93.0716 44.5737ZM93.0581 44.5767L77.2555 34.0278L76.284 35.4832L75.5946 37.0917L93.0581 44.5767ZM93.0551 44.5837L75.5916 37.0987L74.2697 40.1828L74.0841 43.5332L93.0551 44.5837ZM93.0381 44.8907L74.0671 43.8402L74.0089 44.8924L74.0673 45.9446L93.0381 44.8907ZM93.0466 44.9027L86.3752 62.693L90.8363 64.3658L95.5588 63.7359L93.0466 44.9027ZM93.0541 44.9017L95.5663 63.7349L98.4198 63.3543L101.033 62.1454L93.0541 44.9017ZM93.1546 44.8552L101.133 62.0989L103.224 61.1314L105.023 59.6923L93.1546 44.8552ZM93.1596 44.8512L105.028 59.6883L109.193 56.3566L111.016 51.3441L93.1596 44.8512ZM93.1616 44.8457L111.018 51.3386L112.03 48.5554L112.147 45.5963L93.1616 44.8457ZM93.1701 44.6307L112.155 45.3813L112.263 42.662L111.603 40.0218L93.1701 44.6307ZM93.1686 44.6247L111.601 40.0158L110.325 34.9107L106.604 31.1897L93.1686 44.6247ZM93.1636 44.6197L106.599 31.1847L104.418 29.0045L101.661 27.6256L93.1636 44.6197ZM89.8966 25.9359L89.8911 25.9369L96.691 63.3235L96.6966 63.3225L89.8966 25.9359ZM84.8902 27.5883L84.8547 27.6058L101.656 61.6896L101.692 61.6721L84.8902 27.5883ZM89.5295 26.0166L89.5196 26.0186L96.9716 63.2808L96.9816 63.2788L89.5295 26.0166ZM98.465 26.3807L98.458 26.3787L88.0192 62.9168L88.0262 62.9188L98.465 26.3807ZM101.639 27.6058L101.604 27.5883L84.8022 61.6721L84.8377 61.6896L101.639 27.6058ZM98.8703 26.4951C96.8637 25.868 93.4447 25.1701 89.3219 26.0288C84.7893 26.9728 80.9825 29.4786 78.3546 32.7635L108.028 56.5019C105.402 59.7834 101.599 62.2872 97.0702 63.2304C92.9515 64.0883 89.5371 63.3907 87.5359 62.7653L98.8703 26.4951ZM75.5498 37.5769L75.5478 37.5819L110.83 51.6936L110.832 51.6886L75.5498 37.5769ZM74.2041 43.8836L74.1956 44.0976L112.166 45.6058L112.174 45.3918L74.2041 43.8836ZM74.7479 49.4599L74.7504 49.4699L111.616 40.2535L111.613 40.2435L74.7479 49.4599ZM78.1231 56.4461L78.1281 56.4526L108.248 33.2838L108.243 33.2773L78.1231 56.4461ZM82.1727 60.3492L82.2247 60.3862L104.255 29.4242L104.203 29.3872L82.1727 60.3492ZM88.3449 63.2638L88.3524 63.2658L98.1427 26.5486L98.1352 26.5466L88.3449 63.2638ZM99.2555 62.9323L99.2615 62.9303L87.2457 26.8801L87.2397 26.8821L99.2555 62.9323ZM104.269 60.3863L104.321 60.3493L82.2903 29.3871L82.2383 29.4241L104.269 60.3863ZM108.506 56.2679L108.512 56.2599L78.1114 33.4605L78.1054 33.4685L108.506 56.2679ZM111.807 49.2116L111.809 49.2031L74.8186 40.5003L74.8166 40.5088L111.807 49.2116ZM112.299 44.0959L112.29 43.8824L74.3201 45.3941L74.3286 45.6076L112.299 44.0959ZM111.738 40.03C111.2 37.8793 109.977 34.6164 107.115 31.5864C104.023 28.3122 100.086 26.4502 96.1857 25.8502L90.4075 63.4083C86.5115 62.8089 82.5778 60.9488 79.4885 57.6775C76.6297 54.6505 75.4087 51.3918 74.8724 49.2464L111.738 40.03ZM90.5414 25.7934L90.5349 25.7944L96.3102 63.353L96.3167 63.352L90.5414 25.7934ZM84.8888 27.598L84.7963 27.6445L101.864 61.5959L101.956 61.5494L84.8888 27.598ZM79.8951 31.1852L79.8901 31.1902L106.76 58.0602L106.765 58.0552L79.8951 31.1852ZM74.9943 39.6269L74.9928 39.6324L111.654 49.629L111.656 49.6235L74.9943 39.6269ZM74.3402 45.4254L74.3492 45.6404L112.316 44.0511L112.307 43.8361L74.3402 45.4254ZM75.7944 52.154L75.7969 52.16L110.873 37.5434L110.871 37.5374L75.7944 52.154ZM80.8239 59.151L80.8279 59.1545L105.85 30.5559L105.846 30.5524L80.8239 59.151ZM85.3606 62.0989L85.4611 62.1454L101.418 27.6581L101.318 27.6115L85.3606 62.0989ZM88.6042 63.2761C90.883 63.8758 94.4203 64.3433 98.5 63.218C102.845 62.0194 106.237 59.4427 108.514 56.4822L78.3942 33.3132C80.6682 30.357 84.0554 27.7832 88.3959 26.5859C92.4708 25.462 96.0025 25.9293 98.275 26.5273L88.6042 63.2761ZM111.723 50.1171L111.725 50.1101L75.187 39.6713L75.185 39.6783L111.723 50.1171ZM112.427 43.8402L112.41 43.5332L74.4681 45.6342L74.4851 45.9412L112.427 43.8402ZM111.746 39.4985C110.372 34.5541 106.254 28.3287 98.3247 26.2142L88.5335 62.9312C85.1741 62.0353 81.9427 60.1798 79.377 57.3578C76.9338 54.6705 75.7274 51.8115 75.1322 49.6689L111.746 39.4985ZM102.919 28.3248C98.7282 25.785 93.7211 24.963 88.9426 26.0249L97.1859 63.1201C92.4124 64.1808 87.4106 63.3598 83.2241 60.8226L102.919 28.3248ZM88.9426 26.0249C84.1628 27.0871 79.9756 29.9531 77.2555 34.0278L108.861 55.1256C106.143 59.1961 101.961 62.059 97.1859 63.1201L88.9426 26.0249ZM75.5946 37.0917L75.5916 37.0987L110.519 52.0688L110.522 52.0618L75.5946 37.0917ZM74.0841 43.5332L74.0671 43.8402L112.009 45.9412L112.026 45.6342L74.0841 43.5332ZM74.0673 45.9446C74.2209 48.7093 75.0455 52.3646 77.536 55.8806C80.0736 59.463 83.4055 61.5793 86.3752 62.693L99.7179 27.1125C102.682 28.2241 106.01 30.3374 108.545 33.9158C111.033 37.4279 111.856 41.0781 112.009 43.8368L74.0673 45.9446ZM95.5588 63.7359L95.5663 63.7349L90.5419 26.0685L90.5344 26.0695L95.5588 63.7359ZM101.033 62.1454L101.133 62.0989L85.1761 27.6115L85.0756 27.658L101.033 62.1454ZM105.023 59.6923L105.028 59.6883L81.2911 30.0142L81.2861 30.0182L105.023 59.6923ZM111.016 51.3441L111.018 51.3386L75.3054 38.3528L75.3034 38.3583L111.016 51.3441ZM112.147 45.5963L112.155 45.3813L74.1849 43.8801L74.1764 44.0951L112.147 45.5963ZM111.603 40.0218L111.601 40.0158L74.7361 49.2336L74.7376 49.2396L111.603 40.0218ZM106.604 31.1897L106.599 31.1847L79.7286 58.0547L79.7336 58.0597L106.604 31.1897ZM101.661 27.6256L101.569 27.5796L84.5745 61.5678L84.6665 61.6138L101.661 27.6256Z" fill="url(#paint6_linear_162_13)" mask="url(#path-7-inside-1_162_13)"/>
<g filter="url(#filter6_d_162_13)">
<mask id="path-9-inside-2_162_13" fill="white">
<path fill-rule="evenodd" clip-rule="evenodd" d="M68.2965 41.372C68.3342 41.4258 68.3609 41.4865 68.3751 41.5506C68.3893 41.6148 68.3907 41.6811 68.3793 41.7457C68.3679 41.8104 68.3438 41.8722 68.3085 41.9276C68.2732 41.983 68.2273 42.0309 68.1735 42.0685C68.1125 42.1082 68.0586 42.1579 68.014 42.2155L68.002 42.2365L68.0195 42.2655C68.0345 42.2855 68.0585 42.313 68.0995 42.348C68.2145 42.446 68.4095 42.5565 68.6945 42.6595C69.2615 42.864 70.0765 43 71 43C71.924 43 72.739 42.864 73.305 42.66C73.59 42.5565 73.7855 42.446 73.9 42.348C73.9297 42.3237 73.9566 42.296 73.98 42.2655L73.998 42.2365L73.986 42.2165C73.9429 42.1586 73.8897 42.109 73.829 42.07C73.7737 42.0329 73.7264 41.9851 73.6898 41.9294C73.6532 41.8738 73.6282 41.8114 73.616 41.7459C73.6039 41.6804 73.605 41.6132 73.6192 41.5481C73.6334 41.4831 73.6605 41.4215 73.6988 41.367C73.7372 41.3126 73.786 41.2663 73.8424 41.231C73.8989 41.1957 73.9618 41.172 74.0276 41.1613C74.0933 41.1506 74.1605 41.1532 74.2252 41.1689C74.29 41.1845 74.3509 41.213 74.4045 41.2525C74.7035 41.463 75 41.7895 75 42.2365C75 42.613 74.787 42.906 74.55 43.1085C74.31 43.3135 73.993 43.4745 73.645 43.6005C72.944 43.853 72.009 44 71 44C69.991 44 69.056 43.853 68.355 43.6C68.007 43.475 67.69 43.313 67.4505 43.1085C67.213 42.906 67 42.6135 67 42.2365C67 41.7875 67.299 41.46 67.6 41.249C67.6538 41.2113 67.7145 41.1846 67.7786 41.1704C67.8428 41.1562 67.9091 41.1548 67.9737 41.1662C68.0384 41.1776 68.1002 41.2017 68.1556 41.237C68.211 41.2723 68.2589 41.3182 68.2965 41.372ZM71 34C72.0609 34 73.0783 34.4214 73.8284 35.1716C74.5786 35.9217 75 36.9391 75 38C75 39.0609 74.5786 40.0783 73.8284 40.8284C73.0783 41.5786 72.0609 42 71 42C69.9391 42 68.9217 41.5786 68.1716 40.8284C67.4214 40.0783 67 39.0609 67 38C67 36.9391 67.4214 35.9217 68.1716 35.1716C68.9217 34.4214 69.9391 34 71 34ZM71 35C70.2044 35 69.4413 35.3161 68.8787 35.8787C68.3161 36.4413 68 37.2044 68 38C68 38.7956 68.3161 39.5587 68.8787 40.1213C69.4413 40.6839 70.2044 41 71 41C71.7956 41 72.5587 40.6839 73.1213 40.1213C73.6839 39.5587 74 38.7956 74 38C74 37.2044 73.6839 36.4413 73.1213 35.8787C72.5587 35.3161 71.7956 35 71 35ZM71 36C71.5304 36 72.0391 36.2107 72.4142 36.5858C72.7893 36.9609 73 37.4696 73 38C73 38.5304 72.7893 39.0391 72.4142 39.4142C72.0391 39.7893 71.5304 40 71 40C70.4696 40 69.9609 39.7893 69.5858 39.4142C69.2107 39.0391 69 38.5304 69 38C69 37.4696 69.2107 36.9609 69.5858 36.5858C69.9609 36.2107 70.4696 36 71 36ZM71 37C70.7348 37 70.4804 37.1054 70.2929 37.2929C70.1054 37.4804 70 37.7348 70 38C70 38.2652 70.1054 38.5196 70.2929 38.7071C70.4804 38.8946 70.7348 39 71 39C71.2652 39 71.5196 38.8946 71.7071 38.7071C71.8946 38.5196 72 38.2652 72 38C72 37.7348 71.8946 37.4804 71.7071 37.2929C71.5196 37.1054 71.2652 37 71 37Z"/>
</mask>
<path d="M68.2965 41.372L66.6576 42.5183L66.6582 42.5191L68.2965 41.372ZM68.1735 42.0685L69.2645 43.7447L69.2925 43.7265L69.3198 43.7074L68.1735 42.0685ZM68.014 42.2155L66.4322 40.9916L66.3468 41.102L66.2775 41.2232L68.014 42.2155ZM68.002 42.2365L66.2655 41.2442L65.6827 42.2641L66.2896 43.2698L68.002 42.2365ZM68.0195 42.2655L66.3071 43.2988L66.3591 43.385L66.4195 43.4655L68.0195 42.2655ZM68.0995 42.348L66.801 43.8691L66.8023 43.8702L68.0995 42.348ZM68.6945 42.6595L68.0147 44.5404L68.0159 44.5409L68.6945 42.6595ZM73.305 42.66L73.9831 44.5415L73.9877 44.5399L73.305 42.66ZM73.9 42.348L72.6337 40.7999L72.6165 40.8141L72.5995 40.8286L73.9 42.348ZM73.98 42.2655L75.5663 43.4836L75.6268 43.4047L75.6793 43.3202L73.98 42.2655ZM73.998 42.2365L75.6973 43.2912L76.341 42.2542L75.713 41.2075L73.998 42.2365ZM73.986 42.2165L75.701 41.1875L75.6497 41.102L75.5901 41.022L73.986 42.2165ZM73.829 42.07L72.7143 43.7306L72.7312 43.7419L72.7482 43.7528L73.829 42.07ZM74.4045 41.2525L73.2172 42.8619L73.235 42.8751L73.2532 42.8879L74.4045 41.2525ZM74.55 43.1085L75.849 44.6292L75.8492 44.629L74.55 43.1085ZM73.645 43.6005L74.3228 45.4822L74.3259 45.481L73.645 43.6005ZM68.355 43.6L69.034 41.7188L69.0311 41.7177L68.355 43.6ZM67.4505 43.1085L68.7492 41.5875L68.7481 41.5866L67.4505 43.1085ZM67.6 41.249L66.4529 39.6107L66.452 39.6113L67.6 41.249ZM71 34V32V34ZM75 38H77H75ZM71 42V44V42ZM67 38H65H67ZM71 35V33V35ZM68 38H66H68ZM71 41V43V41ZM71 36V34V36ZM73 38H75H73ZM71 40V42V40ZM69 38L67 38L69 38ZM71 37V35V37ZM66.6582 42.5191C66.5452 42.3577 66.465 42.1756 66.4224 41.9832L70.3277 41.118C70.2567 40.7974 70.1232 40.4939 69.9348 40.2249L66.6582 42.5191ZM66.4224 41.9832C66.3798 41.7909 66.3755 41.592 66.4098 41.3979L70.3488 42.0935C70.4059 41.7701 70.3988 41.4387 70.3277 41.118L66.4224 41.9832ZM66.4098 41.3979C66.444 41.2039 66.5162 41.0185 66.6221 40.8523L69.9949 43.0028C70.1714 42.7259 70.2917 42.417 70.3488 42.0935L66.4098 41.3979ZM66.6221 40.8523C66.7281 40.6862 66.8657 40.5426 67.0272 40.4296L69.3198 43.7074C69.5889 43.5192 69.8183 43.2798 69.9949 43.0028L66.6221 40.8523ZM67.0825 40.3923C66.8337 40.5542 66.6139 40.7568 66.4322 40.9916L69.5958 43.4394C69.5033 43.559 69.3913 43.6622 69.2645 43.7447L67.0825 40.3923ZM66.2775 41.2232L66.2655 41.2442L69.7385 43.2288L69.7505 43.2078L66.2775 41.2232ZM66.2896 43.2698L66.3071 43.2988L69.7319 41.2322L69.7144 41.2032L66.2896 43.2698ZM66.4195 43.4655C66.5285 43.6108 66.6553 43.7448 66.801 43.8691L69.398 40.8269C69.4617 40.8812 69.5405 40.9602 69.6195 41.0655L66.4195 43.4655ZM66.8023 43.8702C67.1662 44.1804 67.6039 44.3919 68.0147 44.5404L69.3743 40.7786C69.3418 40.7668 69.3174 40.7569 69.3006 40.7495C69.2922 40.7458 69.2859 40.7429 69.2817 40.7408C69.2775 40.7388 69.2755 40.7377 69.2756 40.7378C69.2757 40.7378 69.2782 40.7392 69.2829 40.742C69.2877 40.7448 69.295 40.7493 69.3047 40.7557C69.3232 40.7679 69.3555 40.7906 69.3967 40.8258L66.8023 43.8702ZM68.0159 44.5409C68.852 44.8424 69.9071 45 71 45V41C70.2459 41 69.671 40.8856 69.3731 40.7781L68.0159 44.5409ZM71 45C72.0932 45 73.1481 44.8425 73.9831 44.5415L72.6269 40.7785C72.3299 40.8855 71.7548 41 71 41V45ZM73.9877 44.5399C74.3939 44.3924 74.8345 44.1807 75.2005 43.8674L72.5995 40.8286C72.6421 40.7921 72.6755 40.7686 72.6943 40.7562C72.7042 40.7496 72.7117 40.745 72.7164 40.7422C72.7188 40.7408 72.7207 40.7398 72.7219 40.7391C72.723 40.7384 72.7237 40.7381 72.7237 40.7381C72.7237 40.7381 72.7216 40.7392 72.7172 40.7413C72.7127 40.7435 72.7063 40.7465 72.6977 40.7503C72.6803 40.7579 72.6554 40.7681 72.6223 40.7801L73.9877 44.5399ZM75.1663 43.8961C75.315 43.7744 75.4492 43.636 75.5663 43.4836L72.3937 41.0474C72.4639 40.956 72.5445 40.8729 72.6337 40.7999L75.1663 43.8961ZM75.6793 43.3202L75.6973 43.2912L72.2987 41.1818L72.2807 41.2108L75.6793 43.3202ZM75.713 41.2075L75.701 41.1875L72.271 43.2455L72.283 43.2655L75.713 41.2075ZM75.5901 41.022C75.4034 40.7712 75.1729 40.5562 74.9098 40.3872L72.7482 43.7528C72.6065 43.6618 72.4824 43.546 72.3819 43.411L75.5901 41.022ZM74.9437 40.4094C75.1095 40.5208 75.2515 40.6641 75.3612 40.8311L72.0184 43.0278C72.2013 43.3061 72.4379 43.545 72.7143 43.7306L74.9437 40.4094ZM75.3612 40.8311C75.471 40.9981 75.5462 41.1853 75.5826 41.3817L71.6495 42.1101C71.7101 42.4375 71.8355 42.7495 72.0184 43.0278L75.3612 40.8311ZM75.5826 41.3817C75.619 41.5782 75.6157 41.7799 75.5731 41.9751L71.6653 41.1212C71.5942 41.4464 71.5888 41.7827 71.6495 42.1101L75.5826 41.3817ZM75.5731 41.9751C75.5304 42.1702 75.4492 42.3549 75.3342 42.5183L72.0634 40.2158C71.8717 40.488 71.7364 40.7959 71.6653 41.1212L75.5731 41.9751ZM75.3342 42.5183C75.2192 42.6817 75.0727 42.8204 74.9034 42.9264L72.7815 39.5356C72.4992 39.7122 72.2551 39.9435 72.0634 40.2158L75.3342 42.5183ZM74.9034 42.9264C74.734 43.0324 74.5452 43.1035 74.348 43.1355L73.7071 39.1871C73.3785 39.2405 73.0638 39.359 72.7815 39.5356L74.9034 42.9264ZM74.348 43.1355C74.1508 43.1675 73.9492 43.1598 73.755 43.1128L74.6955 39.2249C74.3719 39.1467 74.0358 39.1338 73.7071 39.1871L74.348 43.1355ZM73.755 43.1128C73.5608 43.0658 73.3779 42.9805 73.2172 42.8619L75.5918 39.6431C75.3239 39.4454 75.0191 39.3032 74.6955 39.2249L73.755 43.1128ZM73.2532 42.8879C73.2709 42.9003 73.2232 42.8726 73.161 42.7812C73.0874 42.673 73 42.4812 73 42.2365H77C77 40.8232 76.062 39.9735 75.5558 39.6171L73.2532 42.8879ZM73 42.2365C73 42.0317 73.0613 41.8615 73.1256 41.7485C73.1835 41.6468 73.2388 41.5982 73.2508 41.588L75.8492 44.629C76.3225 44.2246 77 43.4255 77 42.2365H73ZM73.251 41.5878C73.2626 41.5779 73.2491 41.5915 73.1954 41.6202C73.1428 41.6483 73.0668 41.6828 72.9641 41.72L74.3259 45.481C74.7979 45.3101 75.3588 45.048 75.849 44.6292L73.251 41.5878ZM72.9672 41.7188C72.5347 41.8746 71.8394 42 71 42V46C72.1786 46 73.3533 45.8314 74.3228 45.4822L72.9672 41.7188ZM71 42C70.1605 42 69.4657 41.8746 69.034 41.7188L67.676 45.4812C68.6463 45.8314 69.8215 46 71 46V42ZM69.0311 41.7177C68.9318 41.6821 68.8574 41.6483 68.8055 41.6206C68.7525 41.5922 68.7385 41.5784 68.7492 41.5875L66.1518 44.6295C66.6397 45.0461 67.1996 45.3101 67.6789 45.4823L69.0311 41.7177ZM68.7481 41.5866C68.7598 41.5966 68.8156 41.6454 68.8739 41.7478C68.9388 41.8617 69 42.0322 69 42.2365H65C65 43.4267 65.6783 44.2257 66.1529 44.6304L68.7481 41.5866ZM69 42.2365C69 42.4822 68.9118 42.6745 68.8382 42.7822C68.7761 42.8731 68.729 42.9 68.748 42.8867L66.452 39.6113C65.9456 39.9663 65 40.8171 65 42.2365H69ZM68.7471 42.8873C68.5857 43.0003 68.4036 43.0805 68.2112 43.1231L67.346 39.2178C67.0254 39.2888 66.7219 39.4223 66.4529 39.6107L68.7471 42.8873ZM68.2112 43.1231C68.0189 43.1657 67.82 43.17 67.6259 43.1357L68.3215 39.1967C67.9981 39.1396 67.6667 39.1467 67.346 39.2178L68.2112 43.1231ZM67.6259 43.1357C67.4319 43.1015 67.2465 43.0293 67.0803 42.9234L69.2308 39.5506C68.9539 39.3741 68.6449 39.2538 68.3215 39.1967L67.6259 43.1357ZM67.0803 42.9234C66.9142 42.8174 66.7706 42.6798 66.6576 42.5183L69.9354 40.2257C69.7471 39.9566 69.5077 39.7272 69.2308 39.5506L67.0803 42.9234ZM71 36C71.5304 36 72.0391 36.2107 72.4142 36.5858L75.2426 33.7574C74.1174 32.6321 72.5913 32 71 32V36ZM72.4142 36.5858C72.7893 36.9609 73 37.4696 73 38H77C77 36.4087 76.3679 34.8826 75.2426 33.7574L72.4142 36.5858ZM73 38C73 38.5304 72.7893 39.0391 72.4142 39.4142L75.2426 42.2426C76.3679 41.1174 77 39.5913 77 38H73ZM72.4142 39.4142C72.0391 39.7893 71.5304 40 71 40V44C72.5913 44 74.1174 43.3679 75.2426 42.2426L72.4142 39.4142ZM71 40C70.4696 40 69.9609 39.7893 69.5858 39.4142L66.7574 42.2426C67.8826 43.3679 69.4087 44 71 44V40ZM69.5858 39.4142C69.2107 39.0391 69 38.5304 69 38H65C65 39.5913 65.6321 41.1174 66.7574 42.2426L69.5858 39.4142ZM69 38C69 37.4696 69.2107 36.9609 69.5858 36.5858L66.7574 33.7574C65.6321 34.8826 65 36.4087 65 38H69ZM69.5858 36.5858C69.9609 36.2107 70.4696 36 71 36V32C69.4087 32 67.8826 32.6321 66.7574 33.7574L69.5858 36.5858ZM71 33C69.6739 33 68.4021 33.5268 67.4645 34.4645L70.2929 37.2929C70.4804 37.1054 70.7348 37 71 37V33ZM67.4645 34.4645C66.5268 35.4021 66 36.6739 66 38H70C70 37.7348 70.1054 37.4804 70.2929 37.2929L67.4645 34.4645ZM66 38C66 39.3261 66.5268 40.5979 67.4645 41.5355L70.2929 38.7071C70.1054 38.5196 70 38.2652 70 38H66ZM67.4645 41.5355C68.4021 42.4732 69.6739 43 71 43V39C70.7348 39 70.4804 38.8946 70.2929 38.7071L67.4645 41.5355ZM71 43C72.3261 43 73.5979 42.4732 74.5355 41.5355L71.7071 38.7071C71.5196 38.8946 71.2652 39 71 39V43ZM74.5355 41.5355C75.4732 40.5979 76 39.3261 76 38H72C72 38.2652 71.8946 38.5196 71.7071 38.7071L74.5355 41.5355ZM76 38C76 36.6739 75.4732 35.4021 74.5355 34.4645L71.7071 37.2929C71.8946 37.4804 72 37.7348 72 38H76ZM74.5355 34.4645C73.5979 33.5268 72.3261 33 71 33V37C71.2652 37 71.5196 37.1054 71.7071 37.2929L74.5355 34.4645ZM71 38L71 38L73.8284 35.1716C73.0783 34.4214 72.0609 34 71 34V38ZM71 38L71 38H75C75 36.9391 74.5786 35.9217 73.8284 35.1716L71 38ZM71 38L71 38L73.8284 40.8284C74.5786 40.0783 75 39.0609 75 38H71ZM71 38L71 38V42C72.0609 42 73.0783 41.5786 73.8284 40.8284L71 38ZM71 38L71 38L68.1716 40.8284C68.9217 41.5786 69.9391 42 71 42V38ZM71 38L71 38L67 38C67 39.0609 67.4214 40.0783 68.1716 40.8284L71 38ZM71 38L71 38L68.1716 35.1716C67.4214 35.9217 67 36.9391 67 38H71ZM71 38L71 38V34C69.9391 34 68.9217 34.4214 68.1716 35.1716L71 38ZM71 35C70.2043 35 69.4413 35.3161 68.8787 35.8787L71.7071 38.7071C71.5196 38.8946 71.2652 39 71 39V35ZM68.8787 35.8787C68.3161 36.4413 68 37.2043 68 38H72C72 38.2652 71.8946 38.5196 71.7071 38.7071L68.8787 35.8787ZM68 38C68 38.7957 68.3161 39.5587 68.8787 40.1213L71.7071 37.2929C71.8946 37.4804 72 37.7348 72 38H68ZM68.8787 40.1213C69.4413 40.6839 70.2043 41 71 41V37C71.2652 37 71.5196 37.1054 71.7071 37.2929L68.8787 40.1213ZM71 41C71.7957 41 72.5587 40.6839 73.1213 40.1213L70.2929 37.2929C70.4804 37.1054 70.7348 37 71 37V41ZM73.1213 40.1213C73.6839 39.5587 74 38.7957 74 38H70C70 37.7348 70.1054 37.4804 70.2929 37.2929L73.1213 40.1213ZM74 38C74 37.2043 73.6839 36.4413 73.1213 35.8787L70.2929 38.7071C70.1054 38.5196 70 38.2652 70 38H74ZM73.1213 35.8787C72.5587 35.3161 71.7957 35 71 35V39C70.7348 39 70.4804 38.8946 70.2929 38.7071L73.1213 35.8787Z" fill="url(#paint7_linear_162_13)" mask="url(#path-9-inside-2_162_13)"/>
</g>
<g filter="url(#filter7_d_162_13)">
<mask id="path-11-inside-3_162_13" fill="white">
<path d="M214.666 41.3999H217.266V40.5332H214.666V41.3999Z"/>
</mask>
<path d="M214.666 41.3999H217.266V40.5332H214.666V41.3999Z" fill="#FF9900"/>
<path d="M214.666 41.3999H213.666V42.3999H214.666V41.3999ZM217.266 41.3999V42.3999H218.266V41.3999H217.266ZM217.266 40.5332H218.266V39.5332H217.266V40.5332ZM214.666 40.5332V39.5332H213.666V40.5332H214.666ZM214.666 42.3999H217.266V40.3999H214.666V42.3999ZM218.266 41.3999V40.5332H216.266V41.3999H218.266ZM217.266 39.5332H214.666V41.5332H217.266V39.5332ZM213.666 40.5332V41.3999H215.666V40.5332H213.666Z" fill="url(#paint8_linear_162_13)" mask="url(#path-11-inside-3_162_13)"/>
</g>
<g filter="url(#filter8_d_162_13)">
<path fill-rule="evenodd" clip-rule="evenodd" d="M214.233 31C213.889 31 213.558 31.137 213.314 31.3808C213.07 31.6246 212.933 31.9552 212.933 32.3V33.6H207.3C206.955 33.6 206.625 33.737 206.381 33.9808C206.137 34.2246 206 34.5552 206 34.9V40.1C206 40.4448 206.137 40.7754 206.381 41.0192C206.625 41.263 206.955 41.4 207.3 41.4H211.2V43.1333H209.467V44H217.7C218.045 44 218.375 43.863 218.619 43.6192C218.863 43.3754 219 43.0448 219 42.7V32.3C219 31.9552 218.863 31.6246 218.619 31.3808C218.375 31.137 218.045 31 217.7 31H214.233ZM213.007 43.1333H212.067V41.4H212.933V42.7C212.934 42.8525 212.958 42.997 213.007 43.1333ZM214.233 43.1333H217.7C217.815 43.1333 217.925 43.0877 218.006 43.0064C218.088 42.9251 218.133 42.8149 218.133 42.7V36.2H213.8V42.7C213.8 42.8149 213.846 42.9251 213.927 43.0064C214.008 43.0877 214.118 43.1333 214.233 43.1333ZM213.8 35.3333H218.133V32.3C218.133 32.1851 218.088 32.0749 218.006 31.9936C217.925 31.9123 217.815 31.8667 217.7 31.8667H214.233C214.118 31.8667 214.008 31.9123 213.927 31.9936C213.846 32.0749 213.8 32.1851 213.8 32.3V35.3333Z" fill="url(#paint9_linear_162_13)"/>
<path d="M212.933 34.1H213.3V35.3333V35.7V35.8333V36.2V40.9H212.933H212.067H211.7H211.567H211.2H207.3C207.088 40.9 206.884 40.8157 206.734 40.6657C206.584 40.5157 206.5 40.3122 206.5 40.1V34.9C206.5 34.6878 206.584 34.4843 206.734 34.3343C206.884 34.1843 207.088 34.1 207.3 34.1H212.933ZM213.753 43.5H213.668L213.64 43.4204C213.676 43.4498 213.713 43.4764 213.753 43.5ZM213.3 42.6986L213.007 42.6997V42.6333H212.933V41.9V41.4H212.567H212.433H212.067V41.9V42.6333V43.1333H212.486C212.5 43.1899 212.516 43.2458 212.536 43.301L213.007 43.1333V42.7H213.3V42.6986Z" stroke="url(#paint10_linear_162_13)"/>
</g>
<defs>
<filter id="filter0_d_162_13" x="62.7227" y="7.07422" width="193.391" height="25.2539" filterUnits="userSpaceOnUse" color-interpolation-filters="sRGB">
<feFlood flood-opacity="0" result="BackgroundImageFix"/>
<feColorMatrix in="SourceAlpha" type="matrix" values="0 0 0 0 0 0 0 0 0 0 0 0 0 0 0 0 0 0 127 0" result="hardAlpha"/>
<feOffset dy="4"/>
<feGaussianBlur stdDeviation="2"/>
<feComposite in2="hardAlpha" operator="out"/>
<feColorMatrix type="matrix" values="0 0 0 0 0 0 0 0 0 0 0 0 0 0 0 0 0 0 0.25 0"/>
<feBlend mode="normal" in2="BackgroundImageFix" result="effect1_dropShadow_162_13"/>
<feBlend mode="normal" in="SourceGraphic" in2="effect1_dropShadow_162_13" result="shape"/>
</filter>
<filter id="filter1_d_162_13" x="77.4688" y="34.9326" width="124.924" height="17.2725" filterUnits="userSpaceOnUse" color-interpolation-filters="sRGB">
<feFlood flood-opacity="0" result="BackgroundImageFix"/>
<feColorMatrix in="SourceAlpha" type="matrix" values="0 0 0 0 0 0 0 0 0 0 0 0 0 0 0 0 0 0 127 0" result="hardAlpha"/>
<feOffset dy="4"/>
<feGaussianBlur stdDeviation="2"/>
<feComposite in2="hardAlpha" operator="out"/>
<feColorMatrix type="matrix" values="0 0 0 0 0 0 0 0 0 0 0 0 0 0 0 0 0 0 0.25 0"/>
<feBlend mode="normal" in2="BackgroundImageFix" result="effect1_dropShadow_162_13"/>
<feBlend mode="normal" in="SourceGraphic" in2="effect1_dropShadow_162_13" result="shape"/>
</filter>
<filter id="filter2_d_162_13" x="0" y="0" width="56" height="56" filterUnits="userSpaceOnUse" color-interpolation-filters="sRGB">
<feFlood flood-opacity="0" result="BackgroundImageFix"/>
<feColorMatrix in="SourceAlpha" type="matrix" values="0 0 0 0 0 0 0 0 0 0 0 0 0 0 0 0 0 0 127 0" result="hardAlpha"/>
<feOffset dy="4"/>
<feGaussianBlur stdDeviation="2"/>
<feComposite in2="hardAlpha" operator="out"/>
<feColorMatrix type="matrix" values="0 0 0 0 0 0 0 0 0 0 0 0 0 0 0 0 0 0 0.25 0"/>
<feBlend mode="normal" in2="BackgroundImageFix" result="effect1_dropShadow_162_13"/>
<feBlend mode="normal" in="SourceGraphic" in2="effect1_dropShadow_162_13" result="shape"/>
</filter>
<filter id="filter3_d_162_13" x="0" y="0" width="56" height="56" filterUnits="userSpaceOnUse" color-interpolation-filters="sRGB">
<feFlood flood-opacity="0" result="BackgroundImageFix"/>
<feColorMatrix in="SourceAlpha" type="matrix" values="0 0 0 0 0 0 0 0 0 0 0 0 0 0 0 0 0 0 127 0" result="hardAlpha"/>
<feOffset dy="4"/>
<feGaussianBlur stdDeviation="2"/>
<feComposite in2="hardAlpha" operator="out"/>
<feColorMatrix type="matrix" values="0 0 0 0 0 0 0 0 0 0 0 0 0 0 0 0 0 0 0.25 0"/>
<feBlend mode="normal" in2="BackgroundImageFix" result="effect1_dropShadow_162_13"/>
<feBlend mode="normal" in="SourceGraphic" in2="effect1_dropShadow_162_13" result="shape"/>
</filter>
<filter id="filter4_d_162_13" x="20.9619" y="12.4556" width="13.7725" height="13.772" filterUnits="userSpaceOnUse" color-interpolation-filters="sRGB">
<feFlood flood-opacity="0" result="BackgroundImageFix"/>
<feColorMatrix in="SourceAlpha" type="matrix" values="0 0 0 0 0 0 0 0 0 0 0 0 0 0 0 0 0 0 127 0" result="hardAlpha"/>
<feOffset dy="4"/>
<feGaussianBlur stdDeviation="2"/>
<feComposite in2="hardAlpha" operator="out"/>
<feColorMatrix type="matrix" values="0 0 0 0 0 0 0 0 0 0 0 0 0 0 0 0 0 0 0.25 0"/>
<feBlend mode="normal" in2="BackgroundImageFix" result="effect1_dropShadow_162_13"/>
<feBlend mode="normal" in="SourceGraphic" in2="effect1_dropShadow_162_13" result="shape"/>
</filter>
<filter id="filter5_d_162_13" x="10.3291" y="2.43066" width="39.8984" height="52.9619" filterUnits="userSpaceOnUse" color-interpolation-filters="sRGB">
<feFlood flood-opacity="0" result="BackgroundImageFix"/>
<feColorMatrix in="SourceAlpha" type="matrix" values="0 0 0 0 0 0 0 0 0 0 0 0 0 0 0 0 0 0 127 0" result="hardAlpha"/>
<feOffset dy="4"/>
<feGaussianBlur stdDeviation="2"/>
<feComposite in2="hardAlpha" operator="out"/>
<feColorMatrix type="matrix" values="0 0 0 0 0 0 0 0 0 0 0 0 0 0 0 0 0 0 0.25 0"/>
<feBlend mode="normal" in2="BackgroundImageFix" result="effect1_dropShadow_162_13"/>
<feBlend mode="normal" in="SourceGraphic" in2="effect1_dropShadow_162_13" result="shape"/>
</filter>
<filter id="filter6_d_162_13" x="63" y="34" width="16" height="18" filterUnits="userSpaceOnUse" color-interpolation-filters="sRGB">
<feFlood flood-opacity="0" result="BackgroundImageFix"/>
<feColorMatrix in="SourceAlpha" type="matrix" values="0 0 0 0 0 0 0 0 0 0 0 0 0 0 0 0 0 0 127 0" result="hardAlpha"/>
<feOffset dy="4"/>
<feGaussianBlur stdDeviation="2"/>
<feComposite in2="hardAlpha" operator="out"/>
<feColorMatrix type="matrix" values="0 0 0 0 0 0 0 0 0 0 0 0 0 0 0 0 0 0 0.25 0"/>
<feBlend mode="normal" in2="BackgroundImageFix" result="effect1_dropShadow_162_13"/>
<feBlend mode="normal" in="SourceGraphic" in2="effect1_dropShadow_162_13" result="shape"/>
</filter>
<filter id="filter7_d_162_13" x="210.666" y="40.5332" width="10.5996" height="8.8667" filterUnits="userSpaceOnUse" color-interpolation-filters="sRGB">
<feFlood flood-opacity="0" result="BackgroundImageFix"/>
<feColorMatrix in="SourceAlpha" type="matrix" values="0 0 0 0 0 0 0 0 0 0 0 0 0 0 0 0 0 0 127 0" result="hardAlpha"/>
<feOffset dy="4"/>
<feGaussianBlur stdDeviation="2"/>
<feComposite in2="hardAlpha" operator="out"/>
<feColorMatrix type="matrix" values="0 0 0 0 0 0 0 0 0 0 0 0 0 0 0 0 0 0 0.25 0"/>
<feBlend mode="normal" in2="BackgroundImageFix" result="effect1_dropShadow_162_13"/>
<feBlend mode="normal" in="SourceGraphic" in2="effect1_dropShadow_162_13" result="shape"/>
</filter>
<filter id="filter8_d_162_13" x="202" y="31" width="21" height="21" filterUnits="userSpaceOnUse" color-interpolation-filters="sRGB">
<feFlood flood-opacity="0" result="BackgroundImageFix"/>
<feColorMatrix in="SourceAlpha" type="matrix" values="0 0 0 0 0 0 0 0 0 0 0 0 0 0 0 0 0 0 127 0" result="hardAlpha"/>
<feOffset dy="4"/>
<feGaussianBlur stdDeviation="2"/>
<feComposite in2="hardAlpha" operator="out"/>
<feColorMatrix type="matrix" values="0 0 0 0 0 0 0 0 0 0 0 0 0 0 0 0 0 0 0.25 0"/>
<feBlend mode="normal" in2="BackgroundImageFix" result="effect1_dropShadow_162_13"/>
<feBlend mode="normal" in="SourceGraphic" in2="effect1_dropShadow_162_13" result="shape"/>
</filter>
<linearGradient id="paint0_linear_162_13" x1="38.9" y1="30.0811" x2="45.6332" y2="-35.2652" gradientUnits="userSpaceOnUse">
<stop stop-color="#FF6A00"/>
<stop offset="0.629905" stop-color="#FFC933"/>
</linearGradient>
<linearGradient id="paint1_linear_162_13" x1="38.9" y1="30.0811" x2="45.6332" y2="-35.2652" gradientUnits="userSpaceOnUse">
<stop stop-color="#0C4DA1"/>
<stop offset="0.629905" stop-color="#2575EF"/>
</linearGradient>
<linearGradient id="paint2_linear_162_13" x1="64.7048" y1="47.1149" x2="67.8084" y2="12.0107" gradientUnits="userSpaceOnUse">
<stop stop-color="#0C4DA1"/>
<stop offset="0.629905" stop-color="#2575EF"/>
</linearGradient>
<linearGradient id="paint3_linear_162_13" x1="52" y1="-3.72973" x2="12.9189" y2="64.8649" gradientUnits="userSpaceOnUse">
<stop stop-color="#2575EF"/>
<stop offset="1" stop-color="#0C4DA1"/>
</linearGradient>
<linearGradient id="paint4_linear_162_13" x1="24.1648" y1="18.6567" x2="30.5465" y2="9.4812" gradientUnits="userSpaceOnUse">
<stop stop-color="#FF6A00"/>
<stop offset="0.629905" stop-color="#FFC933"/>
</linearGradient>
<linearGradient id="paint5_linear_162_13" x1="9.92404" y1="50.7345" x2="62.9367" y2="-3.34149" gradientUnits="userSpaceOnUse">
<stop stop-color="#0C4DA1"/>
<stop offset="0.629905" stop-color="#2575EF"/>
</linearGradient>
<linearGradient id="paint6_linear_162_13" x1="93.4561" y1="44.5462" x2="93.2166" y2="45.0709" gradientUnits="userSpaceOnUse">
<stop stop-color="#2575EF"/>
<stop offset="1" stop-color="#0C4DA1"/>
</linearGradient>
<linearGradient id="paint7_linear_162_13" x1="75" y1="33.223" x2="66.0556" y2="45.7823" gradientUnits="userSpaceOnUse">
<stop stop-color="#2575EF"/>
<stop offset="1" stop-color="#0C4DA1"/>
</linearGradient>
<linearGradient id="paint8_linear_162_13" x1="217.266" y1="40.4659" x2="216.965" y2="42.0493" gradientUnits="userSpaceOnUse">
<stop offset="0.49" stop-color="#2575EF"/>
<stop offset="1" stop-color="#0C4DA1"/>
</linearGradient>
<linearGradient id="paint9_linear_162_13" x1="206.342" y1="41.6053" x2="214.211" y2="35.4474" gradientUnits="userSpaceOnUse">
<stop stop-color="#FF9900"/>
<stop offset="1" stop-color="#FFC933"/>
</linearGradient>
<linearGradient id="paint10_linear_162_13" x1="219" y1="29.9899" x2="208.416" y2="48.5676" gradientUnits="userSpaceOnUse">
<stop offset="0.49" stop-color="#2575EF"/>
<stop offset="1" stop-color="#0C4DA1"/>
</linearGradient>
</defs>
</svg>
