<svg width="195" height="214" viewBox="0 0 195 214" fill="none" xmlns="http://www.w3.org/2000/svg">
<g filter="url(#filter0_d_162_35)">
<path d="M8.41406 183.551C8.30469 184.645 7.70312 185.237 6.60938 185.328C6.09896 185.328 5.65234 185.164 5.26953 184.836C4.90495 184.49 4.72266 184.061 4.72266 183.551V170.59C4.74089 170.079 4.93229 169.66 5.29688 169.332C5.66146 168.986 6.09896 168.812 6.60938 168.812H7.94922H11.3125H18.0664C18.1758 168.812 18.2852 168.822 18.3945 168.84H18.5586C19.8346 168.876 20.8828 169.168 21.7031 169.715C22.5234 170.262 23.1159 170.891 23.4805 171.602C23.8451 172.294 24.0273 172.996 24.0273 173.707C24.0273 174.436 23.8451 175.156 23.4805 175.867C23.1341 176.56 22.5417 177.18 21.7031 177.727C20.8828 178.273 19.8346 178.565 18.5586 178.602H13.7461C13.8919 179.513 14.1927 180.188 14.6484 180.625C15.0859 181.062 15.6419 181.281 16.3164 181.281H22.2227C22.7331 181.299 23.1523 181.491 23.4805 181.855C23.8268 182.22 24 182.658 24 183.168C23.9818 183.66 23.7995 184.079 23.4531 184.426C23.125 184.754 22.7148 184.927 22.2227 184.945H15.8242C14.4753 184.964 13.2539 184.435 12.1602 183.359C11.0664 182.284 10.401 181.008 10.1641 179.531C9.83594 177.891 9.67188 176.97 9.67188 176.77C9.67188 176.259 9.84505 175.831 10.1914 175.484C10.556 175.12 10.9935 174.938 11.5039 174.938H18.7227C19.069 174.919 19.3516 174.846 19.5703 174.719C19.8073 174.573 19.9805 174.418 20.0898 174.254C20.1992 174.072 20.2539 173.889 20.2539 173.707C20.2539 173.525 20.1992 173.352 20.0898 173.188C19.9805 173.005 19.8073 172.85 19.5703 172.723C19.3516 172.577 19.069 172.495 18.7227 172.477H11.3125H9.125C8.65104 172.495 8.41406 172.732 8.41406 173.188V183.551ZM33.1328 180.707C33.1328 180.197 33.306 179.768 33.6523 179.422C34.0169 179.057 34.4544 178.875 34.9648 178.875H39.1484L38.4375 176.852C38.1458 176.104 37.8542 175.402 37.5625 174.746C37.2891 174.072 36.9701 173.461 36.6055 172.914C36.2773 172.367 35.9036 172.076 35.4844 172.039C35.0469 172.076 34.6549 172.367 34.3086 172.914C33.9622 173.461 33.6432 174.072 33.3516 174.746C33.0781 175.402 32.7956 176.104 32.5039 176.852L29.9062 183.961C29.724 184.344 29.487 184.663 29.1953 184.918C28.9219 185.155 28.5026 185.273 27.9375 185.273C27.4089 185.273 26.9714 185.091 26.625 184.727C26.2969 184.362 26.151 183.924 26.1875 183.414C26.2057 183.177 26.2604 182.958 26.3516 182.758L29.3594 174.992C30.1979 172.951 31.0365 171.301 31.875 170.043C32.6953 168.803 33.8984 168.174 35.4844 168.156C37.0521 168.174 38.2461 168.803 39.0664 170.043C39.9049 171.264 40.7435 172.914 41.582 174.992L44.5898 182.758C44.681 182.958 44.7357 183.177 44.7539 183.414C44.7904 183.924 44.6354 184.362 44.2891 184.727C43.9609 185.091 43.5326 185.273 43.0039 185.273C42.4023 185.273 41.9557 185.155 41.6641 184.918C41.3906 184.663 41.1628 184.344 40.9805 183.961L40.4609 182.539H34.9648C34.4544 182.539 34.026 182.357 33.6797 181.992C33.3151 181.646 33.1328 181.217 33.1328 180.707ZM49.3203 168.375C49.8307 168.375 50.2682 168.548 50.6328 168.895C50.9974 169.223 51.1888 169.642 51.207 170.152V170.672C51.1888 171.419 51.2344 172.112 51.3438 172.75C51.4714 173.37 51.763 173.926 52.2188 174.418C52.6745 174.91 53.2487 175.174 53.9414 175.211H61.625V170.207C61.625 169.697 61.8073 169.277 62.1719 168.949C62.5547 168.603 63.0013 168.43 63.5117 168.43C64.6055 168.521 65.207 169.113 65.3164 170.207V176.551C65.3164 178.009 65.1159 179.385 64.7148 180.68C64.3503 181.828 63.7487 182.803 62.9102 183.605C62.0898 184.389 61.0417 184.818 59.7656 184.891H49.9219C49.4297 184.872 49.0104 184.699 48.6641 184.371C48.3359 184.025 48.1628 183.605 48.1445 183.113C48.1445 182.603 48.3086 182.165 48.6367 181.801C48.9831 181.436 49.4115 181.245 49.9219 181.227H58.8359C59.5286 181.19 60.1029 180.926 60.5586 180.434C60.9779 179.978 61.2604 179.458 61.4062 178.875H53.0117C51.7357 178.802 50.6784 178.374 49.8398 177.59C49.0195 176.788 48.4271 175.812 48.0625 174.664C47.7161 173.516 47.5339 172.294 47.5156 171V170.152C47.5339 169.66 47.7161 169.25 48.0625 168.922C48.4089 168.576 48.8281 168.393 49.3203 168.375ZM83.582 168.812C84.5117 168.831 85.3411 169.122 86.0703 169.688C86.7995 170.253 87.3828 170.927 87.8203 171.711C88.276 172.495 88.6133 173.324 88.832 174.199C89.0508 175.074 89.1602 175.967 89.1602 176.879C89.1602 178.082 88.9688 179.267 88.5859 180.434C88.2214 181.582 87.6107 182.603 86.7539 183.496C85.9154 184.389 84.8581 184.872 83.582 184.945H74.0391C72.763 184.891 71.6966 184.417 70.8398 183.523C69.9831 182.63 69.3724 181.6 69.0078 180.434C68.6615 179.267 68.4883 178.082 68.4883 176.879C68.4883 175.676 68.6706 174.5 69.0352 173.352C69.3997 172.185 70.0013 171.155 70.8398 170.262C71.6966 169.35 72.763 168.867 74.0391 168.812H74.5586H83.0625H83.582ZM82.6523 181.281C83.3451 181.245 83.9193 180.99 84.375 180.516C84.849 180.023 85.1862 179.458 85.3867 178.82C85.5872 178.182 85.6875 177.535 85.6875 176.879C85.6875 176.223 85.5781 175.585 85.3594 174.965C85.1589 174.327 84.8307 173.762 84.375 173.27C83.9193 172.777 83.3451 172.513 82.6523 172.477H74.8867C74.194 172.513 73.6198 172.777 73.1641 173.27C72.7083 173.762 72.3711 174.327 72.1523 174.965C71.9518 175.585 71.8516 176.223 71.8516 176.879C71.8516 177.535 71.9518 178.182 72.1523 178.82C72.3529 179.458 72.681 180.023 73.1367 180.516C73.6107 180.99 74.194 181.245 74.8867 181.281H82.6523ZM100.863 168.074C101.811 168.074 102.741 168.184 103.652 168.402C104.582 168.621 105.466 168.949 106.305 169.387C107.143 169.806 107.882 170.371 108.52 171.082C109.176 171.793 109.531 172.641 109.586 173.625V174.773V183.496C109.477 184.59 108.875 185.182 107.781 185.273C107.271 185.273 106.824 185.109 106.441 184.781C106.077 184.435 105.895 184.007 105.895 183.496V174.473C105.858 173.908 105.639 173.443 105.238 173.078C104.855 172.695 104.418 172.395 103.926 172.176C103.452 171.957 102.951 171.793 102.422 171.684C101.911 171.574 101.392 171.52 100.863 171.52C100.335 171.52 99.806 171.574 99.2773 171.684C98.7669 171.793 98.2656 171.957 97.7734 172.176C97.2995 172.395 96.862 172.695 96.4609 173.078C96.0781 173.443 95.8685 173.908 95.832 174.473V183.496C95.7409 184.59 95.1484 185.182 94.0547 185.273C93.5443 185.273 93.0977 185.109 92.7148 184.781C92.3503 184.435 92.168 184.007 92.168 183.496V174.773V173.625C92.2227 172.641 92.569 171.793 93.207 171.082C93.8451 170.371 94.5833 169.806 95.4219 169.387C96.2604 168.949 97.1354 168.621 98.0469 168.402C98.9766 168.184 99.9154 168.074 100.863 168.074ZM118.227 168.812H129.766C130.276 168.831 130.695 169.022 131.023 169.387C131.37 169.751 131.543 170.189 131.543 170.699C131.452 171.793 130.859 172.385 129.766 172.477H119.156C118.464 172.513 117.889 172.777 117.434 173.27C116.978 173.762 116.641 174.327 116.422 174.965C116.221 175.585 116.121 176.223 116.121 176.879C116.121 177.535 116.221 178.182 116.422 178.82C116.641 179.44 116.978 179.996 117.434 180.488C117.889 180.98 118.464 181.245 119.156 181.281H127.469C127.797 181.263 127.97 181.081 127.988 180.734V179.148C127.97 178.784 127.797 178.602 127.469 178.602H120.469C119.958 178.602 119.521 178.428 119.156 178.082C118.81 177.717 118.637 177.28 118.637 176.77C118.637 176.259 118.81 175.822 119.156 175.457C119.521 175.111 119.958 174.938 120.469 174.938H129.82C130.331 174.938 130.768 175.111 131.133 175.457C131.461 175.803 131.634 176.223 131.652 176.715V176.77V183.168C131.634 183.66 131.461 184.07 131.133 184.398C130.786 184.745 130.367 184.927 129.875 184.945H118.227C116.951 184.872 115.893 184.389 115.055 183.496C114.234 182.585 113.642 181.555 113.277 180.406C112.931 179.258 112.758 178.082 112.758 176.879C112.758 175.676 112.94 174.5 113.305 173.352C113.669 172.203 114.262 171.182 115.082 170.289C115.902 169.378 116.951 168.885 118.227 168.812Z" fill="url(#paint0_linear_162_35)"/>
<path d="M163.727 168.812C164.656 168.831 165.486 169.122 166.215 169.688C166.944 170.253 167.527 170.927 167.965 171.711C168.421 172.495 168.758 173.324 168.977 174.199C169.195 175.074 169.305 175.967 169.305 176.879C169.305 178.082 169.113 179.267 168.73 180.434C168.366 181.582 167.755 182.603 166.898 183.496C166.06 184.389 165.003 184.872 163.727 184.945H154.184C152.908 184.891 151.841 184.417 150.984 183.523C150.128 182.63 149.517 181.6 149.152 180.434C148.806 179.267 148.633 178.082 148.633 176.879C148.633 175.676 148.815 174.5 149.18 173.352C149.544 172.185 150.146 171.155 150.984 170.262C151.841 169.35 152.908 168.867 154.184 168.812H154.703H163.207H163.727ZM162.797 181.281C163.49 181.245 164.064 180.99 164.52 180.516C164.993 180.023 165.331 179.458 165.531 178.82C165.732 178.182 165.832 177.535 165.832 176.879C165.832 176.223 165.723 175.585 165.504 174.965C165.303 174.327 164.975 173.762 164.52 173.27C164.064 172.777 163.49 172.513 162.797 172.477H155.031C154.339 172.513 153.764 172.777 153.309 173.27C152.853 173.762 152.516 174.327 152.297 174.965C152.096 175.585 151.996 176.223 151.996 176.879C151.996 177.535 152.096 178.182 152.297 178.82C152.497 179.458 152.826 180.023 153.281 180.516C153.755 180.99 154.339 181.245 155.031 181.281H162.797ZM178.438 180.707C178.438 180.197 178.611 179.768 178.957 179.422C179.322 179.057 179.759 178.875 180.27 178.875H184.453L183.742 176.852C183.451 176.104 183.159 175.402 182.867 174.746C182.594 174.072 182.275 173.461 181.91 172.914C181.582 172.367 181.208 172.076 180.789 172.039C180.352 172.076 179.96 172.367 179.613 172.914C179.267 173.461 178.948 174.072 178.656 174.746C178.383 175.402 178.1 176.104 177.809 176.852L175.211 183.961C175.029 184.344 174.792 184.663 174.5 184.918C174.227 185.155 173.807 185.273 173.242 185.273C172.714 185.273 172.276 185.091 171.93 184.727C171.602 184.362 171.456 183.924 171.492 183.414C171.51 183.177 171.565 182.958 171.656 182.758L174.664 174.992C175.503 172.951 176.341 171.301 177.18 170.043C178 168.803 179.203 168.174 180.789 168.156C182.357 168.174 183.551 168.803 184.371 170.043C185.21 171.264 186.048 172.914 186.887 174.992L189.895 182.758C189.986 182.958 190.04 183.177 190.059 183.414C190.095 183.924 189.94 184.362 189.594 184.727C189.266 185.091 188.837 185.273 188.309 185.273C187.707 185.273 187.26 185.155 186.969 184.918C186.695 184.663 186.467 184.344 186.285 183.961L185.766 182.539H180.27C179.759 182.539 179.331 182.357 178.984 181.992C178.62 181.646 178.438 181.217 178.438 180.707Z" fill="url(#paint1_linear_162_35)"/>
</g>
<g filter="url(#filter1_d_162_35)">
<path d="M43.2188 202.7C43.2188 202.427 43.3115 202.197 43.4971 202.012C43.6924 201.816 43.9268 201.719 44.2002 201.719H46.4414L46.0605 200.635C45.9043 200.234 45.748 199.858 45.5918 199.507C45.4453 199.146 45.2744 198.818 45.0791 198.525C44.9033 198.232 44.7031 198.076 44.4785 198.057C44.2441 198.076 44.0342 198.232 43.8486 198.525C43.6631 198.818 43.4922 199.146 43.3359 199.507C43.1895 199.858 43.0381 200.234 42.8818 200.635L41.4902 204.443C41.3926 204.648 41.2656 204.819 41.1094 204.956C40.9629 205.083 40.7383 205.146 40.4355 205.146C40.1523 205.146 39.918 205.049 39.7324 204.854C39.5566 204.658 39.4785 204.424 39.498 204.15C39.5078 204.023 39.5371 203.906 39.5859 203.799L41.1973 199.639C41.6465 198.545 42.0957 197.661 42.5449 196.987C42.9844 196.323 43.6289 195.986 44.4785 195.977C45.3184 195.986 45.958 196.323 46.3975 196.987C46.8467 197.642 47.2959 198.525 47.7451 199.639L49.3564 203.799C49.4053 203.906 49.4346 204.023 49.4443 204.15C49.4639 204.424 49.3809 204.658 49.1953 204.854C49.0195 205.049 48.79 205.146 48.5068 205.146C48.1846 205.146 47.9453 205.083 47.7891 204.956C47.6426 204.819 47.5205 204.648 47.4229 204.443L47.1445 203.682H44.2002C43.9268 203.682 43.6973 203.584 43.5117 203.389C43.3164 203.203 43.2188 202.974 43.2188 202.7ZM55.582 195.933C56.0898 195.933 56.5879 195.991 57.0762 196.108C57.5742 196.226 58.0479 196.401 58.4971 196.636C58.9463 196.86 59.3418 197.163 59.6836 197.544C60.0352 197.925 60.2256 198.379 60.2549 198.906V199.521V204.194C60.1963 204.78 59.874 205.098 59.2881 205.146C59.0146 205.146 58.7754 205.059 58.5703 204.883C58.375 204.697 58.2773 204.468 58.2773 204.194V199.36C58.2578 199.058 58.1406 198.809 57.9258 198.613C57.7207 198.408 57.4863 198.247 57.2227 198.13C56.9688 198.013 56.7002 197.925 56.417 197.866C56.1436 197.808 55.8652 197.778 55.582 197.778C55.2988 197.778 55.0156 197.808 54.7324 197.866C54.459 197.925 54.1904 198.013 53.9268 198.13C53.6729 198.247 53.4385 198.408 53.2236 198.613C53.0186 198.809 52.9062 199.058 52.8867 199.36V204.194C52.8379 204.78 52.5205 205.098 51.9346 205.146C51.6611 205.146 51.4219 205.059 51.2168 204.883C51.0215 204.697 50.9238 204.468 50.9238 204.194V199.521V198.906C50.9531 198.379 51.1387 197.925 51.4805 197.544C51.8223 197.163 52.2178 196.86 52.667 196.636C53.1162 196.401 53.585 196.226 54.0732 196.108C54.5713 195.991 55.0742 195.933 55.582 195.933ZM68.458 196.328C69.1416 196.367 69.7031 196.631 70.1426 197.119C70.582 197.598 70.8994 198.145 71.0947 198.76C71.29 199.375 71.3877 200.005 71.3877 200.649C71.3877 201.294 71.29 201.924 71.0947 202.539C70.9092 203.154 70.5918 203.706 70.1426 204.194C69.7031 204.673 69.1416 204.932 68.458 204.971H63.0674C62.8037 204.961 62.5791 204.868 62.3936 204.692C62.2178 204.507 62.125 204.282 62.1152 204.019V200.386C62.125 200.112 62.2275 199.888 62.4229 199.712C62.6182 199.526 62.8525 199.434 63.126 199.434C63.3896 199.443 63.6143 199.541 63.7998 199.727C63.9854 199.902 64.083 200.122 64.0928 200.386V202.612C64.0928 202.876 64.2295 203.008 64.5029 203.008H67.96C68.3311 202.988 68.6387 202.847 68.8828 202.583C69.127 202.319 69.3027 202.021 69.4102 201.689C69.5273 201.348 69.5859 201.001 69.5859 200.649C69.5859 200.298 69.5273 199.956 69.4102 199.624C69.3027 199.282 69.127 198.979 68.8828 198.716C68.6387 198.452 68.3311 198.311 67.96 198.291H63.0674C62.4814 198.242 62.1641 197.925 62.1152 197.339C62.1152 197.065 62.2031 196.831 62.3789 196.636C62.5645 196.44 62.7939 196.338 63.0674 196.328H68.458ZM89.9619 197.31C89.9619 197.583 89.8643 197.812 89.6689 197.998C89.4834 198.193 89.2539 198.291 88.9805 198.291H83.1211C82.9355 198.301 82.7793 198.345 82.6523 198.423C82.5352 198.491 82.4473 198.574 82.3887 198.672C82.3301 198.76 82.3008 198.853 82.3008 198.95C82.3008 199.048 82.3301 199.146 82.3887 199.243C82.4473 199.331 82.5352 199.414 82.6523 199.492C82.7793 199.561 82.9355 199.6 83.1211 199.609H87.2812C87.9648 199.629 88.5264 199.79 88.9658 200.093C89.415 200.386 89.7324 200.728 89.918 201.118C90.1133 201.499 90.2109 201.89 90.2109 202.29C90.2109 202.681 90.1133 203.071 89.918 203.462C89.7227 203.843 89.4053 204.185 88.9658 204.487C88.5264 204.78 87.9648 204.927 87.2812 204.927H87.1934C87.1348 204.937 87.0762 204.941 87.0176 204.941H81.4805C81.207 204.941 80.9727 204.849 80.7773 204.663C80.5918 204.468 80.499 204.233 80.499 203.96C80.499 203.687 80.5967 203.457 80.792 203.271C80.9775 203.076 81.207 202.979 81.4805 202.979H87.3691C87.5547 202.988 87.7061 202.954 87.8232 202.876C87.9502 202.798 88.043 202.71 88.1016 202.612C88.1602 202.505 88.1895 202.397 88.1895 202.29C88.1895 202.222 88.1602 202.129 88.1016 202.012C88.043 201.885 87.9502 201.782 87.8232 201.704C87.7061 201.626 87.5547 201.582 87.3691 201.572H83.209C82.5254 201.553 81.959 201.396 81.5098 201.104C81.0703 200.811 80.7529 200.479 80.5576 200.107C80.3721 199.727 80.2793 199.341 80.2793 198.95C80.2793 198.569 80.377 198.193 80.5723 197.822C80.7676 197.441 81.085 197.104 81.5244 196.812C81.9639 196.519 82.5254 196.362 83.209 196.343H83.2969C83.3555 196.333 83.4141 196.328 83.4727 196.328H88.9805C89.2539 196.328 89.4834 196.426 89.6689 196.621C89.8643 196.807 89.9619 197.036 89.9619 197.31ZM94.5762 196.328H95.25H100.23C100.504 196.338 100.729 196.44 100.904 196.636C101.09 196.831 101.183 197.065 101.183 197.339C101.134 197.925 100.816 198.242 100.23 198.291H95.0742C94.7031 198.311 94.3955 198.452 94.1514 198.716C93.9072 198.979 93.7266 199.282 93.6094 199.624C93.502 199.956 93.4482 200.298 93.4482 200.649C93.4482 201.001 93.502 201.348 93.6094 201.689C93.7266 202.021 93.9072 202.319 94.1514 202.583C94.3955 202.847 94.7031 202.988 95.0742 203.008H100.23C100.504 203.018 100.729 203.12 100.904 203.315C101.09 203.511 101.183 203.745 101.183 204.019C101.173 204.282 101.075 204.507 100.89 204.692C100.714 204.868 100.494 204.961 100.23 204.971H94.8545H94.5762C93.8926 204.932 93.3262 204.673 92.877 204.194C92.4375 203.706 92.1201 203.154 91.9248 202.539C91.7393 201.924 91.6465 201.294 91.6465 200.649C91.6465 200.005 91.7441 199.375 91.9395 198.76C92.1348 198.145 92.4521 197.598 92.8916 197.119C93.3311 196.631 93.8926 196.367 94.5762 196.328ZM101.153 200.591C101.153 200.864 101.056 201.094 100.86 201.279C100.675 201.475 100.445 201.572 100.172 201.572H95.748C95.4746 201.572 95.2402 201.479 95.0449 201.294C94.8594 201.099 94.7666 200.864 94.7666 200.591C94.7666 200.317 94.8594 200.083 95.0449 199.888C95.2402 199.702 95.4746 199.609 95.748 199.609H100.172C100.445 199.609 100.675 199.707 100.86 199.902C101.056 200.088 101.153 200.317 101.153 200.591ZM104.625 204.224C104.566 204.81 104.244 205.127 103.658 205.176C103.385 205.176 103.146 205.088 102.94 204.912C102.745 204.727 102.647 204.497 102.647 204.224V197.28C102.657 197.007 102.76 196.782 102.955 196.606C103.15 196.421 103.385 196.328 103.658 196.328H104.376H106.178H109.796C109.854 196.328 109.913 196.333 109.972 196.343H110.06C110.743 196.362 111.305 196.519 111.744 196.812C112.184 197.104 112.501 197.441 112.696 197.822C112.892 198.193 112.989 198.569 112.989 198.95C112.989 199.341 112.892 199.727 112.696 200.107C112.511 200.479 112.193 200.811 111.744 201.104C111.305 201.396 110.743 201.553 110.06 201.572H107.481C107.56 202.061 107.721 202.422 107.965 202.656C108.199 202.891 108.497 203.008 108.858 203.008H112.022C112.296 203.018 112.521 203.12 112.696 203.315C112.882 203.511 112.975 203.745 112.975 204.019C112.965 204.282 112.867 204.507 112.682 204.692C112.506 204.868 112.286 204.961 112.022 204.971H108.595C107.872 204.98 107.218 204.697 106.632 204.121C106.046 203.545 105.689 202.861 105.562 202.07C105.387 201.191 105.299 200.698 105.299 200.591C105.299 200.317 105.392 200.088 105.577 199.902C105.772 199.707 106.007 199.609 106.28 199.609H110.147C110.333 199.6 110.484 199.561 110.602 199.492C110.729 199.414 110.821 199.331 110.88 199.243C110.938 199.146 110.968 199.048 110.968 198.95C110.968 198.853 110.938 198.76 110.88 198.672C110.821 198.574 110.729 198.491 110.602 198.423C110.484 198.345 110.333 198.301 110.147 198.291H106.178H105.006C104.752 198.301 104.625 198.428 104.625 198.672V204.224ZM117.369 204.194C116.92 203.521 116.471 202.637 116.021 201.543L114.41 197.383C114.361 197.275 114.332 197.158 114.322 197.031C114.303 196.758 114.381 196.523 114.557 196.328C114.742 196.133 114.977 196.035 115.26 196.035C115.562 196.035 115.787 196.104 115.934 196.24C116.09 196.367 116.217 196.533 116.314 196.738L117.706 200.547C117.862 200.947 118.014 201.328 118.16 201.689C118.316 202.041 118.487 202.363 118.673 202.656C118.858 202.949 119.068 203.105 119.303 203.125C119.527 203.105 119.728 202.949 119.903 202.656C120.099 202.363 120.27 202.041 120.416 201.689C120.572 201.328 120.729 200.947 120.885 200.547L122.247 196.738C122.345 196.533 122.467 196.367 122.613 196.24C122.77 196.104 123.009 196.035 123.331 196.035C123.614 196.035 123.844 196.133 124.02 196.328C124.205 196.523 124.288 196.758 124.269 197.031C124.259 197.158 124.229 197.275 124.181 197.383L122.569 201.543C122.12 202.656 121.671 203.545 121.222 204.209C120.782 204.863 120.143 205.195 119.303 205.205C118.453 205.195 117.809 204.858 117.369 204.194ZM125.47 203.989C125.47 203.716 125.562 203.486 125.748 203.301C125.943 203.105 126.178 203.008 126.451 203.008H129.264V198.291H126.451C126.178 198.291 125.948 198.193 125.763 197.998C125.567 197.812 125.47 197.583 125.47 197.31C125.47 197.036 125.562 196.807 125.748 196.621C125.943 196.426 126.178 196.328 126.451 196.328H134.039C134.312 196.328 134.547 196.421 134.742 196.606C134.928 196.802 135.021 197.036 135.021 197.31C135.021 197.583 134.923 197.817 134.728 198.013C134.542 198.198 134.312 198.291 134.039 198.291H131.241V203.008H134.039C134.312 203.008 134.547 203.101 134.742 203.286C134.928 203.481 135.021 203.716 135.021 203.989C135.021 204.263 134.923 204.497 134.728 204.692C134.542 204.878 134.312 204.971 134.039 204.971H126.451C126.178 204.971 125.948 204.873 125.763 204.678C125.567 204.492 125.47 204.263 125.47 203.989ZM139.869 198.291C139.498 198.311 139.186 198.452 138.932 198.716C138.688 198.979 138.512 199.282 138.404 199.624C138.297 199.956 138.243 200.298 138.243 200.649C138.243 201.001 138.292 201.348 138.39 201.689C138.497 202.031 138.678 202.334 138.932 202.598C139.186 202.852 139.498 202.988 139.869 203.008H144.703C145.318 203.066 145.655 203.403 145.714 204.019C145.704 204.292 145.602 204.521 145.406 204.707C145.211 204.883 144.977 204.971 144.703 204.971H140.03H139.356C138.673 204.932 138.111 204.673 137.672 204.194C137.232 203.706 136.915 203.154 136.72 202.539C136.534 201.924 136.441 201.294 136.441 200.649C136.441 200.171 136.495 199.697 136.603 199.229C136.71 198.76 136.876 198.315 137.101 197.896C137.335 197.466 137.643 197.1 138.023 196.797C138.414 196.494 138.858 196.338 139.356 196.328H139.635H144.703C145.318 196.387 145.655 196.724 145.714 197.339C145.714 197.612 145.611 197.842 145.406 198.027C145.211 198.203 144.977 198.291 144.703 198.291H139.869ZM149.786 196.328H150.46H155.44C155.714 196.338 155.938 196.44 156.114 196.636C156.3 196.831 156.393 197.065 156.393 197.339C156.344 197.925 156.026 198.242 155.44 198.291H150.284C149.913 198.311 149.605 198.452 149.361 198.716C149.117 198.979 148.937 199.282 148.819 199.624C148.712 199.956 148.658 200.298 148.658 200.649C148.658 201.001 148.712 201.348 148.819 201.689C148.937 202.021 149.117 202.319 149.361 202.583C149.605 202.847 149.913 202.988 150.284 203.008H155.44C155.714 203.018 155.938 203.12 156.114 203.315C156.3 203.511 156.393 203.745 156.393 204.019C156.383 204.282 156.285 204.507 156.1 204.692C155.924 204.868 155.704 204.961 155.44 204.971H150.064H149.786C149.103 204.932 148.536 204.673 148.087 204.194C147.647 203.706 147.33 203.154 147.135 202.539C146.949 201.924 146.856 201.294 146.856 200.649C146.856 200.005 146.954 199.375 147.149 198.76C147.345 198.145 147.662 197.598 148.102 197.119C148.541 196.631 149.103 196.367 149.786 196.328ZM156.363 200.591C156.363 200.864 156.266 201.094 156.07 201.279C155.885 201.475 155.655 201.572 155.382 201.572H150.958C150.685 201.572 150.45 201.479 150.255 201.294C150.069 201.099 149.977 200.864 149.977 200.591C149.977 200.317 150.069 200.083 150.255 199.888C150.45 199.702 150.685 199.609 150.958 199.609H155.382C155.655 199.609 155.885 199.707 156.07 199.902C156.266 200.088 156.363 200.317 156.363 200.591Z" fill="url(#paint2_linear_162_35)"/>
</g>
<g filter="url(#filter2_d_162_35)">
<circle cx="98" cy="79" r="79" fill="white"/>
<circle cx="98" cy="79" r="71" stroke="url(#paint3_linear_162_35)" stroke-width="16"/>
</g>
<g filter="url(#filter3_d_162_35)">
<path d="M97.4999 41C95.621 41 93.7844 41.5572 92.2221 42.601C90.6599 43.6449 89.4421 45.1286 88.7231 46.8645C88.0041 48.6004 87.816 50.5105 88.1826 52.3534C88.5491 54.1962 89.4539 55.8889 90.7825 57.2175C92.111 58.5461 93.8037 59.4509 95.6465 59.8175C97.4893 60.184 99.3996 59.9959 101.135 59.2769C102.871 58.5578 104.355 57.3402 105.399 55.7779C106.443 54.2156 107 52.3789 107 50.5C107 49.2524 106.754 48.0171 106.277 46.8645C105.799 45.7119 105.1 44.6646 104.217 43.7825C103.335 42.9003 102.288 42.2006 101.135 41.7231C99.9829 41.2457 98.7475 41 97.4999 41Z" fill="url(#paint4_linear_162_35)"/>
</g>
<g filter="url(#filter4_d_162_35)">
<path d="M127.413 106.202C125.366 102.676 122.87 99.4287 119.987 96.5395C117.565 94.2425 114.902 92.2115 112.044 90.4814C115.496 89.2338 118.77 87.5435 121.783 85.4531C128.948 80.4807 134.412 73.445 137.442 65.2912C140.472 57.1373 140.922 48.2559 138.732 39.8401C136.542 31.4242 131.816 23.877 125.19 18.2123C118.564 12.5476 110.355 9.03679 101.665 8.15145C100.235 8.15145 98.7739 8 97.313 8H95.7304C87.0598 8.33007 78.6955 11.2776 71.7479 16.4511L70.3783 14.2702L69.2523 12.4527L66.5131 8.03029H53V22.7212V156H70.4088V95.4793H87.4827C91.7861 95.3717 96.0242 96.5422 99.6566 98.8416C103.065 101.083 107.113 106.111 111.83 113.987L117.552 123.407H84.3783V135.039H124.613L137.274 155.909H158L127.413 106.202ZM97.2521 77.3958C90.1328 77.3958 83.3052 74.5811 78.271 69.5708C73.2369 64.5605 70.4088 57.7651 70.4088 50.6795C70.4088 43.5939 73.2369 36.7985 78.271 31.7882C83.3052 26.7779 90.1328 23.9632 97.2521 23.9632C97.9825 23.9632 98.6521 23.9632 99.3521 23.9632H100.631L101.939 24.1449L102.913 24.3266C109.385 25.7223 115.111 29.4498 118.989 34.7927C122.867 40.1355 124.623 46.7165 123.921 53.2704C123.219 59.8244 120.107 65.8886 115.184 70.2973C110.261 74.7059 103.875 77.3901 97.2521 77.3958Z" fill="url(#paint5_linear_162_35)"/>
</g>
<defs>
<filter id="filter0_d_162_35" x="0.722656" y="168.074" width="193.391" height="25.2539" filterUnits="userSpaceOnUse" color-interpolation-filters="sRGB">
<feFlood flood-opacity="0" result="BackgroundImageFix"/>
<feColorMatrix in="SourceAlpha" type="matrix" values="0 0 0 0 0 0 0 0 0 0 0 0 0 0 0 0 0 0 127 0" result="hardAlpha"/>
<feOffset dy="4"/>
<feGaussianBlur stdDeviation="2"/>
<feComposite in2="hardAlpha" operator="out"/>
<feColorMatrix type="matrix" values="0 0 0 0 0 0 0 0 0 0 0 0 0 0 0 0 0 0 0.25 0"/>
<feBlend mode="normal" in2="BackgroundImageFix" result="effect1_dropShadow_162_35"/>
<feBlend mode="normal" in="SourceGraphic" in2="effect1_dropShadow_162_35" result="shape"/>
</filter>
<filter id="filter1_d_162_35" x="35.4688" y="195.933" width="124.924" height="17.2725" filterUnits="userSpaceOnUse" color-interpolation-filters="sRGB">
<feFlood flood-opacity="0" result="BackgroundImageFix"/>
<feColorMatrix in="SourceAlpha" type="matrix" values="0 0 0 0 0 0 0 0 0 0 0 0 0 0 0 0 0 0 127 0" result="hardAlpha"/>
<feOffset dy="4"/>
<feGaussianBlur stdDeviation="2"/>
<feComposite in2="hardAlpha" operator="out"/>
<feColorMatrix type="matrix" values="0 0 0 0 0 0 0 0 0 0 0 0 0 0 0 0 0 0 0.25 0"/>
<feBlend mode="normal" in2="BackgroundImageFix" result="effect1_dropShadow_162_35"/>
<feBlend mode="normal" in="SourceGraphic" in2="effect1_dropShadow_162_35" result="shape"/>
</filter>
<filter id="filter2_d_162_35" x="15" y="0" width="166" height="166" filterUnits="userSpaceOnUse" color-interpolation-filters="sRGB">
<feFlood flood-opacity="0" result="BackgroundImageFix"/>
<feColorMatrix in="SourceAlpha" type="matrix" values="0 0 0 0 0 0 0 0 0 0 0 0 0 0 0 0 0 0 127 0" result="hardAlpha"/>
<feOffset dy="4"/>
<feGaussianBlur stdDeviation="2"/>
<feComposite in2="hardAlpha" operator="out"/>
<feColorMatrix type="matrix" values="0 0 0 0 0 0 0 0 0 0 0 0 0 0 0 0 0 0 0.25 0"/>
<feBlend mode="normal" in2="BackgroundImageFix" result="effect1_dropShadow_162_35"/>
<feBlend mode="normal" in="SourceGraphic" in2="effect1_dropShadow_162_35" result="shape"/>
</filter>
<filter id="filter3_d_162_35" x="84" y="41" width="27" height="27" filterUnits="userSpaceOnUse" color-interpolation-filters="sRGB">
<feFlood flood-opacity="0" result="BackgroundImageFix"/>
<feColorMatrix in="SourceAlpha" type="matrix" values="0 0 0 0 0 0 0 0 0 0 0 0 0 0 0 0 0 0 127 0" result="hardAlpha"/>
<feOffset dy="4"/>
<feGaussianBlur stdDeviation="2"/>
<feComposite in2="hardAlpha" operator="out"/>
<feColorMatrix type="matrix" values="0 0 0 0 0 0 0 0 0 0 0 0 0 0 0 0 0 0 0.25 0"/>
<feBlend mode="normal" in2="BackgroundImageFix" result="effect1_dropShadow_162_35"/>
<feBlend mode="normal" in="SourceGraphic" in2="effect1_dropShadow_162_35" result="shape"/>
</filter>
<filter id="filter4_d_162_35" x="49" y="8" width="113" height="156" filterUnits="userSpaceOnUse" color-interpolation-filters="sRGB">
<feFlood flood-opacity="0" result="BackgroundImageFix"/>
<feColorMatrix in="SourceAlpha" type="matrix" values="0 0 0 0 0 0 0 0 0 0 0 0 0 0 0 0 0 0 127 0" result="hardAlpha"/>
<feOffset dy="4"/>
<feGaussianBlur stdDeviation="2"/>
<feComposite in2="hardAlpha" operator="out"/>
<feColorMatrix type="matrix" values="0 0 0 0 0 0 0 0 0 0 0 0 0 0 0 0 0 0 0.25 0"/>
<feBlend mode="normal" in2="BackgroundImageFix" result="effect1_dropShadow_162_35"/>
<feBlend mode="normal" in="SourceGraphic" in2="effect1_dropShadow_162_35" result="shape"/>
</filter>
<linearGradient id="paint0_linear_162_35" x1="-23.1" y1="191.081" x2="-16.3668" y2="125.735" gradientUnits="userSpaceOnUse">
<stop stop-color="#FF6A00"/>
<stop offset="0.629905" stop-color="#FFC933"/>
</linearGradient>
<linearGradient id="paint1_linear_162_35" x1="-23.1" y1="191.081" x2="-16.3668" y2="125.735" gradientUnits="userSpaceOnUse">
<stop stop-color="#0C4DA1"/>
<stop offset="0.629905" stop-color="#2575EF"/>
</linearGradient>
<linearGradient id="paint2_linear_162_35" x1="22.7048" y1="208.115" x2="25.8084" y2="173.011" gradientUnits="userSpaceOnUse">
<stop stop-color="#0C4DA1"/>
<stop offset="0.629905" stop-color="#2575EF"/>
</linearGradient>
<linearGradient id="paint3_linear_162_35" x1="177" y1="-12.277" x2="48.3581" y2="213.514" gradientUnits="userSpaceOnUse">
<stop stop-color="#2575EF"/>
<stop offset="1" stop-color="#0C4DA1"/>
</linearGradient>
<linearGradient id="paint4_linear_162_35" x1="85.3762" y1="61.4122" x2="106.383" y2="31.2094" gradientUnits="userSpaceOnUse">
<stop stop-color="#FF6A00"/>
<stop offset="0.629905" stop-color="#FFC933"/>
</linearGradient>
<linearGradient id="paint5_linear_162_35" x1="38.5" y1="167" x2="213" y2="-11" gradientUnits="userSpaceOnUse">
<stop stop-color="#0C4DA1"/>
<stop offset="0.629905" stop-color="#2575EF"/>
</linearGradient>
</defs>
</svg>
