<svg width="2085" height="2308" viewBox="0 0 2085 2308" fill="none" xmlns="http://www.w3.org/2000/svg">
<g filter="url(#filter0_d_176_70)">
<path fill-rule="evenodd" clip-rule="evenodd" d="M1046.32 1591.11C1441.12 1591.11 1761.17 1275.06 1761.17 885.196C1761.17 495.33 1441.12 179.28 1046.32 179.28C651.515 179.28 331.465 495.33 331.465 885.196C331.465 1275.06 651.515 1591.11 1046.32 1591.11ZM1046.32 1770.39C1541.38 1770.39 1942.72 1374.08 1942.72 885.196C1942.72 396.316 1541.38 0 1046.32 0C551.247 0 149.915 396.316 149.915 885.196C149.915 1374.08 551.247 1770.39 1046.32 1770.39Z" fill="url(#paint0_linear_176_70)"/>
<path d="M1040.64 459.407C1019.32 459.407 998.483 465.65 980.756 477.347C963.03 489.043 949.212 505.668 941.054 525.119C932.895 544.57 930.761 565.973 934.92 586.621C939.079 607.27 949.345 626.237 964.421 641.124C979.496 656.011 998.702 666.149 1019.61 670.257C1040.52 674.364 1062.2 672.256 1081.89 664.199C1101.59 656.143 1118.43 642.499 1130.27 624.994C1142.12 607.488 1148.44 586.908 1148.44 565.854C1148.44 551.876 1145.65 538.034 1140.23 525.119C1134.81 512.204 1126.87 500.469 1116.86 490.585C1106.86 480.7 1094.97 472.859 1081.89 467.51C1068.82 462.16 1054.8 459.407 1040.64 459.407Z" fill="url(#paint1_linear_176_70)"/>
<path d="M1380.05 1190C1356.83 1150.49 1328.5 1114.1 1295.79 1081.73C1268.31 1055.99 1238.09 1033.23 1205.66 1013.85C1244.83 999.868 1281.98 980.928 1316.17 957.506C1397.47 901.789 1459.47 822.954 1493.85 731.59C1528.23 640.226 1533.34 540.71 1508.48 446.41C1483.63 352.111 1430.01 267.544 1354.83 204.071C1279.64 140.598 1186.49 101.259 1087.9 91.3391C1071.66 91.3391 1055.09 89.642 1038.51 89.642H1020.55C922.17 93.3405 827.261 126.367 748.429 184.337L732.888 159.899L689.029 89.9814H535.699V1747.98H733.234V1069.85H926.968C975.799 1068.64 1023.89 1081.76 1065.1 1107.52C1103.78 1132.64 1149.71 1188.98 1203.24 1277.23L1268.16 1382.78H891.743V1513.11H1348.28L1491.94 1746.97H1727.12L1380.05 1190ZM1037.82 867.223C957.039 867.223 879.567 835.684 822.446 779.544C765.324 723.403 733.234 647.261 733.234 567.866C733.234 488.472 765.324 412.329 822.446 356.189C879.567 300.049 957.039 268.51 1037.82 268.51C1046.11 268.51 1053.71 268.51 1061.65 268.51H1076.15L1091 270.546L1102.06 272.582C1175.5 288.221 1240.46 329.988 1284.46 389.855C1328.47 449.721 1348.4 523.461 1340.43 596.898C1332.46 670.335 1297.15 738.285 1241.29 787.684C1185.43 837.083 1112.96 867.16 1037.82 867.223Z" fill="url(#paint2_linear_176_70)"/>
</g>
<g filter="url(#filter1_d_176_70)">
<path d="M45.6123 2056.69C44.3867 2068.94 37.6462 2075.58 25.3907 2076.6C19.6715 2076.6 14.6672 2074.77 10.3777 2071.09C6.29258 2067.21 4.25 2062.41 4.25 2056.69V1911.46C4.45426 1905.74 6.59897 1901.04 10.6841 1897.37C14.7693 1893.49 19.6715 1891.55 25.3907 1891.55H153.767C154.992 1891.55 156.218 1891.65 157.444 1891.85H159.282C173.58 1892.26 185.325 1895.53 194.516 1901.66C203.708 1907.78 210.346 1914.83 214.432 1922.8C218.517 1930.56 220.559 1938.42 220.559 1946.39C220.559 1954.56 218.517 1962.63 214.432 1970.59C210.551 1978.36 203.912 1985.3 194.516 1991.43C185.325 1997.56 173.58 2000.82 159.282 2001.23H105.358C106.992 2011.45 110.362 2019 115.469 2023.91C120.371 2028.81 126.601 2031.26 134.158 2031.26H200.338C206.057 2031.46 210.755 2033.61 214.432 2037.69C218.312 2041.78 220.253 2046.68 220.253 2052.4C220.049 2057.91 218.006 2062.61 214.125 2066.49C210.449 2070.17 205.853 2072.11 200.338 2072.31H128.643C113.528 2072.52 99.8428 2066.6 87.5873 2054.54C75.3318 2042.49 67.8764 2028.19 65.221 2011.65C61.5444 1993.27 59.7061 1982.95 59.7061 1980.7C59.7061 1974.99 61.6465 1970.19 65.5274 1966.3C69.6126 1962.22 74.5148 1960.18 80.234 1960.18H161.12C165.001 1959.97 168.167 1959.16 170.618 1957.73C173.274 1956.09 175.214 1954.36 176.44 1952.52C177.665 1950.47 178.278 1948.43 178.278 1946.39C178.278 1944.35 177.665 1942.41 176.44 1940.57C175.214 1938.53 173.274 1936.79 170.618 1935.36C168.167 1933.73 165.001 1932.81 161.12 1932.6H53.5783C48.2676 1932.81 45.6123 1935.46 45.6123 1940.57V2056.69Z" fill="url(#paint3_linear_176_70)"/>
<path d="M322.586 2024.82C322.586 2019.11 324.527 2014.31 328.408 2010.42C332.493 2006.34 337.395 2004.3 343.114 2004.3H389.991L382.025 1981.62C378.757 1973.25 375.489 1965.39 372.221 1958.03C369.157 1950.47 365.582 1943.63 361.497 1937.5C357.821 1931.38 353.633 1928.11 348.935 1927.7C344.033 1928.11 339.642 1931.38 335.761 1937.5C331.88 1943.63 328.305 1950.47 325.037 1958.03C321.973 1965.39 318.807 1973.25 315.539 1981.62L286.433 2061.28C284.39 2065.57 281.735 2069.15 278.466 2072.01C275.403 2074.66 270.705 2075.99 264.373 2075.99C258.449 2075.99 253.547 2073.95 249.666 2069.86C245.989 2065.78 244.355 2060.88 244.764 2055.16C244.968 2052.5 245.581 2050.05 246.602 2047.8L280.305 1960.79C289.701 1937.91 299.097 1919.43 308.492 1905.33C317.684 1891.44 331.165 1884.4 348.935 1884.19C366.502 1884.4 379.881 1891.44 389.072 1905.33C398.468 1919.02 407.864 1937.5 417.26 1960.79L450.962 2047.8C451.984 2050.05 452.596 2052.5 452.801 2055.16C453.209 2060.88 451.473 2065.78 447.592 2069.86C443.915 2073.95 439.115 2075.99 433.192 2075.99C426.451 2075.99 421.447 2074.66 418.179 2072.01C415.115 2069.15 412.562 2065.57 410.519 2061.28L404.698 2045.35H343.114C337.395 2045.35 332.595 2043.31 328.714 2039.22C324.629 2035.34 322.586 2030.54 322.586 2024.82Z" fill="url(#paint4_linear_176_70)"/>
<path d="M503.967 1886.64C509.687 1886.64 514.589 1888.58 518.674 1892.47C522.759 1896.14 524.904 1900.84 525.108 1906.56V1912.38C524.904 1920.75 525.414 1928.52 526.64 1935.67C528.07 1942.61 531.338 1948.84 536.444 1954.36C541.551 1959.87 547.985 1962.83 555.747 1963.24H641.842V1907.17C641.842 1901.45 643.884 1896.75 647.969 1893.08C652.259 1889.2 657.263 1887.26 662.982 1887.26C675.238 1888.28 681.978 1894.92 683.204 1907.17V1978.25C683.204 1994.59 680.957 2010.02 676.463 2024.52C672.378 2037.39 665.638 2048.31 656.242 2057.3C647.05 2066.08 635.305 2070.88 621.007 2071.7H510.708C505.193 2071.5 500.495 2069.56 496.614 2065.88C492.937 2062 490.997 2057.3 490.793 2051.79C490.793 2046.07 492.631 2041.16 496.308 2037.08C500.189 2032.99 504.989 2030.85 510.708 2030.65H610.59C618.352 2030.24 624.786 2027.28 629.892 2021.76C634.59 2016.65 637.756 2010.83 639.39 2004.3H545.33C531.032 2003.48 519.185 1998.68 509.789 1989.9C500.597 1980.91 493.959 1969.98 489.874 1957.11C485.993 1944.24 483.95 1930.56 483.746 1916.06V1906.56C483.95 1901.04 485.993 1896.45 489.874 1892.77C493.754 1888.89 498.452 1886.85 503.967 1886.64Z" fill="url(#paint5_linear_176_70)"/>
<path d="M887.87 1891.55C898.288 1891.75 907.581 1895.02 915.752 1901.35C923.922 1907.68 930.458 1915.24 935.36 1924.02C940.467 1932.81 944.246 1942.1 946.697 1951.9C949.148 1961.71 950.373 1971.72 950.373 1981.93C950.373 1995.41 948.229 2008.69 943.939 2021.76C939.854 2034.63 933.011 2046.07 923.411 2056.08C914.015 2066.08 902.168 2071.5 887.87 2072.31H780.941C766.643 2071.7 754.694 2066.39 745.094 2056.38C735.494 2046.37 728.651 2034.83 724.566 2021.76C720.685 2008.69 718.745 1995.41 718.745 1981.93C718.745 1968.45 720.787 1955.27 724.872 1942.41C728.958 1929.33 735.698 1917.79 745.094 1907.78C754.694 1897.57 766.643 1892.16 780.941 1891.55H887.87ZM877.453 2031.26C885.215 2030.85 891.649 2027.99 896.756 2022.68C902.066 2017.16 905.845 2010.83 908.092 2003.68C910.339 1996.53 911.462 1989.28 911.462 1981.93C911.462 1974.58 910.237 1967.43 907.786 1960.48C905.539 1953.33 901.862 1947 896.756 1941.49C891.649 1935.97 885.215 1933.01 877.453 1932.6H790.439C782.677 1933.01 776.243 1935.97 771.137 1941.49C766.03 1947 762.252 1953.33 759.801 1960.48C757.554 1967.43 756.43 1974.58 756.43 1981.93C756.43 1989.28 757.554 1996.53 759.801 2003.68C762.047 2010.83 765.724 2017.16 770.83 2022.68C776.141 2027.99 782.677 2030.85 790.439 2031.26H877.453Z" fill="url(#paint6_linear_176_70)"/>
<path d="M1081.51 1883.27C1092.13 1883.27 1102.55 1884.5 1112.76 1886.95C1123.18 1889.4 1133.08 1893.08 1142.48 1897.98C1151.87 1902.68 1160.15 1909.01 1167.3 1916.98C1174.65 1924.94 1178.63 1934.44 1179.24 1945.47V2056.08C1178.02 2068.33 1171.28 2074.97 1159.02 2075.99C1153.3 2075.99 1148.3 2074.15 1144.01 2070.48C1139.92 2066.6 1137.88 2061.8 1137.88 2056.08V1954.97C1137.47 1948.64 1135.02 1943.43 1130.53 1939.34C1126.24 1935.05 1121.34 1931.68 1115.82 1929.23C1110.51 1926.78 1104.89 1924.94 1098.97 1923.72C1093.25 1922.49 1087.43 1921.88 1081.51 1921.88C1075.58 1921.88 1069.66 1922.49 1063.74 1923.72C1058.02 1924.94 1052.4 1926.78 1046.89 1929.23C1041.57 1931.68 1036.67 1935.05 1032.18 1939.34C1027.89 1943.43 1025.54 1948.64 1025.13 1954.97V2056.08C1024.11 2068.33 1017.47 2074.97 1005.22 2075.99C999.497 2075.99 994.493 2074.15 990.204 2070.48C986.118 2066.6 984.076 2061.8 984.076 2056.08V1945.47C984.689 1934.44 988.57 1924.94 995.719 1916.98C1002.87 1909.01 1011.14 1902.68 1020.54 1897.98C1029.93 1893.08 1039.74 1889.4 1049.95 1886.95C1060.37 1884.5 1070.89 1883.27 1081.51 1883.27Z" fill="url(#paint7_linear_176_70)"/>
<path d="M1276.06 1891.55H1405.36C1411.08 1891.75 1415.78 1893.89 1419.45 1897.98C1423.33 1902.07 1425.27 1906.97 1425.27 1912.69C1424.25 1924.94 1417.61 1931.58 1405.36 1932.6H1286.48C1278.72 1933.01 1272.28 1935.97 1267.18 1941.49C1262.07 1947 1258.29 1953.33 1255.84 1960.48C1253.59 1967.43 1252.47 1974.58 1252.47 1981.93C1252.47 1989.28 1253.59 1996.53 1255.84 2003.68C1258.29 2010.63 1262.07 2016.86 1267.18 2022.37C1272.28 2027.89 1278.72 2030.85 1286.48 2031.26H1379.62C1383.3 2031.05 1385.24 2029.01 1385.44 2025.13V2007.36C1385.24 2003.28 1383.3 2001.23 1379.62 2001.23H1301.19C1295.47 2001.23 1290.57 1999.29 1286.48 1995.41C1282.6 1991.33 1280.66 1986.42 1280.66 1980.7C1280.66 1974.99 1282.6 1970.08 1286.48 1966C1290.57 1962.12 1295.47 1960.18 1301.19 1960.18H1405.97C1411.69 1960.18 1416.59 1962.12 1420.68 1966C1424.35 1969.88 1426.29 1974.58 1426.5 1980.09V2052.4C1426.29 2057.91 1424.35 2062.51 1420.68 2066.19C1416.8 2070.07 1412.1 2072.11 1406.58 2072.31H1276.06C1261.76 2071.5 1249.92 2066.08 1240.52 2056.08C1231.33 2045.86 1224.69 2034.32 1220.61 2021.45C1216.73 2008.59 1214.79 1995.41 1214.79 1981.93C1214.79 1968.45 1216.83 1955.27 1220.91 1942.41C1225 1929.54 1231.64 1918.1 1240.83 1908.09C1250.02 1897.88 1261.76 1892.36 1276.06 1891.55Z" fill="url(#paint8_linear_176_70)"/>
<path d="M1785.89 1891.55C1796.31 1891.75 1805.6 1895.02 1813.77 1901.35C1821.94 1907.68 1828.48 1915.24 1833.38 1924.02C1838.49 1932.81 1842.27 1942.1 1844.72 1951.9C1847.17 1961.71 1848.39 1971.72 1848.39 1981.93C1848.39 1995.41 1846.25 2008.69 1841.96 2021.76C1837.87 2034.63 1831.03 2046.07 1821.43 2056.08C1812.04 2066.08 1800.19 2071.5 1785.89 2072.31H1678.96C1664.66 2071.7 1652.71 2066.39 1643.11 2056.38C1633.51 2046.37 1626.67 2034.83 1622.59 2021.76C1618.71 2008.69 1616.77 1995.41 1616.77 1981.93C1616.77 1968.45 1618.81 1955.27 1622.89 1942.41C1626.98 1929.33 1633.72 1917.79 1643.11 1907.78C1652.71 1897.57 1664.66 1892.16 1678.96 1891.55H1785.89ZM1775.47 2031.26C1783.24 2030.85 1789.67 2027.99 1794.78 2022.68C1800.09 2017.16 1803.87 2010.83 1806.11 2003.68C1808.36 1996.53 1809.48 1989.28 1809.48 1981.93C1809.48 1974.58 1808.26 1967.43 1805.81 1960.48C1803.56 1953.33 1799.88 1947 1794.78 1941.49C1789.67 1935.97 1783.24 1933.01 1775.47 1932.6H1688.46C1680.7 1933.01 1674.26 1935.97 1669.16 1941.49C1664.05 1947 1660.27 1953.33 1657.82 1960.48C1655.57 1967.43 1654.45 1974.58 1654.45 1981.93C1654.45 1989.28 1655.57 1996.53 1657.82 2003.68C1660.07 2010.83 1663.74 2017.16 1668.85 2022.68C1674.16 2027.99 1680.7 2030.85 1688.46 2031.26H1775.47Z" fill="url(#paint9_linear_176_70)"/>
<path d="M1950.73 2024.82C1950.73 2019.11 1952.67 2014.31 1956.55 2010.42C1960.63 2006.34 1965.54 2004.3 1971.26 2004.3H2018.13L2010.17 1981.62C2006.9 1973.25 2003.63 1965.39 2000.36 1958.03C1997.3 1950.47 1993.72 1943.63 1989.64 1937.5C1985.96 1931.38 1981.77 1928.11 1977.08 1927.7C1972.17 1928.11 1967.78 1931.38 1963.9 1937.5C1960.02 1943.63 1956.45 1950.47 1953.18 1958.03C1950.11 1965.39 1946.95 1973.25 1943.68 1981.62L1914.57 2061.28C1912.53 2065.57 1909.88 2069.15 1906.61 2072.01C1903.54 2074.66 1898.85 2075.99 1892.51 2075.99C1886.59 2075.99 1881.69 2073.95 1877.81 2069.86C1874.13 2065.78 1872.5 2060.88 1872.9 2055.16C1873.11 2052.5 1873.72 2050.05 1874.74 2047.8L1908.45 1960.79C1917.84 1937.91 1927.24 1919.43 1936.63 1905.33C1945.82 1891.44 1959.31 1884.4 1977.08 1884.19C1994.64 1884.4 2008.02 1891.44 2017.21 1905.33C2026.61 1919.02 2036 1937.5 2045.4 1960.79L2079.1 2047.8C2080.12 2050.05 2080.74 2052.5 2080.94 2055.16C2081.35 2060.88 2079.61 2065.78 2075.73 2069.86C2072.06 2073.95 2067.26 2075.99 2061.33 2075.99C2054.59 2075.99 2049.59 2074.66 2046.32 2072.01C2043.26 2069.15 2040.7 2065.57 2038.66 2061.28L2032.84 2045.35H1971.26C1965.54 2045.35 1960.74 2043.31 1956.85 2039.22C1952.77 2035.34 1950.73 2030.54 1950.73 2024.82Z" fill="url(#paint10_linear_176_70)"/>
</g>
<g filter="url(#filter2_d_176_70)">
<path d="M426.944 2271.26C426.944 2268.19 427.983 2265.62 430.063 2263.54C432.251 2261.36 434.877 2260.26 437.941 2260.26H463.054L458.786 2248.12C457.036 2243.63 455.285 2239.42 453.534 2235.48C451.893 2231.43 449.978 2227.76 447.789 2224.48C445.82 2221.2 443.576 2219.45 441.06 2219.23C438.433 2219.45 436.081 2221.2 434.002 2224.48C431.923 2227.76 430.008 2231.43 428.257 2235.48C426.616 2239.42 424.92 2243.63 423.169 2248.12L407.576 2290.79C406.482 2293.09 405.059 2295 403.308 2296.54C401.667 2297.96 399.15 2298.67 395.758 2298.67C392.585 2298.67 389.959 2297.58 387.88 2295.39C385.91 2293.2 385.035 2290.57 385.253 2287.51C385.363 2286.09 385.691 2284.77 386.238 2283.57L404.293 2236.95C409.327 2224.7 414.36 2214.8 419.394 2207.25C424.318 2199.8 431.54 2196.03 441.06 2195.92C450.47 2196.03 457.637 2199.8 462.561 2207.25C467.595 2214.58 472.628 2224.48 477.662 2236.95L495.717 2283.57C496.264 2284.77 496.592 2286.09 496.702 2287.51C496.921 2290.57 495.99 2293.2 493.911 2295.39C491.942 2297.58 489.37 2298.67 486.197 2298.67C482.586 2298.67 479.905 2297.96 478.154 2296.54C476.513 2295 475.145 2293.09 474.051 2290.79L470.932 2282.26H437.941C434.877 2282.26 432.306 2281.16 430.227 2278.97C428.038 2276.89 426.944 2274.32 426.944 2271.26Z" fill="url(#paint11_linear_176_70)"/>
<path d="M565.475 2195.43C571.165 2195.43 576.745 2196.08 582.217 2197.4C587.797 2198.71 593.104 2200.68 598.138 2203.31C603.171 2205.82 607.603 2209.22 611.433 2213.48C615.372 2217.75 617.506 2222.84 617.834 2228.75V2288C617.177 2294.57 613.566 2298.12 607.001 2298.67C603.937 2298.67 601.256 2297.68 598.958 2295.71C596.77 2293.64 595.676 2291.06 595.676 2288V2233.84C595.457 2230.44 594.144 2227.65 591.736 2225.46C589.439 2223.17 586.812 2221.36 583.858 2220.05C581.013 2218.74 578.004 2217.75 574.83 2217.09C571.767 2216.44 568.648 2216.11 565.475 2216.11C562.301 2216.11 559.128 2216.44 555.955 2217.09C552.891 2217.75 549.882 2218.74 546.927 2220.05C544.082 2221.36 541.456 2223.17 539.049 2225.46C536.751 2227.65 535.493 2230.44 535.274 2233.84V2288C534.727 2294.57 531.17 2298.12 524.605 2298.67C521.541 2298.67 518.86 2297.68 516.562 2295.71C514.374 2293.64 513.279 2291.06 513.279 2288V2228.75C513.608 2222.84 515.687 2217.75 519.517 2213.48C523.346 2209.22 527.778 2205.82 532.812 2203.31C537.845 2200.68 543.097 2198.71 548.569 2197.4C554.149 2196.08 559.785 2195.43 565.475 2195.43Z" fill="url(#paint12_linear_176_70)"/>
<path d="M709.75 2199.86C717.41 2200.3 723.702 2203.25 728.626 2208.72C733.55 2214.08 737.106 2220.21 739.295 2227.11C741.483 2234 742.577 2241.06 742.577 2248.28C742.577 2255.5 741.483 2262.56 739.295 2269.45C737.216 2276.35 733.659 2282.53 728.626 2288C723.702 2293.36 717.41 2296.26 709.75 2296.7H649.348C646.394 2296.59 643.877 2295.55 641.798 2293.58C639.828 2291.5 638.789 2288.99 638.679 2286.03V2245.33C638.789 2242.26 639.938 2239.74 642.126 2237.77C644.315 2235.7 646.941 2234.66 650.005 2234.66C652.959 2234.77 655.476 2235.86 657.555 2237.94C659.634 2239.91 660.728 2242.37 660.838 2245.33V2270.27C660.838 2273.23 662.37 2274.71 665.433 2274.71H704.17C708.328 2274.49 711.774 2272.9 714.51 2269.95C717.246 2266.99 719.215 2263.65 720.419 2259.93C721.732 2256.1 722.389 2252.22 722.389 2248.28C722.389 2244.34 721.732 2240.51 720.419 2236.79C719.215 2232.96 717.246 2229.57 714.51 2226.61C711.774 2223.66 708.328 2222.07 704.17 2221.85H649.348C642.783 2221.31 639.226 2217.75 638.679 2211.18C638.679 2208.12 639.664 2205.49 641.634 2203.31C643.713 2201.12 646.284 2199.97 649.348 2199.86H709.75Z" fill="url(#paint13_linear_176_70)"/>
<path d="M950.702 2210.86C950.702 2213.92 949.607 2216.49 947.419 2218.57C945.34 2220.76 942.768 2221.85 939.705 2221.85H874.05C871.971 2221.96 870.22 2222.46 868.798 2223.33C867.485 2224.1 866.5 2225.03 865.843 2226.12C865.187 2227.11 864.859 2228.15 864.859 2229.24C864.859 2230.33 865.187 2231.43 865.843 2232.52C866.5 2233.51 867.485 2234.44 868.798 2235.31C870.22 2236.08 871.971 2236.52 874.05 2236.63H920.665C928.325 2236.84 934.616 2238.65 939.54 2242.04C944.574 2245.33 948.13 2249.15 950.209 2253.53C952.398 2257.8 953.492 2262.18 953.492 2266.66C953.492 2271.04 952.398 2275.42 950.209 2279.79C948.021 2284.06 944.465 2287.89 939.54 2291.28C934.616 2294.57 928.325 2296.21 920.665 2296.21H919.68C919.023 2296.32 918.367 2296.37 917.71 2296.37H855.667C852.603 2296.37 849.977 2295.33 847.788 2293.25C845.709 2291.06 844.67 2288.44 844.67 2285.37C844.67 2282.31 845.764 2279.74 847.953 2277.66C850.032 2275.47 852.603 2274.38 855.667 2274.38H921.65C923.729 2274.49 925.425 2274.1 926.738 2273.23C928.16 2272.35 929.2 2271.37 929.856 2270.27C930.513 2269.07 930.841 2267.87 930.841 2266.66C930.841 2265.9 930.513 2264.86 929.856 2263.54C929.2 2262.12 928.16 2260.97 926.738 2260.1C925.425 2259.22 923.729 2258.73 921.65 2258.62H875.035C867.375 2258.4 861.029 2256.65 855.995 2253.37C851.071 2250.09 847.515 2246.36 845.326 2242.21C843.247 2237.94 842.208 2233.62 842.208 2229.24C842.208 2224.97 843.302 2220.76 845.491 2216.6C847.679 2212.33 851.235 2208.56 856.159 2205.28C861.083 2201.99 867.375 2200.24 875.035 2200.02H876.02C876.676 2199.91 877.333 2199.86 877.989 2199.86H939.705C942.768 2199.86 945.34 2200.95 947.419 2203.14C949.607 2205.22 950.702 2207.79 950.702 2210.86Z" fill="url(#paint14_linear_176_70)"/>
<path d="M1002.4 2199.86H1065.76C1068.82 2199.97 1071.34 2201.12 1073.31 2203.31C1075.39 2205.49 1076.43 2208.12 1076.43 2211.18C1075.88 2217.75 1072.33 2221.31 1065.76 2221.85H1007.99C1003.83 2222.07 1000.38 2223.66 997.645 2226.61C994.909 2229.57 992.885 2232.96 991.572 2236.79C990.368 2240.51 989.766 2244.34 989.766 2248.28C989.766 2252.22 990.368 2256.1 991.572 2259.93C992.885 2263.65 994.909 2266.99 997.645 2269.95C1000.38 2272.9 1003.83 2274.49 1007.99 2274.71H1065.76C1068.82 2274.81 1071.34 2275.96 1073.31 2278.15C1075.39 2280.34 1076.43 2282.97 1076.43 2286.03C1076.32 2288.99 1075.23 2291.5 1073.15 2293.58C1071.18 2295.55 1068.72 2296.59 1065.76 2296.7H1002.4C994.745 2296.26 988.398 2293.36 983.365 2288C978.441 2282.53 974.884 2276.35 972.696 2269.45C970.617 2262.56 969.577 2255.5 969.577 2248.28C969.577 2241.06 970.672 2234 972.86 2227.11C975.049 2220.21 978.605 2214.08 983.529 2208.72C988.453 2203.25 994.745 2200.3 1002.4 2199.86ZM1076.1 2247.62C1076.1 2250.69 1075.01 2253.26 1072.82 2255.34C1070.74 2257.53 1068.17 2258.62 1065.1 2258.62H1015.54C1012.47 2258.62 1009.85 2257.58 1007.66 2255.5C1005.58 2253.31 1004.54 2250.69 1004.54 2247.62C1004.54 2244.56 1005.58 2241.93 1007.66 2239.74C1009.85 2237.67 1012.47 2236.63 1015.54 2236.63H1065.1C1068.17 2236.63 1070.74 2237.72 1072.82 2239.91C1075.01 2241.99 1076.1 2244.56 1076.1 2247.62Z" fill="url(#paint15_linear_176_70)"/>
<path d="M1115 2288.33C1114.35 2294.89 1110.73 2298.45 1104.17 2299C1101.1 2299 1098.42 2298.01 1096.13 2296.04C1093.94 2293.96 1092.84 2291.39 1092.84 2288.33V2210.53C1092.95 2207.46 1094.1 2204.95 1096.29 2202.98C1098.48 2200.9 1101.1 2199.86 1104.17 2199.86H1172.94C1173.6 2199.86 1174.25 2199.91 1174.91 2200.02H1175.9C1183.56 2200.24 1189.85 2201.99 1194.77 2205.28C1199.7 2208.56 1203.25 2212.33 1205.44 2216.6C1207.63 2220.76 1208.72 2224.97 1208.72 2229.24C1208.72 2233.62 1207.63 2237.94 1205.44 2242.21C1203.36 2246.36 1199.81 2250.09 1194.77 2253.37C1189.85 2256.65 1183.56 2258.4 1175.9 2258.62H1147.01C1147.88 2264.09 1149.69 2268.14 1152.42 2270.77C1155.05 2273.39 1158.39 2274.71 1162.44 2274.71H1197.89C1200.95 2274.81 1203.47 2275.96 1205.44 2278.15C1207.52 2280.34 1208.56 2282.97 1208.56 2286.03C1208.45 2288.99 1207.36 2291.5 1205.28 2293.58C1203.31 2295.55 1200.84 2296.59 1197.89 2296.7H1159.48C1151.39 2296.81 1144.05 2293.64 1137.49 2287.18C1130.92 2280.72 1126.93 2273.06 1125.51 2264.2C1123.54 2254.35 1122.55 2248.83 1122.55 2247.62C1122.55 2244.56 1123.59 2241.99 1125.67 2239.91C1127.86 2237.72 1130.49 2236.63 1133.55 2236.63H1176.88C1178.96 2236.52 1180.66 2236.08 1181.97 2235.31C1183.39 2234.44 1184.43 2233.51 1185.09 2232.52C1185.74 2231.43 1186.07 2230.33 1186.07 2229.24C1186.07 2228.15 1185.74 2227.11 1185.09 2226.12C1184.43 2225.03 1183.39 2224.1 1181.97 2223.33C1180.66 2222.46 1178.96 2221.96 1176.88 2221.85H1119.27C1116.42 2221.96 1115 2223.39 1115 2226.12V2288.33Z" fill="url(#paint16_linear_176_70)"/>
<path d="M1257.8 2288C1252.77 2280.45 1247.73 2270.55 1242.7 2258.29L1224.64 2211.68C1224.1 2210.47 1223.77 2209.16 1223.66 2207.74C1223.44 2204.67 1224.32 2202.05 1226.29 2199.86C1228.37 2197.67 1230.99 2196.58 1234.16 2196.58C1237.56 2196.58 1240.07 2197.34 1241.71 2198.87C1243.47 2200.3 1244.89 2202.16 1245.98 2204.46L1261.58 2247.13C1263.33 2251.62 1265.02 2255.88 1266.66 2259.93C1268.41 2263.87 1270.33 2267.48 1272.41 2270.77C1274.49 2274.05 1276.84 2275.8 1279.47 2276.02C1281.98 2275.8 1284.23 2274.05 1286.2 2270.77C1288.38 2267.48 1290.3 2263.87 1291.94 2259.93C1293.69 2255.88 1295.44 2251.62 1297.19 2247.13L1312.46 2204.46C1313.55 2202.16 1314.92 2200.3 1316.56 2198.87C1318.31 2197.34 1320.99 2196.58 1324.6 2196.58C1327.78 2196.58 1330.35 2197.67 1332.32 2199.86C1334.4 2202.05 1335.33 2204.67 1335.11 2207.74C1335 2209.16 1334.67 2210.47 1334.12 2211.68L1316.07 2258.29C1311.03 2270.77 1306 2280.72 1300.97 2288.16C1296.04 2295.5 1288.88 2299.22 1279.47 2299.33C1269.95 2299.22 1262.72 2295.44 1257.8 2288Z" fill="url(#paint17_linear_176_70)"/>
<path d="M1348.57 2285.7C1348.57 2282.64 1349.61 2280.07 1351.69 2277.99C1353.87 2275.8 1356.5 2274.71 1359.56 2274.71H1391.08V2221.85H1359.56C1356.5 2221.85 1353.93 2220.76 1351.85 2218.57C1349.66 2216.49 1348.57 2213.92 1348.57 2210.86C1348.57 2207.79 1349.61 2205.22 1351.69 2203.14C1353.87 2200.95 1356.5 2199.86 1359.56 2199.86H1444.59C1447.65 2199.86 1450.28 2200.9 1452.47 2202.98C1454.54 2205.17 1455.58 2207.79 1455.58 2210.86C1455.58 2213.92 1454.49 2216.55 1452.3 2218.74C1450.22 2220.81 1447.65 2221.85 1444.59 2221.85H1413.24V2274.71H1444.59C1447.65 2274.71 1450.28 2275.74 1452.47 2277.82C1454.54 2280.01 1455.58 2282.64 1455.58 2285.7C1455.58 2288.77 1454.49 2291.39 1452.3 2293.58C1450.22 2295.66 1447.65 2296.7 1444.59 2296.7H1359.56C1356.5 2296.7 1353.93 2295.61 1351.85 2293.42C1349.66 2291.34 1348.57 2288.77 1348.57 2285.7Z" fill="url(#paint18_linear_176_70)"/>
<path d="M1509.91 2221.85C1505.75 2222.07 1502.25 2223.66 1499.41 2226.61C1496.67 2229.57 1494.7 2232.96 1493.5 2236.79C1492.3 2240.51 1491.69 2244.34 1491.69 2248.28C1491.69 2252.22 1492.24 2256.1 1493.34 2259.93C1494.54 2263.76 1496.56 2267.16 1499.41 2270.11C1502.25 2272.95 1505.75 2274.49 1509.91 2274.71H1564.08C1570.97 2275.36 1574.75 2279.14 1575.4 2286.03C1575.29 2289.09 1574.14 2291.67 1571.96 2293.75C1569.77 2295.71 1567.14 2296.7 1564.08 2296.7H1504.17C1496.51 2296.26 1490.22 2293.36 1485.29 2288C1480.37 2282.53 1476.81 2276.35 1474.62 2269.45C1472.54 2262.56 1471.51 2255.5 1471.51 2248.28C1471.51 2242.92 1472.11 2237.61 1473.31 2232.36C1474.51 2227.11 1476.37 2222.13 1478.89 2217.42C1481.52 2212.61 1484.96 2208.5 1489.23 2205.11C1493.61 2201.72 1498.59 2199.97 1504.17 2199.86H1564.08C1570.97 2200.52 1574.75 2204.29 1575.4 2211.18C1575.4 2214.25 1574.25 2216.82 1571.96 2218.9C1569.77 2220.87 1567.14 2221.85 1564.08 2221.85H1509.91Z" fill="url(#paint19_linear_176_70)"/>
<path d="M1621.03 2199.86H1684.39C1687.45 2199.97 1689.97 2201.12 1691.94 2203.31C1694.02 2205.49 1695.06 2208.12 1695.06 2211.18C1694.51 2217.75 1690.95 2221.31 1684.39 2221.85H1626.61C1622.46 2222.07 1619.01 2223.66 1616.27 2226.61C1613.54 2229.57 1611.51 2232.96 1610.2 2236.79C1609 2240.51 1608.39 2244.34 1608.39 2248.28C1608.39 2252.22 1609 2256.1 1610.2 2259.93C1611.51 2263.65 1613.54 2266.99 1616.27 2269.95C1619.01 2272.9 1622.46 2274.49 1626.61 2274.71H1684.39C1687.45 2274.81 1689.97 2275.96 1691.94 2278.15C1694.02 2280.34 1695.06 2282.97 1695.06 2286.03C1694.95 2288.99 1693.85 2291.5 1691.78 2293.58C1689.81 2295.55 1687.34 2296.59 1684.39 2296.7H1621.03C1613.37 2296.26 1607.03 2293.36 1601.99 2288C1597.07 2282.53 1593.51 2276.35 1591.32 2269.45C1589.25 2262.56 1588.21 2255.5 1588.21 2248.28C1588.21 2241.06 1589.3 2234 1591.49 2227.11C1593.68 2220.21 1597.23 2214.08 1602.16 2208.72C1607.08 2203.25 1613.37 2200.3 1621.03 2199.86ZM1694.73 2247.62C1694.73 2250.69 1693.64 2253.26 1691.45 2255.34C1689.37 2257.53 1686.8 2258.62 1683.73 2258.62H1634.16C1631.1 2258.62 1628.47 2257.58 1626.29 2255.5C1624.21 2253.31 1623.17 2250.69 1623.17 2247.62C1623.17 2244.56 1624.21 2241.93 1626.29 2239.74C1628.47 2237.67 1631.1 2236.63 1634.16 2236.63H1683.73C1686.8 2236.63 1689.37 2237.72 1691.45 2239.91C1693.64 2241.99 1694.73 2244.56 1694.73 2247.62Z" fill="url(#paint20_linear_176_70)"/>
</g>
<defs>
<filter id="filter0_d_176_70" x="145.915" y="0" width="1800.8" height="1778.39" filterUnits="userSpaceOnUse" color-interpolation-filters="sRGB">
<feFlood flood-opacity="0" result="BackgroundImageFix"/>
<feColorMatrix in="SourceAlpha" type="matrix" values="0 0 0 0 0 0 0 0 0 0 0 0 0 0 0 0 0 0 127 0" result="hardAlpha"/>
<feOffset dy="4"/>
<feGaussianBlur stdDeviation="2"/>
<feComposite in2="hardAlpha" operator="out"/>
<feColorMatrix type="matrix" values="0 0 0 0 0 0 0 0 0 0 0 0 0 0 0 0 0 0 0.25 0"/>
<feBlend mode="normal" in2="BackgroundImageFix" result="effect1_dropShadow_176_70"/>
<feBlend mode="normal" in="SourceGraphic" in2="effect1_dropShadow_176_70" result="shape"/>
</filter>
<filter id="filter1_d_176_70" x="0.25" y="1883.27" width="2084.75" height="201.33" filterUnits="userSpaceOnUse" color-interpolation-filters="sRGB">
<feFlood flood-opacity="0" result="BackgroundImageFix"/>
<feColorMatrix in="SourceAlpha" type="matrix" values="0 0 0 0 0 0 0 0 0 0 0 0 0 0 0 0 0 0 127 0" result="hardAlpha"/>
<feOffset dy="4"/>
<feGaussianBlur stdDeviation="2"/>
<feComposite in2="hardAlpha" operator="out"/>
<feColorMatrix type="matrix" values="0 0 0 0 0 0 0 0 0 0 0 0 0 0 0 0 0 0 0.25 0"/>
<feBlend mode="normal" in2="BackgroundImageFix" result="effect1_dropShadow_176_70"/>
<feBlend mode="normal" in="SourceGraphic" in2="effect1_dropShadow_176_70" result="shape"/>
</filter>
<filter id="filter2_d_176_70" x="381.221" y="2195.43" width="1317.84" height="111.898" filterUnits="userSpaceOnUse" color-interpolation-filters="sRGB">
<feFlood flood-opacity="0" result="BackgroundImageFix"/>
<feColorMatrix in="SourceAlpha" type="matrix" values="0 0 0 0 0 0 0 0 0 0 0 0 0 0 0 0 0 0 127 0" result="hardAlpha"/>
<feOffset dy="4"/>
<feGaussianBlur stdDeviation="2"/>
<feComposite in2="hardAlpha" operator="out"/>
<feColorMatrix type="matrix" values="0 0 0 0 0 0 0 0 0 0 0 0 0 0 0 0 0 0 0.25 0"/>
<feBlend mode="normal" in2="BackgroundImageFix" result="effect1_dropShadow_176_70"/>
<feBlend mode="normal" in="SourceGraphic" in2="effect1_dropShadow_176_70" result="shape"/>
</filter>
<linearGradient id="paint0_linear_176_70" x1="1942.72" y1="-137.564" x2="510.581" y2="2407.92" gradientUnits="userSpaceOnUse">
<stop stop-color="#2575EF"/>
<stop offset="1" stop-color="#0C4DA1"/>
</linearGradient>
<linearGradient id="paint1_linear_176_70" x1="-97.6624" y1="1901.98" x2="1850.99" y2="-935.257" gradientUnits="userSpaceOnUse">
<stop stop-color="#FF6A00"/>
<stop offset="0.629905" stop-color="#FFC933"/>
</linearGradient>
<linearGradient id="paint2_linear_176_70" x1="-97.6624" y1="1901.98" x2="1850.99" y2="-935.257" gradientUnits="userSpaceOnUse">
<stop stop-color="#0C4DA1"/>
<stop offset="0.629905" stop-color="#2575EF"/>
</linearGradient>
<linearGradient id="paint3_linear_176_70" x1="-282.539" y1="2090.97" x2="-253.139" y2="1636.89" gradientUnits="userSpaceOnUse">
<stop stop-color="#FF6A00"/>
<stop offset="0.629905" stop-color="#FFC933"/>
</linearGradient>
<linearGradient id="paint4_linear_176_70" x1="-282.539" y1="2090.97" x2="-253.139" y2="1636.89" gradientUnits="userSpaceOnUse">
<stop stop-color="#FF6A00"/>
<stop offset="0.629905" stop-color="#FFC933"/>
</linearGradient>
<linearGradient id="paint5_linear_176_70" x1="-282.539" y1="2090.97" x2="-253.139" y2="1636.89" gradientUnits="userSpaceOnUse">
<stop stop-color="#FF6A00"/>
<stop offset="0.629905" stop-color="#FFC933"/>
</linearGradient>
<linearGradient id="paint6_linear_176_70" x1="-282.539" y1="2090.97" x2="-253.139" y2="1636.89" gradientUnits="userSpaceOnUse">
<stop stop-color="#FF6A00"/>
<stop offset="0.629905" stop-color="#FFC933"/>
</linearGradient>
<linearGradient id="paint7_linear_176_70" x1="-282.539" y1="2090.97" x2="-253.139" y2="1636.89" gradientUnits="userSpaceOnUse">
<stop stop-color="#FF6A00"/>
<stop offset="0.629905" stop-color="#FFC933"/>
</linearGradient>
<linearGradient id="paint8_linear_176_70" x1="-282.539" y1="2090.97" x2="-253.139" y2="1636.89" gradientUnits="userSpaceOnUse">
<stop stop-color="#FF6A00"/>
<stop offset="0.629905" stop-color="#FFC933"/>
</linearGradient>
<linearGradient id="paint9_linear_176_70" x1="-307.503" y1="2141.07" x2="-232.058" y2="1408.86" gradientUnits="userSpaceOnUse">
<stop stop-color="#0C4DA1"/>
<stop offset="0.629905" stop-color="#2575EF"/>
</linearGradient>
<linearGradient id="paint10_linear_176_70" x1="-307.503" y1="2141.07" x2="-232.058" y2="1408.86" gradientUnits="userSpaceOnUse">
<stop stop-color="#0C4DA1"/>
<stop offset="0.629905" stop-color="#2575EF"/>
</linearGradient>
<linearGradient id="paint11_linear_176_70" x1="197.084" y1="2331.93" x2="231.861" y2="1938.59" gradientUnits="userSpaceOnUse">
<stop stop-color="#0C4DA1"/>
<stop offset="0.629905" stop-color="#2575EF"/>
</linearGradient>
<linearGradient id="paint12_linear_176_70" x1="197.084" y1="2331.93" x2="231.861" y2="1938.59" gradientUnits="userSpaceOnUse">
<stop stop-color="#0C4DA1"/>
<stop offset="0.629905" stop-color="#2575EF"/>
</linearGradient>
<linearGradient id="paint13_linear_176_70" x1="197.084" y1="2331.93" x2="231.861" y2="1938.59" gradientUnits="userSpaceOnUse">
<stop stop-color="#0C4DA1"/>
<stop offset="0.629905" stop-color="#2575EF"/>
</linearGradient>
<linearGradient id="paint14_linear_176_70" x1="197.084" y1="2331.93" x2="231.861" y2="1938.59" gradientUnits="userSpaceOnUse">
<stop stop-color="#0C4DA1"/>
<stop offset="0.629905" stop-color="#2575EF"/>
</linearGradient>
<linearGradient id="paint15_linear_176_70" x1="197.084" y1="2331.93" x2="231.861" y2="1938.59" gradientUnits="userSpaceOnUse">
<stop stop-color="#0C4DA1"/>
<stop offset="0.629905" stop-color="#2575EF"/>
</linearGradient>
<linearGradient id="paint16_linear_176_70" x1="197.084" y1="2331.93" x2="231.861" y2="1938.59" gradientUnits="userSpaceOnUse">
<stop stop-color="#0C4DA1"/>
<stop offset="0.629905" stop-color="#2575EF"/>
</linearGradient>
<linearGradient id="paint17_linear_176_70" x1="197.084" y1="2331.93" x2="231.861" y2="1938.59" gradientUnits="userSpaceOnUse">
<stop stop-color="#0C4DA1"/>
<stop offset="0.629905" stop-color="#2575EF"/>
</linearGradient>
<linearGradient id="paint18_linear_176_70" x1="197.084" y1="2331.93" x2="231.861" y2="1938.59" gradientUnits="userSpaceOnUse">
<stop stop-color="#0C4DA1"/>
<stop offset="0.629905" stop-color="#2575EF"/>
</linearGradient>
<linearGradient id="paint19_linear_176_70" x1="197.084" y1="2331.93" x2="231.861" y2="1938.59" gradientUnits="userSpaceOnUse">
<stop stop-color="#0C4DA1"/>
<stop offset="0.629905" stop-color="#2575EF"/>
</linearGradient>
<linearGradient id="paint20_linear_176_70" x1="197.084" y1="2331.93" x2="231.861" y2="1938.59" gradientUnits="userSpaceOnUse">
<stop stop-color="#0C4DA1"/>
<stop offset="0.629905" stop-color="#2575EF"/>
</linearGradient>
</defs>
</svg>
