<svg width="3399" height="662" viewBox="0 0 3399 662" fill="none" xmlns="http://www.w3.org/2000/svg">
<g filter="url(#filter0_d_176_74)">
<path d="M911.789 307.271C910.294 322.161 902.071 330.226 887.121 331.467C880.144 331.467 874.04 329.233 868.807 324.767C863.824 320.051 861.332 314.22 861.332 307.271V130.826C861.581 123.877 864.198 118.17 869.181 113.703C874.164 108.988 880.144 106.63 887.121 106.63H1043.72C1045.22 106.63 1046.71 106.754 1048.21 107.002H1050.45C1067.89 107.499 1082.22 111.469 1093.43 118.914C1104.64 126.359 1112.74 134.921 1117.73 144.599C1122.71 154.029 1125.2 163.584 1125.2 173.262C1125.2 183.189 1122.71 192.991 1117.73 202.67C1112.99 212.1 1104.89 220.537 1093.43 227.982C1082.22 235.427 1067.89 239.398 1050.45 239.894H984.67C986.663 252.303 990.775 261.485 997.004 267.441C1002.98 273.397 1010.58 276.374 1019.8 276.374H1100.53C1107.51 276.623 1113.24 279.228 1117.73 284.192C1122.46 289.155 1124.83 295.111 1124.83 302.059C1124.58 308.76 1122.09 314.468 1117.35 319.183C1112.87 323.65 1107.26 326.007 1100.53 326.255H1013.08C994.637 326.504 977.943 319.307 962.993 304.665C948.042 290.024 938.948 272.652 935.709 252.551C931.224 230.216 928.981 217.684 928.981 214.954C928.981 208.005 931.348 202.173 936.082 197.458C941.066 192.495 947.046 190.013 954.022 190.013H1052.69C1057.43 189.765 1061.29 188.772 1064.28 187.035C1067.52 185.05 1069.89 182.941 1071.38 180.707C1072.88 178.225 1073.62 175.744 1073.62 173.262C1073.62 170.781 1072.88 168.423 1071.38 166.19C1069.89 163.708 1067.52 161.598 1064.28 159.861C1061.29 157.876 1057.43 156.759 1052.69 156.511H921.506C915.028 156.759 911.789 159.985 911.789 166.19V307.271Z" fill="url(#paint0_linear_176_74)"/>
<path d="M1249.66 268.557C1249.66 261.609 1252.03 255.777 1256.76 251.062C1261.74 246.098 1267.72 243.617 1274.7 243.617H1331.89L1322.17 216.071C1318.18 205.896 1314.19 196.341 1310.21 187.408C1306.47 178.225 1302.11 169.912 1297.13 162.467C1292.64 155.022 1287.53 151.051 1281.8 150.555C1275.82 151.051 1270.47 155.022 1265.73 162.467C1261 169.912 1256.64 178.225 1252.65 187.408C1248.91 196.341 1245.05 205.896 1241.06 216.071L1205.56 312.855C1203.07 318.066 1199.83 322.409 1195.84 325.883C1192.1 329.109 1186.37 330.722 1178.65 330.722C1171.42 330.722 1165.44 328.241 1160.71 323.278C1156.22 318.314 1154.23 312.358 1154.73 305.41C1154.98 302.184 1155.72 299.206 1156.97 296.476L1198.08 190.758C1209.54 162.963 1221.01 140.505 1232.47 123.381C1243.68 106.506 1260.12 97.9443 1281.8 97.6961C1303.23 97.9443 1319.55 106.506 1330.76 123.381C1342.23 140.008 1353.69 162.467 1365.15 190.758L1406.26 296.476C1407.51 299.206 1408.25 302.184 1408.5 305.41C1409 312.358 1406.88 318.314 1402.15 323.278C1397.67 328.241 1391.81 330.722 1384.58 330.722C1376.36 330.722 1370.26 329.109 1366.27 325.883C1362.53 322.409 1359.42 318.066 1356.93 312.855L1349.83 293.498H1274.7C1267.72 293.498 1261.87 291.016 1257.13 286.053C1252.15 281.338 1249.66 275.506 1249.66 268.557Z" fill="url(#paint1_linear_176_74)"/>
<path d="M1470.92 100.674C1477.9 100.674 1483.88 103.032 1488.86 107.747C1493.84 112.214 1496.46 117.922 1496.71 124.87V131.943C1496.46 142.118 1497.08 151.548 1498.58 160.234C1500.32 168.671 1504.31 176.24 1510.54 182.941C1516.77 189.641 1524.62 193.239 1534.08 193.736H1639.11V125.615C1639.11 118.666 1641.6 112.958 1646.58 108.491C1651.82 103.776 1657.92 101.419 1664.9 101.419C1679.85 102.659 1688.07 110.725 1689.57 125.615V211.976C1689.57 231.829 1686.82 250.565 1681.34 268.185C1676.36 283.819 1668.14 297.096 1656.68 308.015C1645.46 318.686 1631.14 324.518 1613.69 325.511H1479.14C1472.42 325.263 1466.68 322.905 1461.95 318.438C1457.47 313.723 1455.1 308.015 1454.85 301.315C1454.85 294.366 1457.09 288.41 1461.58 283.447C1466.31 278.484 1472.17 275.878 1479.14 275.63H1600.99C1610.45 275.134 1618.3 271.535 1624.53 264.835C1630.26 258.631 1634.13 251.558 1636.12 243.617H1521.38C1503.94 242.624 1489.48 236.792 1478.02 226.121C1466.81 215.202 1458.71 201.925 1453.73 186.291C1448.99 170.656 1446.5 154.029 1446.25 136.41V124.87C1446.5 118.17 1448.99 112.586 1453.73 108.119C1458.46 103.404 1464.19 100.922 1470.92 100.674Z" fill="url(#paint2_linear_176_74)"/>
<path d="M1939.23 106.63C1951.94 106.878 1963.28 110.849 1973.24 118.542C1983.21 126.235 1991.18 135.417 1997.16 146.088C2003.39 156.759 2008 168.051 2010.99 179.963C2013.98 191.875 2015.48 204.035 2015.48 216.443C2015.48 232.822 2012.86 248.952 2007.63 264.835C2002.64 280.469 1994.3 294.366 1982.59 306.526C1971.12 318.686 1956.67 325.263 1939.23 326.255H1808.79C1791.35 325.511 1776.77 319.059 1765.06 306.899C1753.35 294.739 1745 280.717 1740.02 264.835C1735.29 248.952 1732.92 232.822 1732.92 216.443C1732.92 200.064 1735.41 184.057 1740.4 168.423C1745.38 152.54 1753.6 138.519 1765.06 126.359C1776.77 113.951 1791.35 107.375 1808.79 106.63H1939.23ZM1926.52 276.374C1935.99 275.878 1943.84 272.404 1950.07 265.952C1956.55 259.251 1961.16 251.558 1963.9 242.872C1966.64 234.187 1968.01 225.377 1968.01 216.443C1968.01 207.509 1966.51 198.823 1963.52 190.386C1960.78 181.7 1956.3 174.007 1950.07 167.306C1943.84 160.606 1935.99 157.007 1926.52 156.511H1820.38C1810.91 157.007 1803.06 160.606 1796.83 167.306C1790.6 174.007 1785.99 181.7 1783 190.386C1780.26 198.823 1778.89 207.509 1778.89 216.443C1778.89 225.377 1780.26 234.187 1783 242.872C1785.74 251.558 1790.23 259.251 1796.46 265.952C1802.94 272.404 1810.91 275.878 1820.38 276.374H1926.52Z" fill="url(#paint3_linear_176_74)"/>
<path d="M2175.44 96.5794C2188.4 96.5794 2201.11 98.0684 2213.56 101.046C2226.27 104.024 2238.36 108.491 2249.82 114.447C2261.28 120.155 2271.37 127.848 2280.09 137.527C2289.06 147.205 2293.92 158.745 2294.67 172.145V306.526C2293.17 321.416 2284.95 329.482 2270 330.722C2263.02 330.722 2256.92 328.489 2251.69 324.022C2246.7 319.307 2244.21 313.475 2244.21 306.526V183.685C2243.71 175.992 2240.72 169.664 2235.24 164.701C2230.01 159.489 2224.03 155.394 2217.3 152.416C2210.82 149.438 2203.97 147.205 2196.75 145.716C2189.77 144.227 2182.67 143.482 2175.44 143.482C2168.22 143.482 2160.99 144.227 2153.76 145.716C2146.79 147.205 2139.94 149.438 2133.21 152.416C2126.73 155.394 2120.75 159.489 2115.27 164.701C2110.04 169.664 2107.17 175.992 2106.67 183.685V306.526C2105.43 321.416 2097.33 329.482 2082.38 330.722C2075.4 330.722 2069.3 328.489 2064.06 324.022C2059.08 319.307 2056.59 313.475 2056.59 306.526V172.145C2057.34 158.745 2062.07 147.205 2070.79 137.527C2079.51 127.848 2089.6 120.155 2101.07 114.447C2112.53 108.491 2124.49 104.024 2136.95 101.046C2149.65 98.0684 2162.49 96.5794 2175.44 96.5794Z" fill="url(#paint4_linear_176_74)"/>
<path d="M2412.77 106.63H2570.5C2577.47 106.878 2583.2 109.484 2587.69 114.447C2592.42 119.411 2594.79 125.366 2594.79 132.315C2593.55 147.205 2585.45 155.27 2570.5 156.511H2425.48C2416.01 157.007 2408.16 160.606 2401.94 167.306C2395.71 174.007 2391.1 181.7 2388.11 190.386C2385.37 198.823 2384 207.509 2384 216.443C2384 225.377 2385.37 234.187 2388.11 242.872C2391.1 251.31 2395.71 258.879 2401.94 265.579C2408.16 272.28 2416.01 275.878 2425.48 276.374H2539.1C2543.59 276.126 2545.95 273.645 2546.2 268.93V247.339C2545.95 242.376 2543.59 239.894 2539.1 239.894H2443.42C2436.44 239.894 2430.46 237.537 2425.48 232.822C2420.75 227.858 2418.38 221.902 2418.38 214.954C2418.38 208.005 2420.75 202.049 2425.48 197.086C2430.46 192.371 2436.44 190.013 2443.42 190.013H2571.24C2578.22 190.013 2584.2 192.371 2589.18 197.086C2593.67 201.801 2596.04 207.509 2596.29 214.209V302.059C2596.04 308.76 2593.67 314.344 2589.18 318.811C2584.45 323.526 2578.72 326.007 2571.99 326.255H2412.77C2395.33 325.263 2380.88 318.686 2369.42 306.526C2358.21 294.118 2350.11 280.097 2345.13 264.463C2340.39 248.828 2338.02 232.822 2338.02 216.443C2338.02 200.064 2340.52 184.057 2345.5 168.423C2350.48 152.789 2358.58 138.891 2369.79 126.731C2381.01 114.323 2395.33 107.623 2412.77 106.63Z" fill="url(#paint5_linear_176_74)"/>
<path d="M3034.7 106.63C3047.4 106.878 3058.74 110.849 3068.71 118.542C3078.67 126.235 3086.65 135.417 3092.63 146.088C3098.86 156.759 3103.47 168.051 3106.46 179.963C3109.45 191.875 3110.94 204.035 3110.94 216.443C3110.94 232.822 3108.33 248.952 3103.09 264.835C3098.11 280.469 3089.76 294.366 3078.05 306.526C3066.59 318.686 3052.14 325.263 3034.7 326.255H2904.26C2886.82 325.511 2872.24 319.059 2860.53 306.899C2848.82 294.739 2840.47 280.717 2835.49 264.835C2830.75 248.952 2828.39 232.822 2828.39 216.443C2828.39 200.064 2830.88 184.057 2835.86 168.423C2840.84 152.54 2849.07 138.519 2860.53 126.359C2872.24 113.951 2886.82 107.375 2904.26 106.63H3034.7ZM3021.99 276.374C3031.46 275.878 3039.31 272.404 3045.54 265.952C3052.01 259.251 3056.62 251.558 3059.36 242.872C3062.1 234.187 3063.48 225.377 3063.48 216.443C3063.48 207.509 3061.98 198.823 3058.99 190.386C3056.25 181.7 3051.76 174.007 3045.54 167.306C3039.31 160.606 3031.46 157.007 3021.99 156.511H2915.84C2906.37 157.007 2898.53 160.606 2892.3 167.306C2886.07 174.007 2881.46 181.7 2878.47 190.386C2875.73 198.823 2874.36 207.509 2874.36 216.443C2874.36 225.377 2875.73 234.187 2878.47 242.872C2881.21 251.558 2885.69 259.251 2891.92 265.952C2898.4 272.404 2906.37 275.878 2915.84 276.374H3021.99Z" fill="url(#paint6_linear_176_74)"/>
<path d="M3235.77 268.557C3235.77 261.609 3238.14 255.777 3242.88 251.062C3247.86 246.098 3253.84 243.617 3260.82 243.617H3318L3308.28 216.071C3304.3 205.896 3300.31 196.341 3296.32 187.408C3292.58 178.225 3288.22 169.912 3283.24 162.467C3278.76 155.022 3273.65 151.051 3267.92 150.555C3261.94 151.051 3256.58 155.022 3251.85 162.467C3247.11 169.912 3242.75 178.225 3238.76 187.408C3235.03 196.341 3231.16 205.896 3227.18 216.071L3191.67 312.855C3189.18 318.066 3185.94 322.409 3181.95 325.883C3178.22 329.109 3172.49 330.722 3164.76 330.722C3157.54 330.722 3151.56 328.241 3146.82 323.278C3142.34 318.314 3140.34 312.358 3140.84 305.41C3141.09 302.184 3141.84 299.206 3143.08 296.476L3184.2 190.758C3195.66 162.963 3207.12 140.505 3218.58 123.381C3229.79 106.506 3246.24 97.9443 3267.92 97.6961C3289.35 97.9443 3305.67 106.506 3316.88 123.381C3328.34 140.008 3339.8 162.467 3351.26 190.758L3392.38 296.476C3393.62 299.206 3394.37 302.184 3394.62 305.41C3395.12 312.358 3393 318.314 3388.26 323.278C3383.78 328.241 3377.92 330.722 3370.7 330.722C3362.48 330.722 3356.37 329.109 3352.38 325.883C3348.65 322.409 3345.53 318.066 3343.04 312.855L3335.94 293.498H3260.82C3253.84 293.498 3247.98 291.016 3243.25 286.053C3238.27 281.338 3235.77 275.506 3235.77 268.557Z" fill="url(#paint7_linear_176_74)"/>
<path d="M1114.15 567.963C1114.15 564.241 1115.42 561.116 1117.95 558.59C1120.62 555.932 1123.83 554.602 1127.56 554.602H1158.2L1152.99 539.845C1150.86 534.394 1148.72 529.276 1146.58 524.49C1144.58 519.571 1142.25 515.117 1139.58 511.129C1137.17 507.141 1134.44 505.014 1131.37 504.748C1128.16 505.014 1125.29 507.141 1122.76 511.129C1120.22 515.117 1117.89 519.571 1115.75 524.49C1113.75 529.276 1111.68 534.394 1109.54 539.845L1090.52 591.694C1089.19 594.486 1087.45 596.812 1085.32 598.673C1083.31 600.402 1080.24 601.266 1076.11 601.266C1072.23 601.266 1069.03 599.936 1066.49 597.278C1064.09 594.619 1063.02 591.428 1063.29 587.705C1063.42 585.977 1063.83 584.382 1064.49 582.919L1086.52 526.285C1092.66 511.395 1098.8 499.363 1104.94 490.19C1110.94 481.15 1119.75 476.563 1131.37 476.43C1142.85 476.563 1151.59 481.15 1157.6 490.19C1163.74 499.098 1169.88 511.129 1176.02 526.285L1198.04 582.919C1198.71 584.382 1199.11 585.977 1199.24 587.705C1199.51 591.428 1198.38 594.619 1195.84 597.278C1193.44 599.936 1190.3 601.266 1186.43 601.266C1182.02 601.266 1178.75 600.402 1176.62 598.673C1174.62 596.812 1172.95 594.486 1171.61 591.694L1167.81 581.324H1127.56C1123.83 581.324 1120.69 579.995 1118.15 577.336C1115.48 574.81 1114.15 571.686 1114.15 567.963Z" fill="url(#paint8_linear_176_74)"/>
<path d="M1283.14 475.832C1290.08 475.832 1296.89 476.63 1303.56 478.225C1310.37 479.82 1316.84 482.214 1322.98 485.404C1329.12 488.462 1334.53 492.583 1339.2 497.768C1344.01 502.953 1346.61 509.135 1347.01 516.314V588.304C1346.21 596.28 1341.8 600.601 1333.79 601.266C1330.06 601.266 1326.79 600.069 1323.98 597.676C1321.31 595.15 1319.98 592.026 1319.98 588.304V522.496C1319.71 518.375 1318.11 514.984 1315.17 512.326C1312.37 509.534 1309.17 507.34 1305.56 505.745C1302.09 504.149 1298.42 502.953 1294.55 502.155C1290.81 501.358 1287.01 500.959 1283.14 500.959C1279.27 500.959 1275.4 501.358 1271.52 502.155C1267.79 502.953 1264.12 504.149 1260.51 505.745C1257.04 507.34 1253.84 509.534 1250.9 512.326C1248.1 514.984 1246.56 518.375 1246.3 522.496V588.304C1245.63 596.28 1241.29 600.601 1233.28 601.266C1229.54 601.266 1226.27 600.069 1223.47 597.676C1220.8 595.15 1219.47 592.026 1219.47 588.304V516.314C1219.87 509.135 1222.4 502.953 1227.07 497.768C1231.75 492.583 1237.15 488.462 1243.29 485.404C1249.43 482.214 1255.84 479.82 1262.51 478.225C1269.32 476.63 1276.2 475.832 1283.14 475.832Z" fill="url(#paint9_linear_176_74)"/>
<path d="M1459.13 481.216C1468.48 481.748 1476.15 485.338 1482.16 491.985C1488.17 498.499 1492.5 505.944 1495.17 514.32C1497.84 522.695 1499.18 531.27 1499.18 540.045C1499.18 548.819 1497.84 557.394 1495.17 565.77C1492.64 574.145 1488.3 581.656 1482.16 588.304C1476.15 594.818 1468.48 598.341 1459.13 598.873H1385.45C1381.85 598.74 1378.78 597.477 1376.24 595.084C1373.84 592.558 1372.57 589.5 1372.44 585.911V536.455C1372.57 532.733 1373.97 529.675 1376.64 527.282C1379.31 524.756 1382.52 523.493 1386.25 523.493C1389.86 523.626 1392.93 524.955 1395.46 527.481C1398 529.874 1399.33 532.866 1399.47 536.455V566.767C1399.47 570.356 1401.34 572.151 1405.07 572.151H1452.33C1457.4 571.885 1461.6 569.957 1464.94 566.368C1468.28 562.778 1470.68 558.723 1472.15 554.203C1473.75 549.55 1474.55 544.831 1474.55 540.045C1474.55 535.259 1473.75 530.606 1472.15 526.085C1470.68 521.432 1468.28 517.311 1464.94 513.722C1461.6 510.132 1457.4 508.204 1452.33 507.938H1385.45C1377.44 507.274 1373.1 502.953 1372.44 494.976C1372.44 491.254 1373.64 488.063 1376.04 485.404C1378.58 482.745 1381.71 481.349 1385.45 481.216H1459.13Z" fill="url(#paint10_linear_176_74)"/>
<path d="M1753.06 494.577C1753.06 498.3 1751.73 501.424 1749.06 503.95C1746.52 506.609 1743.39 507.938 1739.65 507.938H1659.56C1657.02 508.071 1654.89 508.67 1653.15 509.733C1651.55 510.664 1650.35 511.794 1649.55 513.123C1648.75 514.32 1648.35 515.583 1648.35 516.912C1648.35 518.242 1648.75 519.571 1649.55 520.901C1650.35 522.097 1651.55 523.227 1653.15 524.291C1654.89 525.221 1657.02 525.753 1659.56 525.886H1716.42C1725.77 526.152 1733.44 528.345 1739.45 532.467C1745.59 536.455 1749.93 541.108 1752.46 546.426C1755.13 551.611 1756.47 556.929 1756.47 562.379C1756.47 567.697 1755.13 573.015 1752.46 578.333C1749.79 583.518 1745.45 588.171 1739.45 592.292C1733.44 596.28 1725.77 598.275 1716.42 598.275H1715.22C1714.42 598.408 1713.62 598.474 1712.82 598.474H1637.13C1633.4 598.474 1630.19 597.211 1627.52 594.685C1624.99 592.026 1623.72 588.836 1623.72 585.113C1623.72 581.391 1625.05 578.266 1627.72 575.74C1630.26 573.082 1633.4 571.752 1637.13 571.752H1717.62C1720.16 571.885 1722.23 571.42 1723.83 570.356C1725.57 569.293 1726.83 568.096 1727.63 566.767C1728.44 565.304 1728.84 563.842 1728.84 562.379C1728.84 561.449 1728.44 560.186 1727.63 558.59C1726.83 556.862 1725.57 555.466 1723.83 554.403C1722.23 553.339 1720.16 552.741 1717.62 552.608H1660.76C1651.42 552.342 1643.67 550.215 1637.53 546.227C1631.53 542.238 1627.19 537.718 1624.52 532.666C1621.98 527.481 1620.71 522.23 1620.71 516.912C1620.71 511.727 1622.05 506.609 1624.72 501.557C1627.39 496.372 1631.73 491.786 1637.73 487.797C1643.74 483.809 1651.42 481.682 1660.76 481.416H1661.96C1662.76 481.283 1663.56 481.216 1664.36 481.216H1739.65C1743.39 481.216 1746.52 482.546 1749.06 485.205C1751.73 487.731 1753.06 490.855 1753.06 494.577Z" fill="url(#paint11_linear_176_74)"/>
<path d="M1816.13 481.216H1893.42C1897.16 481.349 1900.23 482.745 1902.63 485.404C1905.17 488.063 1906.43 491.254 1906.43 494.976C1905.77 502.953 1901.43 507.274 1893.42 507.938H1822.94C1817.87 508.204 1813.66 510.132 1810.33 513.722C1806.99 517.311 1804.52 521.432 1802.92 526.085C1801.45 530.606 1800.72 535.259 1800.72 540.045C1800.72 544.831 1801.45 549.55 1802.92 554.203C1804.52 558.723 1806.99 562.778 1810.33 566.368C1813.66 569.957 1817.87 571.885 1822.94 572.151H1893.42C1897.16 572.284 1900.23 573.68 1902.63 576.339C1905.17 578.998 1906.43 582.188 1906.43 585.911C1906.3 589.5 1904.97 592.558 1902.43 595.084C1900.03 597.477 1897.02 598.74 1893.42 598.873H1816.13C1806.79 598.341 1799.05 594.818 1792.91 588.304C1786.9 581.656 1782.56 574.145 1779.89 565.77C1777.36 557.394 1776.09 548.819 1776.09 540.045C1776.09 531.27 1777.42 522.695 1780.09 514.32C1782.76 505.944 1787.1 498.499 1793.11 491.985C1799.11 485.338 1806.79 481.748 1816.13 481.216ZM1906.03 539.247C1906.03 542.969 1904.7 546.094 1902.03 548.62C1899.49 551.279 1896.36 552.608 1892.62 552.608H1832.15C1828.41 552.608 1825.21 551.345 1822.54 548.819C1820 546.16 1818.74 542.969 1818.74 539.247C1818.74 535.525 1820 532.334 1822.54 529.675C1825.21 527.149 1828.41 525.886 1832.15 525.886H1892.62C1896.36 525.886 1899.49 527.215 1902.03 529.874C1904.7 532.4 1906.03 535.525 1906.03 539.247Z" fill="url(#paint12_linear_176_74)"/>
<path d="M1953.49 588.703C1952.69 596.679 1948.28 601 1940.27 601.665C1936.53 601.665 1933.26 600.468 1930.46 598.075C1927.79 595.549 1926.46 592.425 1926.46 588.703V494.179C1926.59 490.456 1927.99 487.398 1930.66 485.005C1933.33 482.479 1936.53 481.216 1940.27 481.216H2024.17C2024.97 481.216 2025.77 481.283 2026.57 481.416H2027.77C2037.11 481.682 2044.79 483.809 2050.8 487.797C2056.8 491.786 2061.14 496.372 2063.81 501.557C2066.48 506.609 2067.81 511.727 2067.81 516.912C2067.81 522.23 2066.48 527.481 2063.81 532.666C2061.27 537.718 2056.94 542.238 2050.8 546.227C2044.79 550.215 2037.11 552.342 2027.77 552.608H1992.53C1993.6 559.255 1995.8 564.174 1999.14 567.365C2002.34 570.556 2006.41 572.151 2011.35 572.151H2054.6C2058.34 572.284 2061.41 573.68 2063.81 576.339C2066.35 578.998 2067.61 582.188 2067.61 585.911C2067.48 589.5 2066.15 592.558 2063.61 595.084C2061.21 597.477 2058.2 598.74 2054.6 598.873H2007.75C1997.87 599.006 1988.93 595.15 1980.92 587.307C1972.91 579.463 1968.04 570.157 1966.3 559.388C1963.9 547.423 1962.7 540.709 1962.7 539.247C1962.7 535.525 1963.97 532.4 1966.5 529.874C1969.17 527.215 1972.37 525.886 1976.11 525.886H2028.97C2031.51 525.753 2033.58 525.221 2035.18 524.291C2036.91 523.227 2038.18 522.097 2038.98 520.901C2039.78 519.571 2040.18 518.242 2040.18 516.912C2040.18 515.583 2039.78 514.32 2038.98 513.123C2038.18 511.794 2036.91 510.664 2035.18 509.733C2033.58 508.67 2031.51 508.071 2028.97 507.938H1958.69C1955.22 508.071 1953.49 509.8 1953.49 513.123V588.703Z" fill="url(#paint13_linear_176_74)"/>
<path d="M2127.68 588.304C2121.54 579.131 2115.4 567.099 2109.26 552.209L2087.24 495.574C2086.57 494.112 2086.17 492.517 2086.04 490.788C2085.77 487.066 2086.84 483.875 2089.24 481.216C2091.78 478.558 2094.98 477.228 2098.85 477.228C2102.99 477.228 2106.06 478.159 2108.06 480.02C2110.2 481.748 2111.93 484.008 2113.27 486.8L2132.29 538.649C2134.42 544.099 2136.49 549.284 2138.49 554.203C2140.63 558.989 2142.97 563.377 2145.5 567.365C2148.04 571.353 2150.91 573.48 2154.11 573.746C2157.18 573.48 2159.92 571.353 2162.32 567.365C2164.99 563.377 2167.33 558.989 2169.33 554.203C2171.46 549.284 2173.6 544.099 2175.74 538.649L2194.36 486.8C2195.69 484.008 2197.36 481.748 2199.36 480.02C2201.5 478.159 2204.77 477.228 2209.17 477.228C2213.04 477.228 2216.18 478.558 2218.58 481.216C2221.12 483.875 2222.25 487.066 2221.99 490.788C2221.85 492.517 2221.45 494.112 2220.79 495.574L2198.76 552.209C2192.62 567.365 2186.48 579.463 2180.34 588.503C2174.33 597.41 2165.59 601.931 2154.11 602.064C2142.5 601.931 2133.69 597.344 2127.68 588.304Z" fill="url(#paint14_linear_176_74)"/>
<path d="M2238.41 585.512C2238.41 581.789 2239.67 578.665 2242.21 576.139C2244.88 573.48 2248.08 572.151 2251.82 572.151H2290.26V507.938H2251.82C2248.08 507.938 2244.95 506.609 2242.41 503.95C2239.74 501.424 2238.41 498.3 2238.41 494.577C2238.41 490.855 2239.67 487.731 2242.21 485.205C2244.88 482.546 2248.08 481.216 2251.82 481.216H2355.54C2359.27 481.216 2362.48 482.479 2365.15 485.005C2367.68 487.664 2368.95 490.855 2368.95 494.577C2368.95 498.3 2367.62 501.491 2364.95 504.149C2362.41 506.675 2359.27 507.938 2355.54 507.938H2317.29V572.151H2355.54C2359.27 572.151 2362.48 573.414 2365.15 575.94C2367.68 578.599 2368.95 581.789 2368.95 585.512C2368.95 589.234 2367.62 592.425 2364.95 595.084C2362.41 597.61 2359.27 598.873 2355.54 598.873H2251.82C2248.08 598.873 2244.95 597.543 2242.41 594.885C2239.74 592.359 2238.41 589.234 2238.41 585.512Z" fill="url(#paint15_linear_176_74)"/>
<path d="M2435.23 507.938C2430.15 508.204 2425.88 510.132 2422.41 513.722C2419.07 517.311 2416.67 521.432 2415.2 526.085C2413.74 530.606 2413 535.259 2413 540.045C2413 544.831 2413.67 549.55 2415 554.203C2416.47 558.856 2418.94 562.978 2422.41 566.567C2425.88 570.024 2430.15 571.885 2435.23 572.151H2501.3C2509.71 572.949 2514.31 577.535 2515.12 585.911C2514.98 589.633 2513.58 592.757 2510.91 595.283C2508.24 597.676 2505.04 598.873 2501.3 598.873H2428.22C2418.87 598.341 2411.2 594.818 2405.19 588.304C2399.19 581.656 2394.85 574.145 2392.18 565.77C2389.64 557.394 2388.37 548.819 2388.37 540.045C2388.37 533.53 2389.11 527.082 2390.58 520.701C2392.04 514.32 2394.31 508.271 2397.38 502.554C2400.59 496.705 2404.79 491.719 2410 487.598C2415.34 483.476 2421.41 481.349 2428.22 481.216H2501.3C2509.71 482.014 2514.31 486.601 2515.12 494.976C2515.12 498.699 2513.71 501.823 2510.91 504.349C2508.24 506.742 2505.04 507.938 2501.3 507.938H2435.23Z" fill="url(#paint16_linear_176_74)"/>
<path d="M2570.78 481.216H2648.06C2651.8 481.349 2654.87 482.745 2657.27 485.404C2659.81 488.063 2661.08 491.254 2661.08 494.976C2660.41 502.953 2656.07 507.274 2648.06 507.938H2577.58C2572.51 508.204 2568.31 510.132 2564.97 513.722C2561.63 517.311 2559.16 521.432 2557.56 526.085C2556.09 530.606 2555.36 535.259 2555.36 540.045C2555.36 544.831 2556.09 549.55 2557.56 554.203C2559.16 558.723 2561.63 562.778 2564.97 566.368C2568.31 569.957 2572.51 571.885 2577.58 572.151H2648.06C2651.8 572.284 2654.87 573.68 2657.27 576.339C2659.81 578.998 2661.08 582.188 2661.08 585.911C2660.94 589.5 2659.61 592.558 2657.07 595.084C2654.67 597.477 2651.67 598.74 2648.06 598.873H2570.78C2561.43 598.341 2553.69 594.818 2547.55 588.304C2541.54 581.656 2537.21 574.145 2534.54 565.77C2532 557.394 2530.73 548.819 2530.73 540.045C2530.73 531.27 2532.07 522.695 2534.74 514.32C2537.41 505.944 2541.74 498.499 2547.75 491.985C2553.76 485.338 2561.43 481.748 2570.78 481.216ZM2660.68 539.247C2660.68 542.969 2659.34 546.094 2656.67 548.62C2654.14 551.279 2651 552.608 2647.26 552.608H2586.8C2583.06 552.608 2579.85 551.345 2577.18 548.819C2574.65 546.16 2573.38 542.969 2573.38 539.247C2573.38 535.525 2574.65 532.334 2577.18 529.675C2579.85 527.149 2583.06 525.886 2586.8 525.886H2647.26C2651 525.886 2654.14 527.215 2656.67 529.874C2659.34 532.4 2660.68 535.525 2660.68 539.247Z" fill="url(#paint17_linear_176_74)"/>
<path fill-rule="evenodd" clip-rule="evenodd" d="M332.047 587.554C476.528 587.554 593.654 470.9 593.654 327C593.654 183.1 476.528 66.4463 332.047 66.4463C187.565 66.4463 70.4399 183.1 70.4399 327C70.4399 470.9 187.565 587.554 332.047 587.554ZM332.047 653.726C513.222 653.726 660.094 507.446 660.094 327C660.094 146.554 513.222 0.273926 332.047 0.273926C150.872 0.273926 4 146.554 4 327C4 507.446 150.872 653.726 332.047 653.726Z" fill="url(#paint18_linear_176_74)"/>
<path d="M329.971 169.841C322.168 169.841 314.542 172.145 308.055 176.463C301.567 180.78 296.511 186.916 293.525 194.095C290.539 201.275 289.758 209.174 291.28 216.796C292.803 224.417 296.559 231.418 302.076 236.913C307.593 242.408 314.622 246.15 322.274 247.666C329.927 249.182 337.859 248.404 345.067 245.43C352.276 242.456 358.437 237.42 362.771 230.959C367.106 224.498 369.42 216.902 369.42 209.131C369.42 203.971 368.399 198.862 366.416 194.095C364.434 189.328 361.528 184.997 357.865 181.349C354.202 177.7 349.853 174.806 345.067 172.832C340.281 170.857 335.151 169.841 329.971 169.841Z" fill="url(#paint19_linear_176_74)"/>
<path d="M454.181 439.503C445.681 424.921 435.316 411.489 423.344 399.54C413.287 390.04 402.229 381.64 390.359 374.485C404.694 369.325 418.29 362.334 430.801 353.689C460.554 333.125 483.245 304.026 495.826 270.304C508.408 236.582 510.277 199.85 501.182 165.044C492.087 130.238 472.465 99.0244 444.95 75.5966C417.436 52.1687 383.346 37.6487 347.263 33.9872C341.323 33.9872 335.257 33.3608 329.191 33.3608H322.619C286.614 34.7259 251.882 46.9162 223.032 68.3126L217.345 59.2928L201.294 33.4861H145.181V645.455H217.471V395.155H288.37C306.24 394.71 323.839 399.551 338.922 409.061C353.077 418.331 369.886 439.127 389.475 471.699L413.234 510.659H275.479V558.765H442.554L495.128 645.079H581.193L454.181 439.503ZM328.938 320.366C299.375 320.366 271.023 308.725 250.119 288.004C229.215 267.282 217.471 239.178 217.471 209.874C217.471 180.569 229.215 152.465 250.119 131.743C271.023 111.022 299.375 99.3808 328.938 99.3808C331.971 99.3808 334.751 99.3808 337.658 99.3808H342.967L348.401 100.132L352.445 100.884C379.321 106.656 403.097 122.073 419.2 144.169C435.303 166.266 442.597 193.484 439.681 220.589C436.765 247.695 423.843 272.775 403.401 291.008C382.958 309.241 356.438 320.343 328.938 320.366Z" fill="url(#paint20_linear_176_74)"/>
<path d="M2883.51 563.875H2919.05V552.076H2883.51V563.875Z" fill="#FF9900"/>
<path fill-rule="evenodd" clip-rule="evenodd" d="M2877.6 422.295C2872.89 422.295 2868.37 424.16 2865.03 427.479C2861.7 430.798 2859.83 435.299 2859.83 439.993V457.69H2782.83C2778.12 457.69 2773.6 459.555 2770.27 462.874C2766.93 466.193 2765.06 470.694 2765.06 475.388V546.179C2765.06 550.872 2766.93 555.374 2770.27 558.693C2773.6 562.012 2778.12 563.876 2782.83 563.876H2836.14V587.473H2812.45V599.272H2924.98C2929.7 599.272 2934.22 597.407 2937.55 594.088C2940.88 590.769 2942.75 586.268 2942.75 581.574V439.993C2942.75 435.299 2940.88 430.798 2937.55 427.479C2934.22 424.16 2929.7 422.295 2924.98 422.295H2877.6ZM2860.84 587.473H2847.98V563.876H2859.83V581.574C2859.84 583.651 2860.17 585.617 2860.84 587.473ZM2877.6 587.473H2924.98C2926.56 587.473 2928.06 586.852 2929.17 585.745C2930.28 584.639 2930.91 583.139 2930.91 581.574V493.086H2871.68V581.574C2871.68 583.139 2872.3 584.639 2873.41 585.745C2874.52 586.852 2876.03 587.473 2877.6 587.473ZM2871.68 481.287H2930.91V439.993C2930.91 438.428 2930.28 436.928 2929.17 435.821C2928.06 434.715 2926.56 434.094 2924.98 434.094H2877.6C2876.03 434.094 2874.52 434.715 2873.41 435.821C2872.3 436.928 2871.68 438.428 2871.68 439.993V481.287Z" fill="url(#paint21_linear_176_74)"/>
</g>
<g filter="url(#filter1_d_176_74)">
<path fill-rule="evenodd" clip-rule="evenodd" d="M882.844 565.31C883.359 566.043 883.724 566.869 883.919 567.742C884.113 568.615 884.132 569.517 883.976 570.398C883.82 571.278 883.491 572.12 883.009 572.874C882.526 573.628 881.899 574.279 881.163 574.792C880.329 575.333 879.592 576.009 878.983 576.793L878.819 577.079L879.058 577.474C879.263 577.746 879.591 578.12 880.152 578.597C881.724 579.931 884.389 581.435 888.285 582.838C896.035 585.621 907.175 587.473 919.798 587.473C932.427 587.473 943.567 585.621 951.304 582.844C955.199 581.435 957.871 579.931 959.437 578.597C959.843 578.266 960.21 577.889 960.53 577.474L960.776 577.079L960.612 576.807C960.023 576.019 959.296 575.343 958.466 574.812C957.71 574.307 957.063 573.657 956.564 572.899C956.064 572.141 955.721 571.292 955.555 570.4C955.389 569.509 955.404 568.593 955.598 567.708C955.793 566.822 956.163 565.984 956.687 565.242C957.211 564.501 957.878 563.871 958.65 563.391C959.421 562.91 960.282 562.587 961.18 562.442C962.079 562.297 962.997 562.332 963.882 562.545C964.767 562.758 965.6 563.145 966.332 563.683C970.419 566.549 974.472 570.994 974.472 577.079C974.472 582.204 971.561 586.193 968.321 588.95C965.041 591.741 960.708 593.933 955.951 595.648C946.369 599.085 933.589 601.087 919.798 601.087C906.006 601.087 893.226 599.085 883.644 595.641C878.887 593.939 874.554 591.734 871.281 588.95C868.034 586.193 865.123 582.211 865.123 577.079C865.123 570.966 869.21 566.508 873.324 563.636C874.06 563.123 874.889 562.759 875.766 562.566C876.642 562.372 877.549 562.353 878.433 562.508C879.317 562.664 880.161 562.991 880.918 563.472C881.675 563.953 882.33 564.577 882.844 565.31ZM919.798 464.951C934.298 464.951 948.205 470.688 958.458 480.9C968.712 491.112 974.472 504.963 974.472 519.405C974.472 533.847 968.712 547.698 958.458 557.91C948.205 568.122 934.298 573.859 919.798 573.859C905.297 573.859 891.39 568.122 881.137 557.91C870.883 547.698 865.123 533.847 865.123 519.405C865.123 504.963 870.883 491.112 881.137 480.9C891.39 470.688 905.297 464.951 919.798 464.951ZM919.798 478.564C908.922 478.564 898.492 482.867 890.802 490.526C883.112 498.185 878.792 508.573 878.792 519.405C878.792 530.237 883.112 540.625 890.802 548.284C898.492 555.943 908.922 560.246 919.798 560.246C930.673 560.246 941.103 555.943 948.793 548.284C956.483 540.625 960.803 530.237 960.803 519.405C960.803 508.573 956.483 498.185 948.793 490.526C941.103 482.867 930.673 478.564 919.798 478.564ZM919.798 492.178C927.048 492.178 934.001 495.046 939.128 500.152C944.255 505.259 947.135 512.184 947.135 519.405C947.135 526.626 944.255 533.551 939.128 538.658C934.001 543.764 927.048 546.632 919.798 546.632C912.547 546.632 905.594 543.764 900.467 538.658C895.34 533.551 892.46 526.626 892.46 519.405C892.46 512.184 895.34 505.259 900.467 500.152C905.594 495.046 912.547 492.178 919.798 492.178ZM919.798 505.791C916.172 505.791 912.696 507.226 910.132 509.779C907.569 512.332 906.129 515.795 906.129 519.405C906.129 523.016 907.569 526.478 910.132 529.031C912.696 531.584 916.172 533.019 919.798 533.019C923.423 533.019 926.899 531.584 929.463 529.031C932.026 526.478 933.466 523.016 933.466 519.405C933.466 515.795 932.026 512.332 929.463 509.779C926.899 507.226 923.423 505.791 919.798 505.791Z" fill="url(#paint22_linear_176_74)"/>
</g>
<defs>
<filter id="filter0_d_176_74" x="0" y="0.273926" width="3398.69" height="661.452" filterUnits="userSpaceOnUse" color-interpolation-filters="sRGB">
<feFlood flood-opacity="0" result="BackgroundImageFix"/>
<feColorMatrix in="SourceAlpha" type="matrix" values="0 0 0 0 0 0 0 0 0 0 0 0 0 0 0 0 0 0 127 0" result="hardAlpha"/>
<feOffset dy="4"/>
<feGaussianBlur stdDeviation="2"/>
<feComposite in2="hardAlpha" operator="out"/>
<feColorMatrix type="matrix" values="0 0 0 0 0 0 0 0 0 0 0 0 0 0 0 0 0 0 0.25 0"/>
<feBlend mode="normal" in2="BackgroundImageFix" result="effect1_dropShadow_176_74"/>
<feBlend mode="normal" in="SourceGraphic" in2="effect1_dropShadow_176_74" result="shape"/>
</filter>
<filter id="filter1_d_176_74" x="861.123" y="464.951" width="117.349" height="144.136" filterUnits="userSpaceOnUse" color-interpolation-filters="sRGB">
<feFlood flood-opacity="0" result="BackgroundImageFix"/>
<feColorMatrix in="SourceAlpha" type="matrix" values="0 0 0 0 0 0 0 0 0 0 0 0 0 0 0 0 0 0 127 0" result="hardAlpha"/>
<feOffset dy="4"/>
<feGaussianBlur stdDeviation="2"/>
<feComposite in2="hardAlpha" operator="out"/>
<feColorMatrix type="matrix" values="0 0 0 0 0 0 0 0 0 0 0 0 0 0 0 0 0 0 0.25 0"/>
<feBlend mode="normal" in2="BackgroundImageFix" result="effect1_dropShadow_176_74"/>
<feBlend mode="normal" in="SourceGraphic" in2="effect1_dropShadow_176_74" result="shape"/>
</filter>
<linearGradient id="paint0_linear_176_74" x1="-464.238" y1="702.293" x2="-261.302" y2="-811.72" gradientUnits="userSpaceOnUse">
<stop stop-color="#FF6A00"/>
<stop offset="0.629905" stop-color="#FFC933"/>
</linearGradient>
<linearGradient id="paint1_linear_176_74" x1="-464.238" y1="702.293" x2="-261.302" y2="-811.72" gradientUnits="userSpaceOnUse">
<stop stop-color="#FF6A00"/>
<stop offset="0.629905" stop-color="#FFC933"/>
</linearGradient>
<linearGradient id="paint2_linear_176_74" x1="-464.238" y1="702.293" x2="-261.302" y2="-811.72" gradientUnits="userSpaceOnUse">
<stop stop-color="#FF6A00"/>
<stop offset="0.629905" stop-color="#FFC933"/>
</linearGradient>
<linearGradient id="paint3_linear_176_74" x1="-464.238" y1="702.293" x2="-261.302" y2="-811.72" gradientUnits="userSpaceOnUse">
<stop stop-color="#FF6A00"/>
<stop offset="0.629905" stop-color="#FFC933"/>
</linearGradient>
<linearGradient id="paint4_linear_176_74" x1="-464.238" y1="702.293" x2="-261.302" y2="-811.72" gradientUnits="userSpaceOnUse">
<stop stop-color="#FF6A00"/>
<stop offset="0.629905" stop-color="#FFC933"/>
</linearGradient>
<linearGradient id="paint5_linear_176_74" x1="-464.238" y1="702.293" x2="-261.302" y2="-811.72" gradientUnits="userSpaceOnUse">
<stop stop-color="#FF6A00"/>
<stop offset="0.629905" stop-color="#FFC933"/>
</linearGradient>
<linearGradient id="paint6_linear_176_74" x1="-464.238" y1="702.293" x2="-261.302" y2="-811.72" gradientUnits="userSpaceOnUse">
<stop stop-color="#0C4DA1"/>
<stop offset="0.629905" stop-color="#2575EF"/>
</linearGradient>
<linearGradient id="paint7_linear_176_74" x1="-464.238" y1="702.293" x2="-261.302" y2="-811.72" gradientUnits="userSpaceOnUse">
<stop stop-color="#0C4DA1"/>
<stop offset="0.629905" stop-color="#2575EF"/>
</linearGradient>
<linearGradient id="paint8_linear_176_74" x1="-464.238" y1="702.293" x2="-261.302" y2="-811.72" gradientUnits="userSpaceOnUse">
<stop stop-color="#0C4DA1"/>
<stop offset="0.629905" stop-color="#2575EF"/>
</linearGradient>
<linearGradient id="paint9_linear_176_74" x1="-464.238" y1="702.293" x2="-261.302" y2="-811.72" gradientUnits="userSpaceOnUse">
<stop stop-color="#0C4DA1"/>
<stop offset="0.629905" stop-color="#2575EF"/>
</linearGradient>
<linearGradient id="paint10_linear_176_74" x1="-464.238" y1="702.293" x2="-261.302" y2="-811.72" gradientUnits="userSpaceOnUse">
<stop stop-color="#0C4DA1"/>
<stop offset="0.629905" stop-color="#2575EF"/>
</linearGradient>
<linearGradient id="paint11_linear_176_74" x1="-464.238" y1="702.293" x2="-261.302" y2="-811.72" gradientUnits="userSpaceOnUse">
<stop stop-color="#0C4DA1"/>
<stop offset="0.629905" stop-color="#2575EF"/>
</linearGradient>
<linearGradient id="paint12_linear_176_74" x1="-464.238" y1="702.293" x2="-261.302" y2="-811.72" gradientUnits="userSpaceOnUse">
<stop stop-color="#0C4DA1"/>
<stop offset="0.629905" stop-color="#2575EF"/>
</linearGradient>
<linearGradient id="paint13_linear_176_74" x1="-464.238" y1="702.293" x2="-261.302" y2="-811.72" gradientUnits="userSpaceOnUse">
<stop stop-color="#0C4DA1"/>
<stop offset="0.629905" stop-color="#2575EF"/>
</linearGradient>
<linearGradient id="paint14_linear_176_74" x1="-464.238" y1="702.293" x2="-261.302" y2="-811.72" gradientUnits="userSpaceOnUse">
<stop stop-color="#0C4DA1"/>
<stop offset="0.629905" stop-color="#2575EF"/>
</linearGradient>
<linearGradient id="paint15_linear_176_74" x1="-464.238" y1="702.293" x2="-261.302" y2="-811.72" gradientUnits="userSpaceOnUse">
<stop stop-color="#0C4DA1"/>
<stop offset="0.629905" stop-color="#2575EF"/>
</linearGradient>
<linearGradient id="paint16_linear_176_74" x1="-464.238" y1="702.293" x2="-261.302" y2="-811.72" gradientUnits="userSpaceOnUse">
<stop stop-color="#0C4DA1"/>
<stop offset="0.629905" stop-color="#2575EF"/>
</linearGradient>
<linearGradient id="paint17_linear_176_74" x1="-464.238" y1="702.293" x2="-261.302" y2="-811.72" gradientUnits="userSpaceOnUse">
<stop stop-color="#0C4DA1"/>
<stop offset="0.629905" stop-color="#2575EF"/>
</linearGradient>
<linearGradient id="paint18_linear_176_74" x1="3394.69" y1="-50.5011" x2="3260.49" y2="1171.7" gradientUnits="userSpaceOnUse">
<stop stop-color="#2575EF"/>
<stop offset="1" stop-color="#0C4DA1"/>
</linearGradient>
<linearGradient id="paint19_linear_176_74" x1="-464.238" y1="702.293" x2="-261.302" y2="-811.72" gradientUnits="userSpaceOnUse">
<stop stop-color="#FF6A00"/>
<stop offset="0.629905" stop-color="#FFC933"/>
</linearGradient>
<linearGradient id="paint20_linear_176_74" x1="-464.238" y1="702.293" x2="-261.302" y2="-811.72" gradientUnits="userSpaceOnUse">
<stop stop-color="#0C4DA1"/>
<stop offset="0.629905" stop-color="#2575EF"/>
</linearGradient>
<linearGradient id="paint21_linear_176_74" x1="2769.74" y1="566.671" x2="2876.96" y2="482.42" gradientUnits="userSpaceOnUse">
<stop stop-color="#FF9900"/>
<stop offset="1" stop-color="#FFC933"/>
</linearGradient>
<linearGradient id="paint22_linear_176_74" x1="919.798" y1="464.951" x2="919.798" y2="601.087" gradientUnits="userSpaceOnUse">
<stop stop-color="#2575EF"/>
<stop offset="1" stop-color="#0C4DA1"/>
</linearGradient>
</defs>
</svg>
