<svg width="621" height="378" viewBox="0 0 621 378" fill="none" xmlns="http://www.w3.org/2000/svg">
<path d="M439.649 377.28C415.041 337.151 349.54 353.1 324.795 352.179C300.051 351.259 280.295 334.829 280.295 334.829C245.27 306.142 209.366 317.207 209.366 317.207C161.404 329.548 171.246 346.49 138.396 351.238C105.546 355.986 84.441 328.136 53.4214 318.681C22.4019 309.227 0 320.773 0 320.773V377.3L439.649 377.28Z" fill="url(#paint0_linear_177_40)"/>
<path d="M438.583 377.28C427.288 355.097 397.711 349.345 372.475 350.412C347.239 351.479 320.528 356.394 297.729 345.716C286.716 340.55 277.649 332.12 267.149 326.013C235.68 307.7 192.455 314.676 165.577 339.253C163.579 310.503 176.736 281.941 198.563 262.666C211.845 250.942 228.097 243.057 243.032 233.383C257.966 223.709 272.242 211.472 278.182 194.927C283.495 180.15 281.529 163.678 286.11 148.659C291.967 129.468 308.449 114.408 327.473 107.15C346.497 99.892 367.79 99.8293 387.797 103.803C398.328 105.895 409.33 109.095 419.569 105.895C430.739 102.433 438.29 92.1319 442.902 81.5689C447.514 71.006 452.314 58.6546 457.46 48.3218C472.102 18.7664 495.978 4.3966 523.724 0.725705C559.063 -3.97011 601.179 14.5516 620.652 43.8665V377.28H438.583Z" fill="url(#paint1_linear_177_40)"/>
<path d="M437.474 203.43C441.644 203.43 445.025 197.928 445.025 191.141C445.025 184.355 441.644 178.853 437.474 178.853C433.304 178.853 429.923 184.355 429.923 191.141C429.923 197.928 433.304 203.43 437.474 203.43Z" fill="#FFC933"/>
<path d="M461.539 219.871C459.952 220.462 458.233 220.603 456.571 220.278C452.197 219.941 447.962 218.591 444.199 216.336C440.549 213.941 437.715 209.998 437.505 205.637C437.369 202.667 438.405 199.801 439.095 196.914C440.087 192.712 440.331 188.369 439.817 184.082" fill="#0B0042"/>
<path d="M478.084 206.662C476.36 210.307 476.047 214.462 477.206 218.325C478.365 222.187 480.913 225.484 484.359 227.579C484.81 227.781 485.179 228.132 485.405 228.572C485.624 229.231 485.133 229.89 484.641 230.381C482.413 232.613 479.647 234.23 476.609 235.077C472.081 236.322 467.259 235.778 462.616 235.077C459.018 234.533 455.107 233.697 452.837 230.894C455.112 228.568 456.65 225.622 457.258 222.426C457.866 219.23 457.518 215.925 456.257 212.926" fill="#FFC3C5"/>
<path d="M478.9 202.803C477.038 207.174 477.666 208.168 474.654 211.452C473.995 212.163 471.913 214.673 470.951 215.635C469.603 216.671 468.157 217.571 466.632 218.323C465.212 219.094 463.675 219.627 462.083 219.902C460.064 220.132 459.102 220.237 457.554 219.17C457.554 219.17 457.335 214.987 456.508 213.711" fill="#FF9798"/>
<path d="M434.765 179.972C436.397 185.787 432.579 191.591 431.356 197.511C430.048 203.786 432.119 211.012 437.265 214.913C435.485 210.775 435.28 206.129 436.69 201.851C437.735 198.839 439.471 196.109 440.224 193.034C441.03 189.74 440.601 186.278 440.162 182.911" fill="#0B0042"/>
<path d="M456.519 153.062C465.513 146.861 481.493 149.988 488.563 157.884C494.033 163.991 496.438 172.212 500.82 179.146C503.033 182.613 504.635 186.433 505.558 190.441C506.97 197.699 505.474 205.156 498.739 208.994C502.797 202.332 500.35 194.781 494.619 191.936" fill="#0B0042"/>
<path d="M447.828 169.158C444.69 171.417 441.417 175.747 440.789 179.543C440.162 183.34 442.881 186.864 443.477 190.43C444.356 195.555 443.216 200.01 445.422 204.727C446.816 207.523 448.696 210.048 450.976 212.184C452.942 213.847 454.417 215.656 456.958 216.137C458.945 216.513 460.273 215.928 462.187 215.426C467.816 213.856 472.998 210.991 477.32 207.059C481.744 202.677 483.261 200.721 484.704 194.666C486.034 188.548 485.905 182.203 484.328 176.144" fill="#FFC7C9"/>
<path d="M441.155 184.448C442.746 180.688 445.084 177.29 448.027 174.46C448.403 174.048 448.868 173.726 449.386 173.519C451.279 172.913 452.712 175.14 453.935 176.719C457.219 180.903 466.214 184.72 471.516 184.04C476.809 183.344 482.15 183.075 487.486 183.235C484.035 175.088 474.727 163.824 466.956 159.568C463.819 157.852 460.294 156.535 456.738 156.974C451.405 157.633 447.326 162.015 444.052 166.251C442.389 168.342 440.685 170.884 441.145 173.571" fill="#FF9798"/>
<path d="M451.499 161.691C450.965 168.687 444.115 172.682 442.808 179.585C442.489 181.889 442.489 184.225 442.808 186.529C443.379 189.564 444.408 192.495 445.862 195.22C442.337 194.666 437.976 190.483 436.627 187.188C434.111 181.174 434.062 174.412 436.491 168.363C439.001 162.423 444.115 152.613 457.585 153.062" fill="#0B0042"/>
<path d="M442.442 163.165C448.905 166.041 451.342 174.126 457.083 178.215C460.352 180.702 464.227 182.27 468.305 182.754C470.848 182.748 473.377 182.396 475.825 181.708C473.304 179.344 469.55 176.207 469.55 172.745C471.651 175.581 474.294 177.972 477.326 179.778C480.359 181.584 483.72 182.77 487.214 183.266L480.667 166.271C480.158 164.863 479.557 163.49 478.868 162.161C477.327 159.536 475.19 157.31 472.63 155.663C470.071 154.015 467.16 152.992 464.132 152.676C458.031 152.111 451.926 153.703 446.876 157.173C444.617 158.668 442.442 160.603 441.647 163.197" fill="#0B0042"/>
<path d="M489.4 166.669C488.597 165.165 487.681 163.725 486.66 162.36C484.939 160.059 482.759 158.139 480.259 156.723C476.413 154.614 471.945 153.936 467.646 154.809L475.95 173.53C476.191 174.283 476.473 175.077 476.756 175.872L473.566 176.813C473.566 176.813 478.9 180.537 478.9 191.664C478.9 200.397 476.316 204.058 475.511 208.68C475.21 210.054 475.15 211.469 475.333 212.863C475.49 214.254 475.773 215.74 475.992 217.497C475.989 217.76 476.041 218.021 476.145 218.262C476.25 218.504 476.404 218.721 476.599 218.898C477.057 219.127 477.587 219.164 478.073 219.003C481.706 218.367 485.228 217.211 488.532 215.572C491.774 213.826 495.424 211.044 496.825 207.634C497.749 205.344 498.286 202.916 498.415 200.449C498.99 188.652 495.121 177.012 489.4 166.669Z" fill="#0B0042"/>
<path d="M452.544 188.433C452.338 191.091 451.709 193.7 450.683 196.161C450.634 196.272 450.608 196.391 450.608 196.512C450.608 196.632 450.634 196.752 450.683 196.862C450.724 196.941 450.781 197.01 450.852 197.064C450.922 197.119 451.004 197.157 451.091 197.176C452.289 197.624 453.567 197.82 454.845 197.751C454.549 194.543 453.759 191.4 452.503 188.433" fill="#FF9798"/>
<path d="M449.208 182.064C446.92 181.821 444.607 182.012 442.389 182.628C441.496 182.869 440.649 183.254 439.879 183.768C439.135 184.334 438.571 185.104 438.258 185.985C437.965 186.676 439.106 187.031 439.388 186.299C439.646 185.599 440.127 185.003 440.758 184.605C441.487 184.18 442.272 183.86 443.09 183.653C445.092 183.173 447.161 183.035 449.208 183.245C449.961 183.319 449.951 182.137 449.208 182.064Z" fill="#0B0042"/>
<path d="M446.97 190.43C447.64 190.43 448.183 189.737 448.183 188.883C448.183 188.028 447.64 187.335 446.97 187.335C446.3 187.335 445.757 188.028 445.757 188.883C445.757 189.737 446.3 190.43 446.97 190.43Z" fill="#0B0042"/>
<path d="M464.07 188.903C464.74 188.903 465.283 188.21 465.283 187.356C465.283 186.501 464.74 185.808 464.07 185.808C463.4 185.808 462.856 186.501 462.856 187.356C462.856 188.21 463.4 188.903 464.07 188.903Z" fill="#0B0042"/>
<path d="M449.721 202.395L464.195 200.721C464.195 200.721 460.754 206.651 456.749 207.205C451.342 207.958 449.721 202.395 449.721 202.395Z" fill="white"/>
<path d="M469.111 199.006C471.069 199.006 472.656 197.419 472.656 195.461C472.656 193.503 471.069 191.915 469.111 191.915C467.153 191.915 465.565 193.503 465.565 195.461C465.565 197.419 467.153 199.006 469.111 199.006Z" fill="#FF9798"/>
<path d="M446.687 202.123C447.825 201.929 448.482 200.207 448.153 198.276C447.824 196.346 446.634 194.939 445.495 195.133C444.357 195.327 443.7 197.049 444.029 198.979C444.358 200.909 445.548 202.317 446.687 202.123Z" fill="#FF9798"/>
<path d="M459.97 181.854C461.886 181.084 463.92 180.649 465.984 180.568C466.804 180.54 467.624 180.628 468.42 180.829C469.195 181.056 469.87 181.539 470.334 182.199C470.805 182.796 471.642 181.948 471.161 181.363C470.634 180.64 469.907 180.087 469.069 179.773C468.174 179.503 467.243 179.372 466.308 179.386C464.046 179.423 461.809 179.873 459.709 180.714C459.008 180.986 459.311 182.126 460.022 181.854H459.97Z" fill="#0B0042"/>
<path d="M483.072 203.43C488.334 203.43 492.6 197.928 492.6 191.141C492.6 184.355 488.334 178.853 483.072 178.853C477.811 178.853 473.545 184.355 473.545 191.141C473.545 197.928 477.811 203.43 483.072 203.43Z" fill="#FFC933"/>
<path d="M484.16 179.941C483.751 177.244 483.049 174.6 482.069 172.055C480.186 167.003 477.362 162.057 473.085 158.658C470.645 156.704 467.778 155.353 464.718 154.715C461.125 154.014 457.419 154.143 453.883 155.091C451.056 155.904 448.438 157.32 446.212 159.244C443.985 161.167 442.203 163.55 440.988 166.23C439.161 170.248 438.012 174.542 437.589 178.937C437.589 179.24 437.516 179.533 437.484 179.836C437.484 180.113 437.595 180.379 437.791 180.575C437.987 180.772 438.253 180.882 438.53 180.882C438.808 180.882 439.074 180.772 439.27 180.575C439.466 180.379 439.576 180.113 439.576 179.836C439.576 179.533 439.649 179.24 439.681 178.937L439.744 178.455V178.183C439.744 177.88 439.744 178.34 439.744 178.037C439.869 177.159 440.005 176.28 440.172 175.412C440.596 173.177 441.223 170.986 442.044 168.865C443.927 164.138 447.357 159.756 452.335 157.779C455.265 156.591 458.433 156.115 461.582 156.39C464.731 156.664 467.77 157.682 470.449 159.358C474.716 162.193 477.697 166.92 479.548 171.469C480.311 173.36 480.947 175.299 481.452 177.274C481.703 178.319 481.87 179.365 482.1 180.348C482.1 180.401 482.1 180.453 482.1 180.495C482.126 180.638 482.181 180.774 482.262 180.894C482.344 181.015 482.449 181.117 482.572 181.194C482.695 181.272 482.833 181.322 482.977 181.344C483.121 181.365 483.267 181.356 483.407 181.317C483.547 181.278 483.678 181.211 483.791 181.119C483.903 181.027 483.995 180.913 484.061 180.783C484.127 180.654 484.165 180.512 484.173 180.367C484.181 180.222 484.159 180.077 484.108 179.941H484.16Z" fill="#FFC933"/>
<path d="M484.139 200.261C488.35 200.261 491.763 195.86 491.763 190.43C491.763 185.001 488.35 180.599 484.139 180.599C479.929 180.599 476.515 185.001 476.515 190.43C476.515 195.86 479.929 200.261 484.139 200.261Z" fill="#FF9900"/>
<path d="M482.257 197.029C478.392 200.408 474.107 203.273 469.508 205.553C467.141 206.776 464.695 207.842 462.187 208.743C461.476 209.004 461.779 210.144 462.501 209.883C469.538 207.333 476.093 203.613 481.891 198.881C482.299 198.556 482.696 198.222 483.094 197.835C483.491 197.448 482.822 196.486 482.257 196.998V197.029Z" fill="#0B0042"/>
<path d="M461.895 211.512C463.29 211.004 464.179 209.928 463.88 209.108C463.582 208.289 462.209 208.036 460.814 208.545C459.419 209.053 458.531 210.129 458.829 210.949C459.128 211.768 460.501 212.02 461.895 211.512Z" fill="#0B0042"/>
<path d="M601.378 317.249H269.586C265.099 317.249 260.612 317.165 256.136 317.249H255.54C255.104 317.282 254.697 317.479 254.4 317.8C254.103 318.121 253.939 318.542 253.939 318.979C253.939 319.416 254.103 319.838 254.4 320.158C254.697 320.479 255.104 320.676 255.54 320.71H587.343C591.819 320.71 596.305 320.794 600.792 320.71H601.378C601.814 320.676 602.221 320.479 602.517 320.158C602.814 319.838 602.979 319.416 602.979 318.979C602.979 318.542 602.814 318.121 602.517 317.8C602.221 317.479 601.814 317.282 601.378 317.249Z" fill="#0B0042"/>
<path opacity="0.17" d="M565.704 189.186C578.544 189.186 588.953 178.777 588.953 165.937C588.953 153.097 578.544 142.688 565.704 142.688C552.864 142.688 542.455 153.097 542.455 165.937C542.455 178.777 552.864 189.186 565.704 189.186Z" fill="url(#paint2_linear_177_40)"/>
<path d="M564.92 180.547C566.251 180.242 567.505 179.67 568.608 178.864C569.71 178.059 570.636 177.037 571.331 175.862C571.549 175.469 571.745 175.064 571.917 174.648C573.391 171.793 573.266 167.077 573.161 165.497C573.21 162.28 572.394 159.109 570.797 156.315C570.597 155.862 570.333 155.439 570.013 155.06C569.136 153.96 568.042 153.053 566.798 152.396C565.555 151.74 564.189 151.347 562.786 151.243C561.469 151.086 560.193 151.786 560.255 152.623L560.862 160.833C560.925 161.659 562.263 162.161 563.529 161.879C564.84 161.546 566.102 161.043 567.283 160.383C567.952 162.131 568.306 163.982 568.329 165.853V165.916C568.442 167.605 568.376 169.302 568.131 170.978C566.869 170.483 565.546 170.159 564.198 170.015C562.88 169.859 561.605 170.559 561.667 171.406L562.274 179.616C562.358 180.432 563.654 180.882 564.92 180.547Z" fill="url(#paint3_linear_177_40)"/>
<path opacity="0.26" d="M464.247 135.357C473.518 135.357 481.033 127.841 481.033 118.571C481.033 109.3 473.518 101.785 464.247 101.785C454.977 101.785 447.462 109.3 447.462 118.571C447.462 127.841 454.977 135.357 464.247 135.357Z" fill="url(#paint4_linear_177_40)"/>
<path d="M470.941 115.59C470.992 114.68 470.856 113.768 470.543 112.912C470.23 112.056 469.745 111.272 469.118 110.61C468.492 109.947 467.737 109.419 466.899 109.059C466.062 108.698 465.159 108.512 464.247 108.512C463.336 108.512 462.433 108.698 461.596 109.059C460.758 109.419 460.003 109.947 459.377 110.61C458.75 111.272 458.265 112.056 457.952 112.912C457.639 113.768 457.503 114.68 457.554 115.59C457.556 116.398 457.69 117.2 457.952 117.964V118.037C458.09 118.398 458.254 118.747 458.443 119.083L464.457 128.621L470.282 118.539C470.704 117.613 470.929 116.608 470.941 115.59ZM464.446 118.613C463.809 118.613 463.186 118.424 462.657 118.07C462.127 117.716 461.714 117.213 461.47 116.624C461.226 116.036 461.163 115.388 461.287 114.763C461.411 114.138 461.718 113.564 462.169 113.114C462.619 112.663 463.193 112.356 463.818 112.232C464.443 112.108 465.09 112.172 465.679 112.415C466.268 112.659 466.771 113.072 467.124 113.602C467.478 114.132 467.667 114.754 467.667 115.391C467.656 116.238 467.312 117.047 466.709 117.642C466.106 118.237 465.293 118.571 464.446 118.571V118.613Z" fill="url(#paint5_linear_177_40)"/>
<path opacity="0.43" d="M389.888 159.798C392.565 156.444 393.932 152.232 393.736 147.945C393.54 143.659 391.794 139.59 388.822 136.494C385.851 133.398 381.857 131.487 377.582 131.115C373.307 130.743 369.043 131.937 365.582 134.473C362.121 137.01 359.699 140.717 358.766 144.905C357.833 149.093 358.453 153.478 360.51 157.243C362.567 161.009 365.922 163.899 369.95 165.377C373.978 166.855 378.406 166.82 382.411 165.278L391.248 168.625L389.909 159.787L389.888 159.798Z" fill="url(#paint6_linear_177_40)"/>
<path d="M369.306 150.877C370.109 150.877 370.76 150.226 370.76 149.423C370.76 148.62 370.109 147.969 369.306 147.969C368.503 147.969 367.853 148.62 367.853 149.423C367.853 150.226 368.503 150.877 369.306 150.877Z" fill="white"/>
<path d="M375.665 150.877C376.468 150.877 377.119 150.226 377.119 149.423C377.119 148.62 376.468 147.969 375.665 147.969C374.862 147.969 374.211 148.62 374.211 149.423C374.211 150.226 374.862 150.877 375.665 150.877Z" fill="white"/>
<path d="M382.034 150.877C382.837 150.877 383.488 150.226 383.488 149.423C383.488 148.62 382.837 147.969 382.034 147.969C381.231 147.969 380.58 148.62 380.58 149.423C380.58 150.226 381.231 150.877 382.034 150.877Z" fill="white"/>
<path opacity="0.67" d="M402.553 228.865C403.506 228.865 404.279 228.092 404.279 227.139C404.279 226.186 403.506 225.414 402.553 225.414C401.6 225.414 400.828 226.186 400.828 227.139C400.828 228.092 401.6 228.865 402.553 228.865Z" fill="#238DF0"/>
<path opacity="0.67" d="M393.486 214.924C394.56 214.924 395.431 214.053 395.431 212.979C395.431 211.904 394.56 211.033 393.486 211.033C392.412 211.033 391.541 211.904 391.541 212.979C391.541 214.053 392.412 214.924 393.486 214.924Z" fill="#238DF0"/>
<path d="M533.545 317.249C537.728 309.185 543.375 301.561 551.324 297.231C558.791 293.132 567.608 292.222 575.378 288.749C578.969 287.143 582.3 285.011 585.261 282.422C584.121 289.68 582.94 297.064 579.478 303.579C576.916 308.369 573.151 312.584 571.645 317.803" fill="url(#paint7_linear_177_40)"/>
<path opacity="0.33" d="M583.567 285.413C580.609 290.195 577.021 294.557 572.899 298.382C569.061 301.937 564.857 305.044 560.893 308.442C560.793 304.824 560.408 301.218 559.743 297.66C559.649 297.116 558.822 297.346 558.917 297.879C559.593 301.496 559.975 305.162 560.057 308.84C560.062 308.93 560.099 309.015 560.161 309.08C559.785 309.405 559.398 309.718 559.032 310.043C556.559 312.213 554.442 314.757 552.757 317.583C552.711 317.679 552.702 317.789 552.733 317.892C552.764 317.994 552.831 318.081 552.923 318.136C553.014 318.191 553.123 318.209 553.228 318.188C553.332 318.167 553.425 318.108 553.489 318.022C556.553 312.709 561.51 308.997 566.206 305.232C567.325 304.343 568.434 303.433 569.532 302.513C569.6 302.534 569.673 302.534 569.741 302.513C572.46 301.983 575.197 301.575 577.951 301.289C578.495 301.237 578.505 300.379 577.951 300.431C575.504 300.682 573.077 301.048 570.63 301.477C573.525 299.046 576.224 296.392 578.704 293.539C580.757 291.096 582.624 288.502 584.289 285.779C584.592 285.382 583.86 284.942 583.567 285.413Z" fill="white"/>
<path d="M451.875 270.573C451.028 261.558 448.549 252.396 442.787 245.41C437.369 238.832 429.515 234.711 423.575 228.603C420.832 225.779 418.527 222.56 416.735 219.055C415.104 226.219 413.451 233.55 414.267 240.861C414.873 246.247 416.808 251.559 416.275 256.966" fill="url(#paint8_linear_177_40)"/>
<path opacity="0.33" d="M417.216 222.475C418.189 228.009 419.902 233.388 422.309 238.466C424.568 243.193 427.319 247.638 429.735 252.26C431.173 248.938 432.866 245.732 434.797 242.67C435.09 242.199 435.78 242.67 435.487 243.182C433.52 246.294 431.81 249.561 430.373 252.95C430.332 253.03 430.266 253.092 430.185 253.128C430.404 253.567 430.655 253.996 430.864 254.436C432.36 257.372 433.39 260.522 433.918 263.775C433.928 263.884 433.896 263.993 433.829 264.08C433.761 264.166 433.663 264.223 433.554 264.239C433.446 264.255 433.335 264.229 433.245 264.166C433.155 264.103 433.093 264.008 433.071 263.9C432.203 257.834 428.971 252.553 426.001 247.313C425.3 246.069 424.6 244.824 423.909 243.559C423.838 243.583 423.761 243.583 423.69 243.559C421.368 242.063 418.973 240.672 416.526 239.375C416.034 239.124 416.348 238.33 416.84 238.581C419.015 239.721 421.148 240.965 423.23 242.272C421.444 238.941 419.919 235.476 418.67 231.908C417.676 228.876 416.904 225.775 416.359 222.632C416.348 222.575 416.349 222.517 416.361 222.462C416.373 222.406 416.396 222.353 416.429 222.305C416.461 222.258 416.503 222.218 416.551 222.187C416.599 222.156 416.653 222.135 416.709 222.124C416.765 222.114 416.823 222.115 416.879 222.127C416.935 222.139 416.988 222.162 417.035 222.194C417.082 222.227 417.122 222.269 417.153 222.317C417.184 222.365 417.206 222.418 417.216 222.475Z" fill="white"/>
<path d="M495.738 317.698C497.615 303.009 504.223 289.331 514.563 278.73C522.082 271.064 531.296 265.27 538.732 257.479C547.274 248.432 552.969 237.074 555.11 224.817C559.867 234.977 562.471 246.012 562.757 257.227C563.044 268.441 561.006 279.594 556.773 289.984C552.84 299.469 547.057 308.265 544.62 318.221" fill="url(#paint9_linear_177_40)"/>
<path d="M531.359 267.728C530.763 274.547 531.443 281.429 531.819 288.227C531.819 288.781 532.708 288.781 532.677 288.227C532.29 281.429 531.631 274.547 532.217 267.728C532.217 267.184 531.401 267.184 531.359 267.728Z" fill="white"/>
<path d="M540.05 277.454L556.02 270.583C556.522 270.374 556.083 269.631 555.581 269.851L539.621 276.722C539.119 276.931 539.548 277.674 540.05 277.454Z" fill="white"/>
<path d="M523.798 301.059L539.757 294.188C540.269 293.968 539.83 293.226 539.328 293.445L523.358 300.316C522.856 300.536 523.295 301.268 523.798 301.059Z" fill="white"/>
<path d="M514.008 286.271C514.901 293.282 516.513 300.182 518.819 306.863C518.997 307.386 519.865 307.156 519.645 306.633C517.357 300.027 515.752 293.204 514.855 286.271C514.793 285.737 513.935 285.727 514.008 286.271Z" fill="white"/>
<path d="M514.102 318.389C518.37 306.079 527.353 296.342 534.611 285.769C538.437 279.954 541.855 273.88 544.84 267.592C547.937 261.686 550.651 255.587 552.966 249.332C555.475 242.355 556.584 234.953 556.229 227.547C556.229 227.003 555.34 226.993 555.371 227.547C555.721 234.279 554.817 241.017 552.704 247.418C550.534 253.738 547.887 259.884 544.787 265.804C541.816 272.14 538.438 278.278 534.674 284.179C531.139 289.461 527.175 294.449 523.484 299.616C519.373 305.389 515.608 311.455 513.276 318.179C513.088 318.702 513.914 318.932 514.102 318.409V318.389Z" fill="white"/>
<path d="M451.363 317.698C449.485 303.009 442.878 289.331 432.538 278.73C425.018 271.064 415.804 265.27 408.368 257.479C399.827 248.432 394.132 237.074 391.991 224.817C387.233 234.977 384.629 246.012 384.343 257.227C384.057 268.441 386.095 279.594 390.328 289.984C394.26 299.469 400.033 308.265 402.48 318.221" fill="url(#paint10_linear_177_40)"/>
<path d="M415.742 267.728C416.338 274.547 415.658 281.429 415.281 288.227C415.281 288.781 414.392 288.781 414.424 288.227C414.8 281.429 415.47 274.547 414.884 267.728C414.884 267.184 415.689 267.184 415.742 267.728Z" fill="white"/>
<path d="M407.051 277.454L391.081 270.583C390.579 270.374 391.008 269.631 391.51 269.851L407.479 276.722C407.981 276.931 407.553 277.674 407.051 277.454Z" fill="white"/>
<path d="M423.261 301.059L407.291 294.188C406.789 293.968 407.228 293.226 407.73 293.445L423.69 300.316C424.202 300.536 423.763 301.268 423.261 301.059Z" fill="white"/>
<path d="M433.092 286.271C432.199 293.282 430.587 300.182 428.281 306.863C428.103 307.386 427.235 307.156 427.455 306.633C429.74 300.027 431.342 293.204 432.234 286.271C432.308 285.737 433.165 285.727 433.092 286.271Z" fill="white"/>
<path d="M432.998 318.389C428.731 306.079 419.737 296.342 412.478 285.769C408.652 279.956 405.238 273.882 402.261 267.592C399.159 261.688 396.445 255.588 394.135 249.332C391.62 242.357 390.511 234.953 390.872 227.547C390.872 227.003 391.76 226.993 391.729 227.547C391.379 234.279 392.283 241.017 394.396 247.418C396.562 253.74 399.209 259.886 402.313 265.804C405.285 272.14 408.663 278.278 412.426 284.179C415.961 289.461 419.925 294.449 423.617 299.616C427.727 305.389 431.492 311.455 433.824 318.179C434.002 318.702 433.176 318.932 432.998 318.409V318.389Z" fill="white"/>
<path opacity="0.45" d="M376.449 226.323C376.888 226.323 377.244 225.967 377.244 225.528C377.244 225.09 376.888 224.734 376.449 224.734C376.01 224.734 375.655 225.09 375.655 225.528C375.655 225.967 376.01 226.323 376.449 226.323Z" fill="#238DF0"/>
<path opacity="0.45" d="M402.553 228.917C403.506 228.917 404.279 228.145 404.279 227.192C404.279 226.239 403.506 225.466 402.553 225.466C401.6 225.466 400.828 226.239 400.828 227.192C400.828 228.145 401.6 228.917 402.553 228.917Z" fill="#238DF0"/>
<path opacity="0.25" d="M393.486 214.976C394.56 214.976 395.431 214.105 395.431 213.031C395.431 211.957 394.56 211.086 393.486 211.086C392.412 211.086 391.541 211.957 391.541 213.031C391.541 214.105 392.412 214.976 393.486 214.976Z" fill="#238DF0"/>
<path opacity="0.48" d="M584.372 314.948C584.811 314.948 585.167 314.592 585.167 314.153C585.167 313.714 584.811 313.358 584.372 313.358C583.933 313.358 583.578 313.714 583.578 314.153C583.578 314.592 583.933 314.948 584.372 314.948Z" fill="#238DF0"/>
<path opacity="0.48" d="M589.56 301.833C590.513 301.833 591.285 301.06 591.285 300.107C591.285 299.154 590.513 298.382 589.56 298.382C588.607 298.382 587.834 299.154 587.834 300.107C587.834 301.06 588.607 301.833 589.56 301.833Z" fill="#238DF0"/>
<path opacity="0.48" d="M577.303 279.222C578.256 279.222 579.028 278.449 579.028 277.496C579.028 276.543 578.256 275.771 577.303 275.771C576.35 275.771 575.577 276.543 575.577 277.496C575.577 278.449 576.35 279.222 577.303 279.222Z" fill="#238DF0"/>
<path opacity="0.48" d="M525.753 243.779C526.192 243.779 526.548 243.423 526.548 242.984C526.548 242.545 526.192 242.189 525.753 242.189C525.314 242.189 524.958 242.545 524.958 242.984C524.958 243.423 525.314 243.779 525.753 243.779Z" fill="#238DF0"/>
<path opacity="0.48" d="M545.018 227.014C545.971 227.014 546.743 226.241 546.743 225.288C546.743 224.335 545.971 223.562 545.018 223.562C544.064 223.562 543.292 224.335 543.292 225.288C543.292 226.241 544.064 227.014 545.018 227.014Z" fill="#238DF0"/>
<path opacity="0.48" d="M528.525 223.981C529.599 223.981 530.47 223.11 530.47 222.035C530.47 220.961 529.599 220.09 528.525 220.09C527.45 220.09 526.579 220.961 526.579 222.035C526.579 223.11 527.45 223.981 528.525 223.981Z" fill="#238DF0"/>
<path fill-rule="evenodd" clip-rule="evenodd" d="M358.116 255.366L358.848 255.094L358.398 253.871L357.656 254.132L358.116 255.366Z" fill="#1D1D1B"/>
<path fill-rule="evenodd" clip-rule="evenodd" d="M358.984 257.573L359.705 257.27L359.224 256.057L358.492 256.35L358.984 257.573Z" fill="#1D1D1B"/>
<path fill-rule="evenodd" clip-rule="evenodd" d="M359.925 259.738L360.636 259.403L360.113 258.211L359.392 258.525L359.925 259.738Z" fill="#1D1D1B"/>
<path fill-rule="evenodd" clip-rule="evenodd" d="M355.867 248.642L356.62 248.422L356.254 247.167L355.491 247.376L355.867 248.642Z" fill="#1D1D1B"/>
<path fill-rule="evenodd" clip-rule="evenodd" d="M356.558 250.901L357.3 250.66L356.913 249.415L356.16 249.646L356.558 250.901Z" fill="#1D1D1B"/>
<path fill-rule="evenodd" clip-rule="evenodd" d="M357.3 253.128L358.043 252.877L357.614 251.643L356.871 251.884L357.3 253.128Z" fill="#1D1D1B"/>
<path fill-rule="evenodd" clip-rule="evenodd" d="M354.1 241.771L354.863 241.603L354.591 240.317L353.828 240.474L354.1 241.771Z" fill="#1D1D1B"/>
<path fill-rule="evenodd" clip-rule="evenodd" d="M354.633 244.071L355.397 243.883L355.093 242.607L354.33 242.785L354.633 244.071Z" fill="#1D1D1B"/>
<path fill-rule="evenodd" clip-rule="evenodd" d="M355.219 246.351L355.972 246.142L355.637 244.887L354.884 245.075L355.219 246.351Z" fill="#1D1D1B"/>
<path fill-rule="evenodd" clip-rule="evenodd" d="M352.813 234.795L353.587 234.669L353.389 233.383L352.615 233.487L352.813 234.795Z" fill="#1D1D1B"/>
<path fill-rule="evenodd" clip-rule="evenodd" d="M353.19 237.127L353.964 236.991C353.88 236.562 353.817 236.133 353.755 235.694L352.981 235.82C353.033 236.259 353.096 236.688 353.19 237.127Z" fill="#1D1D1B"/>
<path fill-rule="evenodd" clip-rule="evenodd" d="M353.608 239.438L354.372 239.292L354.142 238.005L353.368 238.141L353.608 239.438Z" fill="#1D1D1B"/>
<path fill-rule="evenodd" clip-rule="evenodd" d="M352.019 227.735L352.793 227.683C352.793 227.244 352.709 226.815 352.698 226.376L351.914 226.428C351.935 226.867 351.977 227.296 352.019 227.735Z" fill="#1D1D1B"/>
<path fill-rule="evenodd" clip-rule="evenodd" d="M352.217 230.099L352.991 230.015L352.887 228.708L352.102 228.781L352.217 230.099Z" fill="#1D1D1B"/>
<path fill-rule="evenodd" clip-rule="evenodd" d="M352.489 232.431L353.263 232.337L353.117 231.04L352.332 231.124L352.489 232.431Z" fill="#1D1D1B"/>
<path fill-rule="evenodd" clip-rule="evenodd" d="M351.726 220.644H352.51L352.5 219.337L351.715 219.327L351.726 220.644Z" fill="#1D1D1B"/>
<path fill-rule="evenodd" clip-rule="evenodd" d="M351.757 223.008L352.542 222.987L352.521 221.68L351.736 221.69L351.757 223.008Z" fill="#1D1D1B"/>
<path fill-rule="evenodd" clip-rule="evenodd" d="M351.862 225.361L352.646 225.319L352.583 224.012L351.799 224.043L351.862 225.361Z" fill="#1D1D1B"/>
<path fill-rule="evenodd" clip-rule="evenodd" d="M351.977 213.554L352.761 213.616L352.845 212.309L352.06 212.236L351.977 213.554Z" fill="#1D1D1B"/>
<path fill-rule="evenodd" clip-rule="evenodd" d="M351.82 215.917H352.604C352.604 215.489 352.604 215.049 352.688 214.621L351.904 214.568C351.872 215.039 351.83 215.478 351.82 215.917Z" fill="#1D1D1B"/>
<path fill-rule="evenodd" clip-rule="evenodd" d="M351.747 218.27L352.531 218.281L352.573 216.984L351.789 216.953L351.747 218.27Z" fill="#1D1D1B"/>
<path fill-rule="evenodd" clip-rule="evenodd" d="M352.772 206.505L353.545 206.62L353.755 205.333L352.981 205.197L352.772 206.505Z" fill="#1D1D1B"/>
<path fill-rule="evenodd" clip-rule="evenodd" d="M352.437 208.847L353.211 208.942C353.211 208.513 353.305 208.074 353.378 207.645L352.604 207.54C352.531 207.969 352.489 208.408 352.437 208.847Z" fill="#1D1D1B"/>
<path fill-rule="evenodd" clip-rule="evenodd" d="M352.176 211.18L352.949 211.263L353.096 209.966L352.322 209.872L352.176 211.18Z" fill="#1D1D1B"/>
<path fill-rule="evenodd" clip-rule="evenodd" d="M354.11 199.529L354.874 199.717L355.198 198.452L354.445 198.253L354.11 199.529Z" fill="#1D1D1B"/>
<path fill-rule="evenodd" clip-rule="evenodd" d="M353.608 201.84L354.382 202.008L354.644 200.721L353.88 200.554L353.608 201.84Z" fill="#1D1D1B"/>
<path fill-rule="evenodd" clip-rule="evenodd" d="M353.19 204.152L353.953 204.288C354.027 203.859 354.131 203.44 354.215 203.012L353.441 202.865C353.315 203.294 353.19 203.723 353.19 204.152Z" fill="#1D1D1B"/>
<path fill-rule="evenodd" clip-rule="evenodd" d="M356.045 192.7L356.788 192.951L357.185 191.706L356.453 191.445L356.045 192.7Z" fill="#1D1D1B"/>
<path fill-rule="evenodd" clip-rule="evenodd" d="M355.344 194.959L356.097 195.178L356.484 193.934L355.731 193.704L355.344 194.959Z" fill="#1D1D1B"/>
<path fill-rule="evenodd" clip-rule="evenodd" d="M354.706 197.228L355.47 197.427L355.794 196.162L355.041 195.952L354.706 197.228Z" fill="#1D1D1B"/>
<path fill-rule="evenodd" clip-rule="evenodd" d="M358.534 186.059L359.256 186.362L359.768 185.159L359.057 184.845L358.534 186.059Z" fill="#1D1D1B"/>
<path fill-rule="evenodd" clip-rule="evenodd" d="M357.635 188.245L358.367 188.527C358.524 188.119 358.66 187.701 358.837 187.314L358.116 187.01C357.928 187.418 357.792 187.837 357.635 188.245Z" fill="#1D1D1B"/>
<path fill-rule="evenodd" clip-rule="evenodd" d="M356.819 190.451L357.551 190.713L358.011 189.489L357.279 189.217L356.819 190.451Z" fill="#1D1D1B"/>
<path fill-rule="evenodd" clip-rule="evenodd" d="M361.557 179.627L362.257 179.982C362.446 179.595 362.634 179.198 362.853 178.832L362.163 178.455C361.923 178.832 361.734 179.229 361.557 179.627Z" fill="#1D1D1B"/>
<path fill-rule="evenodd" clip-rule="evenodd" d="M360.479 181.739L361.191 182.085L361.766 180.913L361.076 180.558L360.479 181.739Z" fill="#1D1D1B"/>
<path fill-rule="evenodd" clip-rule="evenodd" d="M359.465 183.873L360.176 184.197C360.354 183.789 360.521 183.392 360.72 183.005L360.009 182.67C359.821 183.057 359.643 183.465 359.465 183.873Z" fill="#1D1D1B"/>
<path fill-rule="evenodd" clip-rule="evenodd" d="M365.06 173.467L365.73 173.885L366.43 172.777L365.771 172.358L365.06 173.467Z" fill="#1D1D1B"/>
<path fill-rule="evenodd" clip-rule="evenodd" d="M363.837 175.485L364.506 175.883C364.725 175.506 364.924 175.119 365.165 174.753L364.495 174.345C364.255 174.711 364.056 175.109 363.837 175.485Z" fill="#1D1D1B"/>
<path fill-rule="evenodd" clip-rule="evenodd" d="M362.665 177.535L363.355 177.911L364.004 176.772L363.324 176.385L362.665 177.535Z" fill="#1D1D1B"/>
<path fill-rule="evenodd" clip-rule="evenodd" d="M369.045 167.589L369.683 168.06L370.446 166.993L369.819 166.522L369.045 167.589Z" fill="#1D1D1B"/>
<path fill-rule="evenodd" clip-rule="evenodd" d="M367.664 169.514L368.302 169.963L369.066 168.896L368.438 168.436L367.664 169.514Z" fill="#1D1D1B"/>
<path fill-rule="evenodd" clip-rule="evenodd" d="M366.346 171.459L366.995 171.898L367.706 170.789L367.058 170.35L366.346 171.459Z" fill="#1D1D1B"/>
<path fill-rule="evenodd" clip-rule="evenodd" d="M398.161 138.086L398.611 138.734L399.719 137.981L399.28 137.323L398.161 138.086Z" fill="#1D1D1B"/>
<path fill-rule="evenodd" clip-rule="evenodd" d="M396.184 139.498L396.655 140.126L397.732 139.341L397.283 138.703L396.184 139.498Z" fill="#1D1D1B"/>
<path fill-rule="evenodd" clip-rule="evenodd" d="M394.271 140.993L394.772 141.6C395.118 141.307 395.463 141.035 395.818 140.763L395.337 140.146C394.975 140.418 394.619 140.701 394.271 140.993Z" fill="#1D1D1B"/>
<path fill-rule="evenodd" clip-rule="evenodd" d="M404.352 134.227L404.739 134.917C405.116 134.687 405.513 134.467 405.911 134.269L405.534 133.578C405.137 133.788 404.739 133.997 404.352 134.227Z" fill="#1D1D1B"/>
<path fill-rule="evenodd" clip-rule="evenodd" d="M402.25 135.451L402.658 136.12L403.819 135.451L403.422 134.771L402.25 135.451Z" fill="#1D1D1B"/>
<path fill-rule="evenodd" clip-rule="evenodd" d="M400.2 136.737L400.619 137.396L401.759 136.674L401.34 136.005L400.2 136.737Z" fill="#1D1D1B"/>
<path fill-rule="evenodd" clip-rule="evenodd" d="M410.837 130.912L411.171 131.623C411.579 131.434 411.976 131.236 412.384 131.058L412.071 130.347C411.652 130.525 411.244 130.723 410.837 130.912Z" fill="#1D1D1B"/>
<path fill-rule="evenodd" clip-rule="evenodd" d="M408.651 131.958L408.996 132.658L410.209 132.083L409.874 131.372L408.651 131.958Z" fill="#1D1D1B"/>
<path fill-rule="evenodd" clip-rule="evenodd" d="M406.496 133.066L406.862 133.756L408.055 133.129L407.699 132.438L406.496 133.066Z" fill="#1D1D1B"/>
<path fill-rule="evenodd" clip-rule="evenodd" d="M417.572 128.119L417.844 128.851L419.109 128.391L418.837 127.659L417.572 128.119Z" fill="#1D1D1B"/>
<path fill-rule="evenodd" clip-rule="evenodd" d="M415.302 128.987L415.595 129.709C416.003 129.531 416.421 129.364 416.84 129.217L416.557 128.485C416.139 128.632 415.71 128.799 415.302 128.987Z" fill="#1D1D1B"/>
<path fill-rule="evenodd" clip-rule="evenodd" d="M413.075 129.918L413.388 130.64L414.622 130.117L414.319 129.395L413.075 129.918Z" fill="#1D1D1B"/>
<path fill-rule="evenodd" clip-rule="evenodd" d="M424.485 125.829L424.704 126.582C425.133 126.446 425.562 126.32 425.991 126.216L425.792 125.463C425.353 125.567 424.914 125.693 424.485 125.829Z" fill="#1D1D1B"/>
<path fill-rule="evenodd" clip-rule="evenodd" d="M422.163 126.54L422.404 127.293L423.69 126.896L423.46 126.143L422.163 126.54Z" fill="#1D1D1B"/>
<path fill-rule="evenodd" clip-rule="evenodd" d="M419.862 127.283L420.124 128.025C420.542 127.858 420.971 127.732 421.389 127.607L421.148 126.854C420.72 126.99 420.291 127.094 419.862 127.283Z" fill="#1D1D1B"/>
<path fill-rule="evenodd" clip-rule="evenodd" d="M431.565 124.093L431.722 124.856L433.04 124.605L432.893 123.842L431.565 124.093Z" fill="#1D1D1B"/>
<path fill-rule="evenodd" clip-rule="evenodd" d="M429.191 124.616L429.369 125.379C429.808 125.275 430.237 125.149 430.676 125.055L430.509 124.292C430.07 124.386 429.63 124.501 429.191 124.616Z" fill="#1D1D1B"/>
<path fill-rule="evenodd" clip-rule="evenodd" d="M426.848 125.201L427.047 125.954L428.344 125.63L428.156 124.867L426.848 125.201Z" fill="#1D1D1B"/>
<path fill-rule="evenodd" clip-rule="evenodd" d="M438.75 122.901L438.855 123.674L440.183 123.507L440.099 122.723L438.75 122.901Z" fill="#1D1D1B"/>
<path fill-rule="evenodd" clip-rule="evenodd" d="M436.344 123.214L436.47 123.988L437.798 123.811L437.683 123.037L436.344 123.214Z" fill="#1D1D1B"/>
<path fill-rule="evenodd" clip-rule="evenodd" d="M433.96 123.633L434.106 124.406L435.424 124.155L435.299 123.382L433.96 123.633Z" fill="#1D1D1B"/>
<path fill-rule="evenodd" clip-rule="evenodd" d="M446.008 122.231L446.05 123.016L447.389 122.921L447.357 122.137L446.008 122.231Z" fill="#1D1D1B"/>
<path fill-rule="evenodd" clip-rule="evenodd" d="M443.582 122.388L443.644 123.172L444.983 123.089L444.931 122.304L443.582 122.388Z" fill="#1D1D1B"/>
<path fill-rule="evenodd" clip-rule="evenodd" d="M441.176 122.587L441.26 123.371C441.703 123.303 442.15 123.261 442.599 123.246L442.525 122.461C442.086 122.493 441.626 122.514 441.176 122.587Z" fill="#1D1D1B"/>
<path fill-rule="evenodd" clip-rule="evenodd" d="M487.758 120.275L487.716 121.06L488.971 121.123L489.023 120.338L487.758 120.275Z" fill="#1D1D1B"/>
<path fill-rule="evenodd" clip-rule="evenodd" d="M485.499 120.192V120.976H486.754V120.192H485.499Z" fill="#1D1D1B"/>
<path fill-rule="evenodd" clip-rule="evenodd" d="M483.229 120.181L483.25 120.966H484.495L484.505 120.181H483.229Z" fill="#1D1D1B"/>
<path fill-rule="evenodd" clip-rule="evenodd" d="M494.524 120.872L494.441 121.646L495.675 121.802L495.779 121.029L494.524 120.872Z" fill="#1D1D1B"/>
<path fill-rule="evenodd" clip-rule="evenodd" d="M492.286 120.61L492.203 121.395C492.621 121.395 493.039 121.489 493.447 121.531L493.531 120.746C493.123 120.704 492.705 120.642 492.286 120.61Z" fill="#1D1D1B"/>
<path fill-rule="evenodd" clip-rule="evenodd" d="M490.038 120.422L489.975 121.206L491.22 121.311L491.293 120.527L490.038 120.422Z" fill="#1D1D1B"/>
<path fill-rule="evenodd" clip-rule="evenodd" d="M501.249 121.907L501.103 122.671L502.326 122.932L502.483 122.158L501.249 121.907Z" fill="#1D1D1B"/>
<path fill-rule="evenodd" clip-rule="evenodd" d="M499.011 121.52L498.886 122.294L500.12 122.503L500.266 121.729L499.011 121.52Z" fill="#1D1D1B"/>
<path fill-rule="evenodd" clip-rule="evenodd" d="M496.794 121.164L496.679 121.938L497.913 122.137L498.038 121.363L496.794 121.164Z" fill="#1D1D1B"/>
<path fill-rule="evenodd" clip-rule="evenodd" d="M507.88 123.402L507.681 124.166L508.894 124.48L509.093 123.716L507.88 123.402Z" fill="#1D1D1B"/>
<path fill-rule="evenodd" clip-rule="evenodd" d="M505.684 122.838L505.506 123.601L506.719 123.915L506.907 123.151L505.684 122.838Z" fill="#1D1D1B"/>
<path fill-rule="evenodd" clip-rule="evenodd" d="M503.477 122.367L503.32 123.141L504.544 123.392L504.711 122.629L503.477 122.367Z" fill="#1D1D1B"/>
<path fill-rule="evenodd" clip-rule="evenodd" d="M514.395 125.306L514.155 126.049L515.347 126.435L515.598 125.693L514.395 125.306Z" fill="#1D1D1B"/>
<path fill-rule="evenodd" clip-rule="evenodd" d="M512.241 124.626L512.011 125.369L513.203 125.756L513.444 125.003L512.241 124.626Z" fill="#1D1D1B"/>
<path fill-rule="evenodd" clip-rule="evenodd" d="M510.066 123.957L509.857 124.71C510.264 124.814 510.672 124.919 511.059 125.055L511.289 124.302C510.892 124.187 510.484 124.082 510.066 123.957Z" fill="#1D1D1B"/>
<path fill-rule="evenodd" clip-rule="evenodd" d="M520.785 127.628L520.493 128.36C520.88 128.506 521.277 128.653 521.653 128.81L521.957 128.088C521.57 127.921 521.172 127.785 520.785 127.628Z" fill="#1D1D1B"/>
<path fill-rule="evenodd" clip-rule="evenodd" d="M518.673 126.822L518.39 127.554L519.562 128.004L519.855 127.272L518.673 126.822Z" fill="#1D1D1B"/>
<path fill-rule="evenodd" clip-rule="evenodd" d="M516.56 126.017L516.299 126.76L517.47 127.209L517.742 126.467L516.56 126.017Z" fill="#1D1D1B"/>
<path fill-rule="evenodd" clip-rule="evenodd" d="M526.998 130.389L526.653 131.089C527.035 131.255 527.408 131.44 527.772 131.644L528.127 130.953C527.761 130.744 527.384 130.556 526.998 130.389Z" fill="#1D1D1B"/>
<path fill-rule="evenodd" clip-rule="evenodd" d="M524.937 129.447L524.613 130.159L525.753 130.682L526.088 129.97L524.937 129.447Z" fill="#1D1D1B"/>
<path fill-rule="evenodd" clip-rule="evenodd" d="M522.888 128.517L522.574 129.228L523.714 129.751L524.038 129.039L522.888 128.517Z" fill="#1D1D1B"/>
<path fill-rule="evenodd" clip-rule="evenodd" d="M533.001 133.589L532.603 134.258C532.964 134.455 533.313 134.672 533.649 134.907L534.047 134.237C533.71 134.002 533.361 133.786 533.001 133.589Z" fill="#1D1D1B"/>
<path fill-rule="evenodd" clip-rule="evenodd" d="M531.003 132.501L530.627 133.192L531.725 133.788L532.122 133.108L531.003 132.501Z" fill="#1D1D1B"/>
<path fill-rule="evenodd" clip-rule="evenodd" d="M529.027 131.434L528.661 132.125L529.759 132.721L530.135 132.031L529.027 131.434Z" fill="#1D1D1B"/>
<path fill-rule="evenodd" clip-rule="evenodd" d="M538.743 137.218L538.303 137.866C538.667 138.081 539.016 138.319 539.349 138.578L539.799 137.94C539.464 137.675 539.111 137.434 538.743 137.218Z" fill="#1D1D1B"/>
<path fill-rule="evenodd" clip-rule="evenodd" d="M536.839 135.994L536.41 136.653L537.467 137.333L537.906 136.674L536.839 135.994Z" fill="#1D1D1B"/>
<path fill-rule="evenodd" clip-rule="evenodd" d="M534.936 134.781L534.528 135.451L535.584 136.12L536.002 135.461L534.936 134.781Z" fill="#1D1D1B"/>
<path fill-rule="evenodd" clip-rule="evenodd" d="M544.202 141.276L543.71 141.893C544.034 142.154 544.379 142.385 544.693 142.656L545.195 142.06C544.881 141.736 544.578 141.537 544.202 141.276Z" fill="#1D1D1B"/>
<path fill-rule="evenodd" clip-rule="evenodd" d="M542.392 139.916L541.911 140.544L542.915 141.297L543.396 140.68L542.392 139.916Z" fill="#1D1D1B"/>
<path fill-rule="evenodd" clip-rule="evenodd" d="M540.594 138.557L540.133 139.195L541.127 139.948L541.598 139.31L540.594 138.557Z" fill="#1D1D1B"/>
<path fill-rule="evenodd" clip-rule="evenodd" d="M549.326 145.752L548.783 146.317L549.713 147.154L550.257 146.589L549.326 145.752Z" fill="#1D1D1B"/>
<path fill-rule="evenodd" clip-rule="evenodd" d="M547.632 144.236L547.109 144.821L548.05 145.658L548.573 145.083L547.632 144.236Z" fill="#1D1D1B"/>
<path fill-rule="evenodd" clip-rule="evenodd" d="M545.948 142.73L545.446 143.336L546.377 144.162L546.889 143.577L545.948 142.73Z" fill="#1D1D1B"/>
<path fill-rule="evenodd" clip-rule="evenodd" d="M583.515 190.388L582.783 190.681C582.95 191.079 583.107 191.487 583.264 191.894L583.996 191.602C583.839 191.194 583.682 190.786 583.515 190.388Z" fill="#1D1D1B"/>
<path fill-rule="evenodd" clip-rule="evenodd" d="M582.594 188.224L581.873 188.537L582.396 189.73L583.117 189.426L582.594 188.224Z" fill="#1D1D1B"/>
<path fill-rule="evenodd" clip-rule="evenodd" d="M581.59 186.1L580.89 186.446C581.078 186.833 581.277 187.219 581.454 187.617L582.166 187.282C581.977 186.885 581.789 186.487 581.59 186.1Z" fill="#1D1D1B"/>
<path fill-rule="evenodd" clip-rule="evenodd" d="M585.889 197.03L585.146 197.27L585.512 198.515L586.265 198.295L585.889 197.03Z" fill="#1D1D1B"/>
<path fill-rule="evenodd" clip-rule="evenodd" d="M585.157 194.802L584.414 195.053L584.822 196.287L585.565 196.046L585.157 194.802Z" fill="#1D1D1B"/>
<path fill-rule="evenodd" clip-rule="evenodd" d="M584.372 192.595L583.64 192.867L584.08 194.091L584.812 193.829L584.372 192.595Z" fill="#1D1D1B"/>
<path fill-rule="evenodd" clip-rule="evenodd" d="M587.709 203.849L586.945 204.026L587.238 205.292L588.001 205.135L587.709 203.849Z" fill="#1D1D1B"/>
<path fill-rule="evenodd" clip-rule="evenodd" d="M587.165 201.568L586.412 201.757C586.527 202.175 586.621 202.604 586.715 203.022L587.478 202.844C587.384 202.395 587.28 201.987 587.165 201.568Z" fill="#1D1D1B"/>
<path fill-rule="evenodd" clip-rule="evenodd" d="M586.558 199.299L585.805 199.519L586.14 200.774L586.903 200.564L586.558 199.299Z" fill="#1D1D1B"/>
<path fill-rule="evenodd" clip-rule="evenodd" d="M589.005 210.761L588.221 210.876C588.294 211.305 588.336 211.734 588.388 212.163L589.173 212.069C589.11 211.661 589.079 211.222 589.005 210.761Z" fill="#1D1D1B"/>
<path fill-rule="evenodd" clip-rule="evenodd" d="M588.639 208.471L587.866 208.607L588.064 209.883L588.838 209.768L588.639 208.471Z" fill="#1D1D1B"/>
<path fill-rule="evenodd" clip-rule="evenodd" d="M588.2 206.17L587.437 206.316L587.688 207.603L588.451 207.456L588.2 206.17Z" fill="#1D1D1B"/>
<path fill-rule="evenodd" clip-rule="evenodd" d="M589.706 217.821L588.922 217.863L588.964 219.159L589.748 219.128L589.706 217.821Z" fill="#1D1D1B"/>
<path fill-rule="evenodd" clip-rule="evenodd" d="M589.528 215.478L588.744 215.541L588.838 216.838L589.622 216.785L589.528 215.478Z" fill="#1D1D1B"/>
<path fill-rule="evenodd" clip-rule="evenodd" d="M589.288 213.146L588.514 213.23L588.66 214.526L589.445 214.443L589.288 213.146Z" fill="#1D1D1B"/>
<path fill-rule="evenodd" clip-rule="evenodd" d="M589.779 224.88H588.995C588.995 225.309 588.995 225.738 588.922 226.177H589.706C589.727 225.759 589.779 225.319 589.779 224.88Z" fill="#1D1D1B"/>
<path fill-rule="evenodd" clip-rule="evenodd" d="M589.811 222.527H589.026L589.005 223.824L589.79 223.845L589.811 222.527Z" fill="#1D1D1B"/>
<path fill-rule="evenodd" clip-rule="evenodd" d="M589.779 220.184L588.995 220.205L589.047 221.502H589.832L589.779 220.184Z" fill="#1D1D1B"/>
<path fill-rule="evenodd" clip-rule="evenodd" d="M589.183 231.919L588.399 231.814C588.346 232.243 588.315 232.682 588.231 233.1L589.005 233.215C589.089 232.787 589.131 232.358 589.183 231.919Z" fill="#1D1D1B"/>
<path fill-rule="evenodd" clip-rule="evenodd" d="M589.455 229.586L588.671 229.503L588.524 230.8L589.298 230.883L589.455 229.586Z" fill="#1D1D1B"/>
<path fill-rule="evenodd" clip-rule="evenodd" d="M589.643 227.244L588.859 227.191L588.775 228.488L589.56 228.551L589.643 227.244Z" fill="#1D1D1B"/>
<path fill-rule="evenodd" clip-rule="evenodd" d="M587.897 238.863L587.133 238.685L586.841 239.951L587.594 240.139L587.897 238.863Z" fill="#1D1D1B"/>
<path fill-rule="evenodd" clip-rule="evenodd" d="M588.42 236.573L587.656 236.416C587.573 236.845 587.458 237.263 587.364 237.681L588.137 237.849C588.232 237.43 588.336 237.001 588.42 236.573Z" fill="#1D1D1B"/>
<path fill-rule="evenodd" clip-rule="evenodd" d="M588.828 234.261L588.054 234.136L587.824 235.412L588.598 235.558L588.828 234.261Z" fill="#1D1D1B"/>
<path fill-rule="evenodd" clip-rule="evenodd" d="M585.931 245.65L585.188 245.389L584.749 246.613L585.481 246.884L585.931 245.65Z" fill="#1D1D1B"/>
<path fill-rule="evenodd" clip-rule="evenodd" d="M586.663 243.412L585.91 243.182L585.544 244.427L586.286 244.667L586.663 243.412Z" fill="#1D1D1B"/>
<path fill-rule="evenodd" clip-rule="evenodd" d="M587.332 241.164L586.569 240.965L586.203 242.199L586.956 242.419L587.332 241.164Z" fill="#1D1D1B"/>
<path fill-rule="evenodd" clip-rule="evenodd" d="M583.274 252.198L582.563 251.863C582.396 252.263 582.207 252.654 581.998 253.034L582.709 253.379C582.929 253.003 583.107 252.595 583.274 252.198Z" fill="#1D1D1B"/>
<path fill-rule="evenodd" clip-rule="evenodd" d="M584.226 250.043L583.504 249.74L582.981 250.922L583.703 251.246L584.226 250.043Z" fill="#1D1D1B"/>
<path fill-rule="evenodd" clip-rule="evenodd" d="M585.115 247.878L584.383 247.596C584.226 247.993 584.101 248.412 583.923 248.799L584.644 249.102C584.833 248.704 584.958 248.286 585.115 247.878Z" fill="#1D1D1B"/>
<path fill-rule="evenodd" clip-rule="evenodd" d="M579.959 258.431L579.29 258.033L578.62 259.142L579.279 259.55L579.959 258.431Z" fill="#1D1D1B"/>
<path fill-rule="evenodd" clip-rule="evenodd" d="M581.182 256.402L580.492 256.025C580.304 256.412 580.084 256.778 579.854 257.155L580.534 257.542C580.733 257.165 580.952 256.778 581.182 256.402Z" fill="#1D1D1B"/>
<path fill-rule="evenodd" clip-rule="evenodd" d="M582.228 254.321L581.528 253.965L580.932 255.115L581.622 255.481L582.228 254.321Z" fill="#1D1D1B"/>
<path fill-rule="evenodd" clip-rule="evenodd" d="M576.079 264.329L575.451 263.869C575.2 264.225 574.96 264.58 574.677 264.915L575.305 265.385C575.587 265.051 575.828 264.685 576.079 264.329Z" fill="#1D1D1B"/>
<path fill-rule="evenodd" clip-rule="evenodd" d="M577.428 262.405L576.78 261.955L576.037 263.022L576.675 263.472L577.428 262.405Z" fill="#1D1D1B"/>
<path fill-rule="evenodd" clip-rule="evenodd" d="M578.735 260.46L578.077 260.041C577.857 260.407 577.616 260.773 577.365 261.087L578.024 261.526C578.275 261.202 578.516 260.836 578.735 260.46Z" fill="#1D1D1B"/>
<path fill-rule="evenodd" clip-rule="evenodd" d="M571.666 269.841L571.069 269.318L570.191 270.28L570.777 270.803L571.666 269.841Z" fill="#1D1D1B"/>
<path fill-rule="evenodd" clip-rule="evenodd" d="M573.182 268.042L572.575 267.54L571.76 268.554L572.366 269.067L573.182 268.042Z" fill="#1D1D1B"/>
<path fill-rule="evenodd" clip-rule="evenodd" d="M574.646 266.212L574.029 265.731L573.213 266.745L573.83 267.237L574.646 266.212Z" fill="#1D1D1B"/>
<path fill-rule="evenodd" clip-rule="evenodd" d="M566.781 274.934L566.237 274.38L565.307 275.279L565.84 275.854L566.781 274.934Z" fill="#1D1D1B"/>
<path fill-rule="evenodd" clip-rule="evenodd" d="M568.476 273.302L567.911 272.759L566.98 273.658L567.534 274.212L568.476 273.302Z" fill="#1D1D1B"/>
<path fill-rule="evenodd" clip-rule="evenodd" d="M570.065 271.587L569.49 271.054L568.612 272.016L569.187 272.56L570.065 271.587Z" fill="#1D1D1B"/>
<path fill-rule="evenodd" clip-rule="evenodd" d="M561.542 279.661L561.04 279.065L560.057 279.912L560.548 280.519L561.542 279.661Z" fill="#1D1D1B"/>
<path fill-rule="evenodd" clip-rule="evenodd" d="M563.33 278.134L562.807 277.548L561.824 278.396L562.337 278.992L563.33 278.134Z" fill="#1D1D1B"/>
<path fill-rule="evenodd" clip-rule="evenodd" d="M565.087 276.587L564.554 276.011C564.25 276.315 563.916 276.597 563.592 276.879L564.115 277.465C564.449 277.183 564.773 276.9 565.087 276.587Z" fill="#1D1D1B"/>
<path d="M479.475 223.019C474.674 226.961 469.958 228.562 463.181 228.143C460.638 228.162 458.18 227.229 456.289 225.529C453.614 227.85 451.718 230.94 450.861 234.376C448.926 244.573 448.769 254.927 448.696 265.239L448.183 314.54C448.163 314.691 448.201 314.844 448.288 314.969C448.442 315.104 448.638 315.181 448.842 315.188C456.59 316.518 464.463 316.967 472.311 316.527C475.846 316.318 479.517 315.952 482.842 316.956C482.372 312.542 483.742 308.15 484.934 303.82C487.611 294.334 489.588 284.629 489.201 274.903C489.065 271.64 488.668 268.397 488.542 265.145C488.323 259.665 488.867 254.174 488.793 248.694C488.724 243.548 488.114 238.423 486.974 233.404C486.053 229.335 482.539 226.292 479.454 223.019" fill="white"/>
<path d="M456.289 225.529C456.059 232.651 455.326 239.051 455.243 247.23C455.243 250.995 455.023 253.881 455.034 257.688C455.034 260.271 454.845 262.865 454.647 265.448L450.976 314.299C450.989 314.605 450.892 314.905 450.704 315.147C450.236 315.477 449.657 315.608 449.093 315.513L430.676 314.843L432.193 301.645C432.843 297.2 433.078 292.704 432.893 288.216C432.569 283.75 431.429 279.337 431.324 274.871C431.34 271.905 431.582 268.943 432.046 266.013L433.73 253.463C434.776 246.017 435.947 238.11 441.71 232.295C443.41 230.679 445.235 229.199 447.169 227.871C449.658 226.052 452.994 225.78 456.289 225.455" fill="url(#paint11_linear_177_40)"/>
<path d="M451.248 226.449C448.267 226.449 445.454 228.154 441.94 229.388C438.143 230.705 435.665 233.184 432.967 235.799C430.54 238.11 425.039 245.619 422.874 248.161C416.704 255.398 410.732 263.785 405.189 271.514C400.922 277.465 397.785 278.657 392.022 283.175C388.027 286.313 383.342 288.404 378.823 290.768C372.508 294.056 366.474 297.858 360.783 302.136C360.238 302.409 359.81 302.869 359.575 303.431C359.341 303.994 359.317 304.622 359.507 305.2L360.396 311.559C360.382 311.768 360.414 311.977 360.491 312.172C360.567 312.366 360.685 312.542 360.837 312.686C360.989 312.829 361.17 312.938 361.369 313.004C361.567 313.069 361.778 313.09 361.986 313.065C365.975 313.423 369.986 313.461 373.981 313.18C378.004 313.042 382.007 312.556 385.946 311.727C389.824 310.733 393.624 309.453 397.314 307.899C402.899 305.713 408.515 303.506 413.577 300.285C423.146 294.198 430.153 284.88 436.407 275.426C437.601 273.695 438.65 271.869 439.545 269.966C440.506 267.63 441.251 265.211 441.772 262.74C442.909 257.97 444.038 253.201 445.161 248.432" fill="url(#paint12_linear_177_40)"/>
<path d="M479.475 223.018C479.774 232.717 479.582 242.424 478.9 252.103C476.808 276.733 476.473 291.239 471.579 315.471C471.471 315.741 471.442 316.036 471.493 316.323C471.545 316.609 471.676 316.876 471.872 317.092C472.328 317.374 472.864 317.499 473.398 317.447L494.43 317.803C494.851 317.838 495.274 317.773 495.664 317.615C496.026 317.367 496.283 316.994 496.386 316.569C499.199 309.248 499.649 301.394 499.89 293.675C500.21 283.433 500.21 273.198 499.89 262.97C499.597 253.118 499.032 243.099 502.347 233.602C502.839 232.211 503.927 230.904 502.933 229.712C502.133 229.005 501.207 228.455 500.203 228.091C494.587 225.759 485.478 224.357 479.423 222.977" fill="url(#paint13_linear_177_40)"/>
<path opacity="0.18" d="M455.839 225.947C455.839 225.947 456.759 226.083 457.669 228.739C460.052 237.425 460.688 246.496 459.541 255.429C457.753 267.111 457.303 282.736 458.349 286.48C459.165 289.44 462.281 298.057 480.312 286.271C498.342 274.484 481.629 298.737 481.629 298.737L449.522 306.978C449.522 306.978 442.923 280.498 443.487 279.557" fill="#F49595"/>
<path d="M474.957 293.382C474.957 293.382 481.378 290.893 487.507 283.05C493.636 275.206 492.736 269.705 492.736 265.344C492.736 260.982 492.004 236.886 500.308 237.618C508.612 238.35 501.762 278.741 501.762 278.741L490.969 291.207L478.91 296.436" fill="#FFA600"/>
<path d="M502.421 229.409C499.473 233.986 497.416 239.077 496.355 244.417C494.755 252.02 495.382 255.251 495.309 264.005C495.309 268.952 496.135 274.003 494.472 280.257C493.186 285.1 489.337 287.4 484.819 289.523C480.301 291.647 475.459 293.017 470.753 294.753C459.541 298.779 448.895 301.708 438.332 307.303C435.079 309.018 438.645 313.086 438.604 313.735C438.629 314.204 438.784 314.657 439.053 315.042C441.019 318.41 441.344 317.709 443.184 318.922C443.843 319.351 445.914 318.378 446.615 318.765C447.315 319.152 449.125 318.692 449.878 318.661C452.762 318.659 455.643 318.485 458.506 318.138C472.478 315.69 484.547 319.748 497.631 314.216C501.197 312.71 504.795 311.078 507.608 308.37C511.603 304.594 513.632 299.197 515.107 293.895C520.681 273.888 519.855 251.288 508.769 233.738C508.069 232.61 507.136 231.645 506.032 230.907C504.928 230.169 503.679 229.676 502.368 229.461" fill="url(#paint14_linear_177_40)"/>
<path d="M437.035 308.84C437.035 308.84 427.298 307.146 423.24 308.003C419.182 308.861 413.545 310.158 413.66 313.358H437.035" fill="#FFC7C9"/>
<path d="M431.45 308.024C431.45 308.024 433.542 291.762 432.245 281.491C432.245 281.491 435.246 261.035 437.139 263.043C439.032 265.051 439.524 273.397 438.562 279.975C437.6 286.553 435.738 303.266 436.648 309.102" fill="#FFA600"/>
<path d="M467.029 313.358H299.538C298.603 313.358 297.844 314.117 297.844 315.052V316.13C297.844 317.065 298.603 317.824 299.538 317.824H467.029C467.965 317.824 468.724 317.065 468.724 316.13V315.052C468.724 314.117 467.965 313.358 467.029 313.358Z" fill="url(#paint15_linear_177_40)"/>
<path d="M402.543 317.824H300.532C299.865 317.823 299.222 317.575 298.726 317.13C298.23 316.684 297.916 316.071 297.844 315.408L290.732 247.805C290.691 247.429 290.73 247.048 290.846 246.687C290.961 246.327 291.152 245.995 291.404 245.713C291.657 245.43 291.966 245.205 292.311 245.05C292.657 244.895 293.031 244.815 293.41 244.814H396.373C397.046 244.816 397.694 245.069 398.191 245.524C398.688 245.978 398.998 246.601 399.06 247.272L405.231 314.875C405.266 315.249 405.222 315.626 405.103 315.982C404.984 316.338 404.792 316.665 404.539 316.943C404.286 317.221 403.977 317.442 403.634 317.594C403.29 317.746 402.919 317.824 402.543 317.824Z" fill="url(#paint16_linear_177_40)"/>
<path d="M399.207 317.824H297.196C296.529 317.823 295.886 317.575 295.39 317.13C294.894 316.684 294.58 316.071 294.508 315.408L287.396 247.805C287.355 247.428 287.394 247.046 287.51 246.685C287.627 246.324 287.818 245.991 288.072 245.709C288.325 245.426 288.636 245.201 288.982 245.047C289.329 244.892 289.705 244.813 290.084 244.814H393.036C393.71 244.814 394.36 245.066 394.857 245.521C395.355 245.976 395.664 246.6 395.724 247.272L401.895 314.875C401.929 315.249 401.886 315.626 401.767 315.982C401.648 316.338 401.455 316.665 401.202 316.943C400.949 317.221 400.641 317.442 400.298 317.594C399.954 317.746 399.582 317.824 399.207 317.824Z" fill="url(#paint17_linear_177_40)"/>
<path opacity="0.48" d="M340.65 287.86C343.769 287.86 346.298 285.332 346.298 282.213C346.298 279.094 343.769 276.565 340.65 276.565C337.531 276.565 335.003 279.094 335.003 282.213C335.003 285.332 337.531 287.86 340.65 287.86Z" fill="white"/>
<defs>
<linearGradient id="paint0_linear_177_40" x1="462.721" y1="293.236" x2="-702.604" y2="557.854" gradientUnits="userSpaceOnUse">
<stop stop-color="#1384EF"/>
<stop offset="0.65" stop-color="#073BA0"/>
<stop offset="1" stop-color="#001376"/>
</linearGradient>
<linearGradient id="paint1_linear_177_40" x1="220.588" y1="101.409" x2="576.382" y2="273.093" gradientUnits="userSpaceOnUse">
<stop stop-color="#B0DAFF"/>
<stop offset="1" stop-color="#1484EF"/>
</linearGradient>
<linearGradient id="paint2_linear_177_40" x1="530.92" y1="120.62" x2="559.23" y2="157.507" gradientUnits="userSpaceOnUse">
<stop stop-color="#B0DAFF"/>
<stop offset="1" stop-color="#1484EF"/>
</linearGradient>
<linearGradient id="paint3_linear_177_40" x1="616.145" y1="205.323" x2="551.805" y2="156.43" gradientUnits="userSpaceOnUse">
<stop stop-color="#B0DAFF"/>
<stop offset="1" stop-color="#1484EF"/>
</linearGradient>
<linearGradient id="paint4_linear_177_40" x1="503.111" y1="153.481" x2="462.501" y2="117.002" gradientUnits="userSpaceOnUse">
<stop stop-color="#B0DAFF"/>
<stop offset="1" stop-color="#1484EF"/>
</linearGradient>
<linearGradient id="paint5_linear_177_40" x1="464.017" y1="91.4941" x2="464.3" y2="121.677" gradientUnits="userSpaceOnUse">
<stop stop-color="#B0DAFF"/>
<stop offset="1" stop-color="#1484EF"/>
</linearGradient>
<linearGradient id="paint6_linear_177_40" x1="423.784" y1="96.2735" x2="374.713" y2="155.499" gradientUnits="userSpaceOnUse">
<stop stop-color="#B0DAFF"/>
<stop offset="1" stop-color="#1484EF"/>
</linearGradient>
<linearGradient id="paint7_linear_177_40" x1="585.345" y1="264.11" x2="546.722" y2="326.87" gradientUnits="userSpaceOnUse">
<stop stop-color="#1384EF"/>
<stop offset="1" stop-color="#001376"/>
</linearGradient>
<linearGradient id="paint8_linear_177_40" x1="424.203" y1="202.216" x2="436.901" y2="274.874" gradientUnits="userSpaceOnUse">
<stop stop-color="#1384EF"/>
<stop offset="1" stop-color="#001376"/>
</linearGradient>
<linearGradient id="paint9_linear_177_40" x1="577.418" y1="181.279" x2="520.388" y2="314.226" gradientUnits="userSpaceOnUse">
<stop stop-color="#B0DAFF"/>
<stop offset="1" stop-color="#0E81EE"/>
</linearGradient>
<linearGradient id="paint10_linear_177_40" x1="369.672" y1="181.279" x2="426.702" y2="314.226" gradientUnits="userSpaceOnUse">
<stop stop-color="#B0DAFF"/>
<stop offset="1" stop-color="#0E81EE"/>
</linearGradient>
<linearGradient id="paint11_linear_177_40" x1="443.482" y1="225.455" x2="443.482" y2="315.543" gradientUnits="userSpaceOnUse">
<stop stop-color="#FFC933"/>
<stop offset="1" stop-color="#FF9900"/>
</linearGradient>
<linearGradient id="paint12_linear_177_40" x1="405.314" y1="226.449" x2="405.314" y2="313.365" gradientUnits="userSpaceOnUse">
<stop stop-color="#FFC933"/>
<stop offset="1" stop-color="#FF9900"/>
</linearGradient>
<linearGradient id="paint13_linear_177_40" x1="487.403" y1="222.977" x2="487.403" y2="317.812" gradientUnits="userSpaceOnUse">
<stop stop-color="#FFC933"/>
<stop offset="1" stop-color="#FF9900"/>
</linearGradient>
<linearGradient id="paint14_linear_177_40" x1="477.72" y1="229.409" x2="477.72" y2="319.034" gradientUnits="userSpaceOnUse">
<stop stop-color="#FFC933"/>
<stop offset="1" stop-color="#FF9900"/>
</linearGradient>
<linearGradient id="paint15_linear_177_40" x1="479.925" y1="382.98" x2="427.748" y2="346.595" gradientUnits="userSpaceOnUse">
<stop stop-color="white"/>
<stop offset="1" stop-color="#ACCCEF"/>
</linearGradient>
<linearGradient id="paint16_linear_177_40" x1="290.712" y1="281.324" x2="405.241" y2="281.324" gradientUnits="userSpaceOnUse">
<stop stop-color="white"/>
<stop offset="1" stop-color="#ACCCEF"/>
</linearGradient>
<linearGradient id="paint17_linear_177_40" x1="309.725" y1="359.114" x2="389.25" y2="182.001" gradientUnits="userSpaceOnUse">
<stop stop-color="white"/>
<stop offset="1" stop-color="#ACCCEF"/>
</linearGradient>
</defs>
</svg>
